<svg width="180" height="40" viewBox="0 0 180 40" fill="none" xmlns="http://www.w3.org/2000/svg">
<g clip-path="url(#clip0_4692_2780)">
<path d="M161.203 31.9149H167.707C167.959 32.7349 168.817 33.5548 170.425 33.5548C172.602 33.5548 173.352 32.2026 173.352 30.2031V28.7789H173.208C172.134 30.0304 170.706 30.9511 168.601 30.9511C164.455 30.9511 160.85 27.887 160.85 21.8955C160.85 16.4076 163.813 12.1279 168.284 12.1279C170.858 12.1279 172.429 13.1637 173.468 14.8036H173.576V12.7033H180.007V29.3112C180.007 32.3752 178.933 34.7632 177.325 36.1945C175.645 37.6906 173.251 38.2948 170.533 38.2948C165.421 38.2948 161.852 36.1874 161.203 31.9149ZM173.641 21.5719C173.641 19.1839 172.501 17.2563 170.533 17.2563C168.637 17.2563 167.426 18.9681 167.426 21.5719C167.426 24.1397 168.644 25.9882 170.533 25.9882C172.494 25.9954 173.641 24.1037 173.641 21.5719ZM153.669 15.976H153.777C155.168 13.3003 156.993 12.3077 159.314 12.3077C159.848 12.3077 160.208 12.3797 160.425 12.4876V18.3711H160.28C156.315 17.6591 153.993 19.5507 153.993 23.8591V31.879H147.237V12.7033H153.669V15.976ZM0 5H13.2233C15.7252 5 17.6503 5.60418 19.013 6.71185C20.5488 7.95618 21.3707 9.81189 21.3707 12.02C21.3707 14.5878 20.3325 16.1918 18.1911 17.1916V17.2994C20.9814 18.2273 22.5892 20.7231 22.5892 23.7513C22.5892 26.6355 21.4789 28.8868 19.6619 30.239C18.1262 31.3467 16.129 31.879 13.4829 31.879H0V5ZM12.5816 25.9234C14.1895 25.9234 15.3647 24.9596 15.3647 23.1758C15.3647 21.3201 14.0813 20.4282 12.5456 20.4282H7.32546V25.9162H12.5816V25.9234ZM11.8967 15.5157C13.3243 15.5157 14.3625 14.7317 14.3625 13.1637C14.3625 11.6316 13.2882 10.8836 11.8606 10.8836H7.32546V15.5157H11.8967Z" fill="#414651"/>
<path d="M23.8005 5H30.7294V31.879H23.8005V5ZM32.056 22.3199C32.056 16.2637 35.9855 12.1639 42.0637 12.1639C48.1418 12.1639 51.9992 16.2637 51.9992 22.3199C51.9992 28.4193 48.1418 32.4759 42.0637 32.4759C35.9855 32.4831 32.056 28.4193 32.056 22.3199ZM45.1352 22.3199C45.1352 18.9681 44.0608 16.8679 41.9916 16.8679C39.9223 16.8679 38.9201 18.9681 38.9201 22.3199C38.9201 25.7077 39.9223 27.8079 41.9916 27.8079C44.0608 27.8151 45.1352 25.7077 45.1352 22.3199ZM52.7851 22.3199C52.7851 16.2637 56.7146 12.1639 62.7927 12.1639C68.8708 12.1639 72.7282 16.2637 72.7282 22.3199C72.7282 28.4193 68.8708 32.4759 62.7927 32.4759C56.7146 32.4831 52.7851 28.4193 52.7851 22.3199ZM65.8642 22.3199C65.8642 18.9681 64.7899 16.8679 62.7206 16.8679C60.6513 16.8679 59.6491 18.9681 59.6491 22.3199C59.6491 25.7077 60.6513 27.8079 62.7206 27.8079C64.7899 27.8151 65.8642 25.7077 65.8642 22.3199ZM74.0476 12.7033H80.479V15.5876H80.5872C81.8706 13.3435 83.6226 12.1279 86.3769 12.1279C88.8067 12.1279 90.6308 13.3363 91.5609 15.4437H91.6691C93.2409 12.9119 95.2813 12.1279 97.639 12.1279C102.109 12.1279 104.034 15.4078 104.034 19.8241V31.8718H97.2785V21.0396C97.2785 19.076 96.6729 17.7957 94.9569 17.7957C93.2769 17.7957 92.4189 19.3637 92.4189 21.4352V31.879H85.6559V21.0396C85.6559 19.076 85.0502 17.7957 83.3342 17.7957C81.6543 17.7957 80.7963 19.3637 80.7963 21.4352V31.879H74.0476V12.7033ZM112.283 29.3831H112.211V31.879H105.779V5H112.535V14.6957H112.643C113.927 13.0198 115.643 12.1279 118.108 12.1279C122.932 12.1279 125.722 16.4795 125.722 22.248C125.722 28.7717 122.687 32.5119 117.683 32.5119C115.607 32.5191 113.465 31.5193 112.283 29.3831ZM118.858 22.1833C118.858 19.0832 117.719 17.0837 115.679 17.0837C113.609 17.0837 112.283 19.0832 112.283 22.1833C112.283 25.2473 113.602 27.2828 115.679 27.2828C117.748 27.2757 118.858 25.2833 118.858 22.1833ZM126.58 22.2552C126.58 16.2637 130.546 12.0991 136.3 12.0991C139.155 12.0991 141.375 12.991 143.055 14.595C145.269 16.7312 146.271 20.083 146.199 24.039H133.3C133.589 26.4269 134.728 27.6425 136.768 27.6425C137.951 27.6425 138.982 27.1102 139.414 25.8227H145.918C144.779 30.2031 141.383 32.4184 136.559 32.4184C130.582 32.4112 126.58 28.3833 126.58 22.2552ZM133.3 20.2556H139.443C139.335 17.9396 138.052 16.724 136.444 16.724C134.584 16.724 133.545 18.0475 133.3 20.2556Z" fill="#414651"/>
</g>
<defs>
<clipPath id="clip0_4692_2780">
<rect width="180" height="40" fill="white"/>
</clipPath>
</defs>
</svg>
