<svg width="32" height="24" viewBox="0 0 32 24" fill="none" xmlns="http://www.w3.org/2000/svg">
<path d="M4 0.794189H28C29.933 0.794189 31.5 2.36119 31.5 4.29419V19.7053C31.5 21.6383 29.933 23.2053 28 23.2053H4C2.067 23.2053 0.5 21.6383 0.5 19.7053V4.29419L0.504883 4.1145C0.598423 2.26502 2.12727 0.794189 4 0.794189Z" fill="white"/>
<path d="M4 0.794189H28C29.933 0.794189 31.5 2.36119 31.5 4.29419V19.7053C31.5 21.6383 29.933 23.2053 28 23.2053H4C2.067 23.2053 0.5 21.6383 0.5 19.7053V4.29419L0.504883 4.1145C0.598423 2.26502 2.12727 0.794189 4 0.794189Z" stroke="#E9EAEB"/>
<path d="M19.2576 11.9999C19.2576 15.7034 16.2898 18.7057 12.6288 18.7057C8.96782 18.7057 6 15.7034 6 11.9999C6 8.29646 8.96782 5.29419 12.6288 5.29419C16.2898 5.29419 19.2576 8.29646 19.2576 11.9999Z" fill="#ED0006"/>
<path d="M27.8572 11.9999C27.8572 15.7034 24.8894 18.7057 21.2284 18.7057C17.5674 18.7057 14.5996 15.7034 14.5996 11.9999C14.5996 8.29646 17.5674 5.29419 21.2284 5.29419C24.8894 5.29419 27.8572 8.29646 27.8572 11.9999Z" fill="#0099DF"/>
<path fill-rule="evenodd" clip-rule="evenodd" d="M16.9286 6.89624C18.3539 8.1262 19.2576 9.95636 19.2576 12.0001C19.2576 14.0438 18.3539 15.8739 16.9286 17.1039C15.5034 15.8739 14.5996 14.0438 14.5996 12.0001C14.5996 9.95636 15.5034 8.1262 16.9286 6.89624Z" fill="#6C6BBD"/>
</svg>
