<svg width="24" height="24" viewBox="0 0 24 24" fill="none" xmlns="http://www.w3.org/2000/svg">
<path d="M0 12.0005C0 5.37307 5.37258 0.000488281 12 0.000488281C18.6274 0.000488281 24 5.37307 24 12.0005C24 18.6279 18.6274 24.0005 12 24.0005C5.37258 24.0005 0 18.6279 0 12.0005Z" fill="#EFF4FF"/>
<path fill-rule="evenodd" clip-rule="evenodd" d="M17.0964 7.39065L9.93638 14.3006L8.03638 12.2706C7.68638 11.9406 7.13638 11.9206 6.73638 12.2006C6.34638 12.4906 6.23638 13.0006 6.47638 13.4106L8.72638 17.0706C8.94638 17.4106 9.32638 17.6206 9.75638 17.6206C10.1664 17.6206 10.5564 17.4106 10.7764 17.0706C11.1364 16.6006 18.0064 8.41065 18.0064 8.41065C18.9064 7.49065 17.8164 6.68065 17.0964 7.38065V7.39065Z" fill="#155EEF"/>
</svg>
