<svg width="60" height="60" viewBox="0 0 60 60" fill="none" xmlns="http://www.w3.org/2000/svg">
<g filter="url(#filter0_dii_4423_24463)">
<path d="M2 13C2 6.37258 7.37258 1 14 1H46C52.6274 1 58 6.37258 58 13V45C58 51.6274 52.6274 57 46 57H14C7.37258 57 2 51.6274 2 45V13Z" fill="white"/>
<path d="M14 1.5H46C52.3513 1.5 57.5 6.64873 57.5 13V45C57.5 51.3513 52.3513 56.5 46 56.5H14C7.64873 56.5 2.5 51.3513 2.5 45V13C2.5 6.64873 7.64873 1.5 14 1.5Z" stroke="#D5D7DA"/>
<path d="M18.3333 23.167L27.8591 29.835C28.6304 30.375 29.0161 30.6449 29.4356 30.7495C29.8062 30.8419 30.1938 30.8419 30.5643 30.7495C30.9839 30.6449 31.3695 30.375 32.1409 29.835L41.6666 23.167M23.9333 38.3337H36.0666C38.0268 38.3337 39.0069 38.3337 39.7556 37.9522C40.4142 37.6166 40.9496 37.0812 41.2852 36.4226C41.6666 35.6739 41.6666 34.6938 41.6666 32.7337V25.267C41.6666 23.3068 41.6666 22.3267 41.2852 21.578C40.9496 20.9195 40.4142 20.384 39.7556 20.0485C39.0069 19.667 38.0268 19.667 36.0666 19.667H23.9333C21.9731 19.667 20.993 19.667 20.2443 20.0485C19.5858 20.384 19.0503 20.9195 18.7148 21.578C18.3333 22.3267 18.3333 23.3068 18.3333 25.267V32.7337C18.3333 34.6938 18.3333 35.6739 18.7148 36.4226C19.0503 37.0812 19.5858 37.6166 20.2443 37.9522C20.993 38.3337 21.9731 38.3337 23.9333 38.3337Z" stroke="#414651" stroke-width="2" stroke-linecap="round" stroke-linejoin="round"/>
</g>
<defs>
<filter id="filter0_dii_4423_24463" x="0" y="0" width="60" height="60" filterUnits="userSpaceOnUse" color-interpolation-filters="sRGB">
<feFlood flood-opacity="0" result="BackgroundImageFix"/>
<feColorMatrix in="SourceAlpha" type="matrix" values="0 0 0 0 0 0 0 0 0 0 0 0 0 0 0 0 0 0 127 0" result="hardAlpha"/>
<feOffset dy="1"/>
<feGaussianBlur stdDeviation="1"/>
<feColorMatrix type="matrix" values="0 0 0 0 0.0392157 0 0 0 0 0.0496732 0 0 0 0 0.0705882 0 0 0 0.05 0"/>
<feBlend mode="normal" in2="BackgroundImageFix" result="effect1_dropShadow_4423_24463"/>
<feBlend mode="normal" in="SourceGraphic" in2="effect1_dropShadow_4423_24463" result="shape"/>
<feColorMatrix in="SourceAlpha" type="matrix" values="0 0 0 0 0 0 0 0 0 0 0 0 0 0 0 0 0 0 127 0" result="hardAlpha"/>
<feOffset dy="-2"/>
<feComposite in2="hardAlpha" operator="arithmetic" k2="-1" k3="1"/>
<feColorMatrix type="matrix" values="0 0 0 0 0.0392157 0 0 0 0 0.0496732 0 0 0 0 0.0705882 0 0 0 0.05 0"/>
<feBlend mode="normal" in2="shape" result="effect2_innerShadow_4423_24463"/>
<feColorMatrix in="SourceAlpha" type="matrix" values="0 0 0 0 0 0 0 0 0 0 0 0 0 0 0 0 0 0 127 0" result="hardAlpha"/>
<feMorphology radius="1" operator="erode" in="SourceAlpha" result="effect3_innerShadow_4423_24463"/>
<feOffset/>
<feComposite in2="hardAlpha" operator="arithmetic" k2="-1" k3="1"/>
<feColorMatrix type="matrix" values="0 0 0 0 0.0392157 0 0 0 0 0.0496732 0 0 0 0 0.0705882 0 0 0 0.18 0"/>
<feBlend mode="normal" in2="effect2_innerShadow_4423_24463" result="effect3_innerShadow_4423_24463"/>
</filter>
</defs>
</svg>
