<svg width="67" height="67" viewBox="0 0 67 67" fill="none" xmlns="http://www.w3.org/2000/svg">
<g clip-path="url(#clip0_4269_50046)">
<rect width="96" height="96" fill="url(#paint0_linear_4269_50046)"/>
<path d="M35.4795 17.627C40.4352 17.6271 43.6689 20.6936 43.6689 25.2715C43.6688 29.7653 40.6031 33.5868 36.5293 33.5449C40.1413 37.4089 42.7872 40.5596 47.5332 45.5576C51.859 50.1354 56.1009 54.4608 61.3926 53.7891V54.209C54.6308 56.0148 49.8006 52.4032 45.3066 47.2793C43.2485 44.9692 36.7388 37.7877 34.0088 34.7217C32.9589 33.5458 32.2032 32.7892 31.4473 32.6631V32.2852C31.6577 32.2852 32.6233 32.3691 33.7148 32.2852C35.4788 32.1172 39.2166 31.781 40.2666 27.917C40.3926 27.455 40.5605 26.6572 40.5186 25.3975C40.3926 21.8276 38.7552 19.0139 35.3115 18.9717H30.0615V44.0029C30.1035 45.3889 31.237 46.6494 32.791 46.6494H33.2949V47.0693H24.1387V46.6494H24.6846C26.0286 46.6494 27.2891 45.5569 27.3311 44.0029V20.6934C27.3311 19.2234 26.1126 18.0469 24.6426 18.0469H24.1387V17.627H35.4795ZM24.0967 11.0195H23.5928C22.1229 11.0197 20.9053 12.1961 20.9053 13.666V36.6396C20.9053 46.7613 12.6737 47.9376 8.89355 46.1738L9.06152 45.7119C12.1696 46.7617 18.1328 46.0053 18.1328 36.5557V13.666C18.1328 12.1961 16.9152 11.0197 15.4453 11.0195H14.9414V10.5996H24.1387L24.0967 11.0195Z" fill="#181D27"/>
</g>
<defs>
<linearGradient id="paint0_linear_4269_50046" x1="48" y1="1.19209e-06" x2="52" y2="96" gradientUnits="userSpaceOnUse">
<stop stop-color="white" stop-opacity="0"/>
<stop offset="1" stop-color="white" stop-opacity="0.12"/>
</linearGradient>
<clipPath id="clip0_4269_50046">
<rect width="66.2871" height="66.2871" rx="16.5718" fill="white"/>
</clipPath>
</defs>
</svg>
