<svg width="53" height="45" viewBox="0 0 53 45" fill="none" xmlns="http://www.w3.org/2000/svg">
<path d="M26.5859 7.02734C31.5417 7.02753 34.7754 10.094 34.7754 14.6719C34.7753 19.1657 31.7095 22.9871 27.6357 22.9453C31.2477 26.8093 33.8936 29.96 38.6396 34.958C42.9654 39.5358 47.2073 43.8611 52.499 43.1895V43.6094C45.7372 45.4151 40.907 41.8036 36.4131 36.6797C34.355 34.3696 27.8453 27.1881 25.1152 24.1221C24.0653 22.9462 23.3096 22.1896 22.5537 22.0635V21.6855C22.7642 21.6856 23.7298 21.7695 24.8213 21.6855C26.5853 21.5175 30.323 21.1814 31.373 17.3174C31.499 16.8554 31.667 16.0576 31.625 14.7979C31.499 11.228 29.8616 8.41433 26.418 8.37207H21.168V33.4033C21.21 34.7893 22.3435 36.0498 23.8975 36.0498H24.4014V36.4697H15.2451V36.0498H15.791C17.135 36.0498 18.3955 34.9573 18.4375 33.4033V10.0938C18.4375 8.62375 17.219 7.44727 15.749 7.44727H15.2451V7.02734H26.5859ZM15.2031 0.419922H14.6992C13.2294 0.420078 12.0117 1.5965 12.0117 3.06641V26.04C12.0117 36.1617 3.78016 37.338 0 35.5742L0.167969 35.1123C3.27608 36.1621 9.23926 35.4057 9.23926 25.9561V3.06641C9.23926 1.59649 8.02165 0.420053 6.55176 0.419922H6.04785V0H15.2451L15.2031 0.419922Z" fill="#181D27"/>
</svg>
