<svg width="57" height="56" viewBox="0 0 57 56" fill="none" xmlns="http://www.w3.org/2000/svg">
<g filter="url(#filter0_dddi_3137_16209)">
<rect x="4.5" y="3" width="48" height="48" rx="10" fill="white"/>
<rect x="4.5" y="3" width="48" height="48" rx="10" fill="url(#paint0_linear_3137_16209)" fill-opacity="0.2"/>
<rect x="4.625" y="3.125" width="47.75" height="47.75" rx="9.875" stroke="#83B3F6" stroke-opacity="0.64" stroke-width="0.25"/>
<g filter="url(#filter1_d_3137_16209)">
<path d="M28.4995 32.3752C34.2078 32.3752 38.8354 37.0029 38.8354 42.7112H34.7007C34.7007 39.2862 31.9245 36.51 28.4995 36.51C25.0746 36.51 22.2983 39.2862 22.2983 42.7112H18.1636C18.1636 37.0029 22.7913 32.3753 28.4995 32.3752ZM12.7896 16.6643C18.4977 16.6643 23.1253 21.2921 23.1255 27.0002C23.1255 32.7085 18.4978 37.3362 12.7896 37.3362V33.2014C16.2145 33.2014 18.9907 30.4252 18.9907 27.0002C18.9906 23.5754 16.2144 20.7991 12.7896 20.7991V16.6643ZM44.2104 20.7991C40.7856 20.7991 38.0094 23.5754 38.0093 27.0002C38.0093 30.4252 40.7855 33.2014 44.2104 33.2014V37.3362C38.5022 37.3362 33.8745 32.7085 33.8745 27.0002C33.8747 21.2921 38.5023 16.6643 44.2104 16.6643V20.7991ZM22.2983 11.2903C22.2983 14.7152 25.0746 17.4914 28.4995 17.4915C31.9245 17.4915 34.7007 14.7152 34.7007 11.2903H38.8354C38.8354 16.9985 34.2078 21.6262 28.4995 21.6262C22.7913 21.6262 18.1636 16.9985 18.1636 11.2903H22.2983Z" fill="url(#paint1_linear_3137_16209)"/>
</g>
<g filter="url(#filter2_d_3137_16209)">
<path d="M28.4995 32.3752C34.2078 32.3752 38.8354 37.0029 38.8354 42.7112H34.7007C34.7007 39.2862 31.9245 36.51 28.4995 36.51C25.0746 36.51 22.2983 39.2862 22.2983 42.7112H18.1636C18.1636 37.0029 22.7913 32.3753 28.4995 32.3752ZM12.7896 16.6643C18.4977 16.6643 23.1253 21.2921 23.1255 27.0002C23.1255 32.7085 18.4978 37.3362 12.7896 37.3362V33.2014C16.2145 33.2014 18.9907 30.4252 18.9907 27.0002C18.9906 23.5754 16.2144 20.7991 12.7896 20.7991V16.6643ZM44.2104 20.7991C40.7856 20.7991 38.0094 23.5754 38.0093 27.0002C38.0093 30.4252 40.7855 33.2014 44.2104 33.2014V37.3362C38.5022 37.3362 33.8745 32.7085 33.8745 27.0002C33.8747 21.2921 38.5023 16.6643 44.2104 16.6643V20.7991ZM22.2983 11.2903C22.2983 14.7152 25.0746 17.4914 28.4995 17.4915C31.9245 17.4915 34.7007 14.7152 34.7007 11.2903H38.8354C38.8354 16.9985 34.2078 21.6262 28.4995 21.6262C22.7913 21.6262 18.1636 16.9985 18.1636 11.2903H22.2983Z" fill="url(#paint2_linear_3137_16209)"/>
</g>
</g>
<defs>
<filter id="filter0_dddi_3137_16209" x="0.75" y="0.5" width="55.5" height="55.5" filterUnits="userSpaceOnUse" color-interpolation-filters="sRGB">
<feFlood flood-opacity="0" result="BackgroundImageFix"/>
<feColorMatrix in="SourceAlpha" type="matrix" values="0 0 0 0 0 0 0 0 0 0 0 0 0 0 0 0 0 0 127 0" result="hardAlpha"/>
<feOffset dy="1.25"/>
<feGaussianBlur stdDeviation="1.25"/>
<feColorMatrix type="matrix" values="0 0 0 0 0.0392157 0 0 0 0 0.0509804 0 0 0 0 0.0705882 0 0 0 0.06 0"/>
<feBlend mode="normal" in2="BackgroundImageFix" result="effect1_dropShadow_3137_16209"/>
<feColorMatrix in="SourceAlpha" type="matrix" values="0 0 0 0 0 0 0 0 0 0 0 0 0 0 0 0 0 0 127 0" result="hardAlpha"/>
<feOffset dy="1.25"/>
<feGaussianBlur stdDeviation="1.875"/>
<feColorMatrix type="matrix" values="0 0 0 0 0.0392157 0 0 0 0 0.0509804 0 0 0 0 0.0705882 0 0 0 0.1 0"/>
<feBlend mode="normal" in2="effect1_dropShadow_3137_16209" result="effect2_dropShadow_3137_16209"/>
<feColorMatrix in="SourceAlpha" type="matrix" values="0 0 0 0 0 0 0 0 0 0 0 0 0 0 0 0 0 0 127 0" result="hardAlpha"/>
<feMorphology radius="0.625" operator="erode" in="SourceAlpha" result="effect3_dropShadow_3137_16209"/>
<feOffset dy="1.25"/>
<feGaussianBlur stdDeviation="0.625"/>
<feComposite in2="hardAlpha" operator="out"/>
<feColorMatrix type="matrix" values="0 0 0 0 0.0392157 0 0 0 0 0.0509804 0 0 0 0 0.0705882 0 0 0 0.13 0"/>
<feBlend mode="normal" in2="effect2_dropShadow_3137_16209" result="effect3_dropShadow_3137_16209"/>
<feBlend mode="normal" in="SourceGraphic" in2="effect3_dropShadow_3137_16209" result="shape"/>
<feColorMatrix in="SourceAlpha" type="matrix" values="0 0 0 0 0 0 0 0 0 0 0 0 0 0 0 0 0 0 127 0" result="hardAlpha"/>
<feOffset dy="-0.625"/>
<feGaussianBlur stdDeviation="0.3125"/>
<feComposite in2="hardAlpha" operator="arithmetic" k2="-1" k3="1"/>
<feColorMatrix type="matrix" values="0 0 0 0 0.0392157 0 0 0 0 0.0509804 0 0 0 0 0.0705882 0 0 0 0.1 0"/>
<feBlend mode="normal" in2="shape" result="effect4_innerShadow_3137_16209"/>
</filter>
<filter id="filter1_d_3137_16209" x="9.48212" y="6.3289" width="38.0358" height="46.3041" filterUnits="userSpaceOnUse" color-interpolation-filters="sRGB">
<feFlood flood-opacity="0" result="BackgroundImageFix"/>
<feColorMatrix in="SourceAlpha" type="matrix" values="0 0 0 0 0 0 0 0 0 0 0 0 0 0 0 0 0 0 127 0" result="hardAlpha"/>
<feMorphology radius="1.65371" operator="erode" in="SourceAlpha" result="effect1_dropShadow_3137_16209"/>
<feOffset dy="2.48057"/>
<feGaussianBlur stdDeviation="2.48057"/>
<feComposite in2="hardAlpha" operator="out"/>
<feColorMatrix type="matrix" values="0 0 0 0 0.141176 0 0 0 0 0.141176 0 0 0 0 0.141176 0 0 0 0.1 0"/>
<feBlend mode="normal" in2="BackgroundImageFix" result="effect1_dropShadow_3137_16209"/>
<feBlend mode="normal" in="SourceGraphic" in2="effect1_dropShadow_3137_16209" result="shape"/>
</filter>
<filter id="filter2_d_3137_16209" x="9.48212" y="6.3289" width="38.0358" height="46.3041" filterUnits="userSpaceOnUse" color-interpolation-filters="sRGB">
<feFlood flood-opacity="0" result="BackgroundImageFix"/>
<feColorMatrix in="SourceAlpha" type="matrix" values="0 0 0 0 0 0 0 0 0 0 0 0 0 0 0 0 0 0 127 0" result="hardAlpha"/>
<feMorphology radius="1.65371" operator="erode" in="SourceAlpha" result="effect1_dropShadow_3137_16209"/>
<feOffset dy="2.48057"/>
<feGaussianBlur stdDeviation="2.48057"/>
<feComposite in2="hardAlpha" operator="out"/>
<feColorMatrix type="matrix" values="0 0 0 0 0.141176 0 0 0 0 0.141176 0 0 0 0 0.141176 0 0 0 0.1 0"/>
<feBlend mode="normal" in2="BackgroundImageFix" result="effect1_dropShadow_3137_16209"/>
<feBlend mode="normal" in="SourceGraphic" in2="effect1_dropShadow_3137_16209" result="shape"/>
</filter>
<linearGradient id="paint0_linear_3137_16209" x1="28.5" y1="3" x2="28.5" y2="51" gradientUnits="userSpaceOnUse">
<stop stop-color="white"/>
<stop offset="1" stop-color="#BDBDBD"/>
</linearGradient>
<linearGradient id="paint1_linear_3137_16209" x1="28.5" y1="11.2903" x2="28.5" y2="42.7112" gradientUnits="userSpaceOnUse">
<stop offset="0.201923" stop-color="#1570EF"/>
<stop offset="0.490385" stop-color="#83B3F6" stop-opacity="0.68"/>
<stop offset="0.788462" stop-color="#1570EF"/>
</linearGradient>
<linearGradient id="paint2_linear_3137_16209" x1="28.5" y1="11.2903" x2="28.5" y2="42.7112" gradientUnits="userSpaceOnUse">
<stop offset="0.0144231" stop-color="#83B3F6"/>
<stop offset="0.201923" stop-color="#1570EF"/>
<stop offset="0.528846" stop-color="#83B3F6" stop-opacity="0.68"/>
<stop offset="0.788462" stop-color="#1570EF"/>
<stop offset="0.966346" stop-color="#83B3F6"/>
</linearGradient>
</defs>
</svg>
