<svg width="769" height="504" viewBox="0 0 769 504" fill="none" xmlns="http://www.w3.org/2000/svg">
<path d="M14 -247.5C14 -246.672 13.3284 -246 12.5 -246C11.6716 -246 11 -246.672 11 -247.5C11 -248.328 11.6716 -249 12.5 -249C13.3284 -249 14 -248.328 14 -247.5Z" fill="#D5D7DA"/>
<path d="M45 -247.5C45 -246.672 44.3284 -246 43.5 -246C42.6716 -246 42 -246.672 42 -247.5C42 -248.328 42.6716 -249 43.5 -249C44.3284 -249 45 -248.328 45 -247.5Z" fill="#D5D7DA"/>
<path d="M76 -247.5C76 -246.672 75.3284 -246 74.5 -246C73.6716 -246 73 -246.672 73 -247.5C73 -248.328 73.6716 -249 74.5 -249C75.3284 -249 76 -248.328 76 -247.5Z" fill="#D5D7DA"/>
<path d="M107 -247.5C107 -246.672 106.328 -246 105.5 -246C104.672 -246 104 -246.672 104 -247.5C104 -248.328 104.672 -249 105.5 -249C106.328 -249 107 -248.328 107 -247.5Z" fill="#D5D7DA"/>
<path d="M138 -247.5C138 -246.672 137.328 -246 136.5 -246C135.672 -246 135 -246.672 135 -247.5C135 -248.328 135.672 -249 136.5 -249C137.328 -249 138 -248.328 138 -247.5Z" fill="#D5D7DA"/>
<path d="M169 -247.5C169 -246.672 168.328 -246 167.5 -246C166.672 -246 166 -246.672 166 -247.5C166 -248.328 166.672 -249 167.5 -249C168.328 -249 169 -248.328 169 -247.5Z" fill="#D5D7DA"/>
<path d="M200 -247.5C200 -246.672 199.328 -246 198.5 -246C197.672 -246 197 -246.672 197 -247.5C197 -248.328 197.672 -249 198.5 -249C199.328 -249 200 -248.328 200 -247.5Z" fill="#D5D7DA"/>
<path d="M231 -247.5C231 -246.672 230.328 -246 229.5 -246C228.672 -246 228 -246.672 228 -247.5C228 -248.328 228.672 -249 229.5 -249C230.328 -249 231 -248.328 231 -247.5Z" fill="#D5D7DA"/>
<path d="M262 -247.5C262 -246.672 261.328 -246 260.5 -246C259.672 -246 259 -246.672 259 -247.5C259 -248.328 259.672 -249 260.5 -249C261.328 -249 262 -248.328 262 -247.5Z" fill="#D5D7DA"/>
<path d="M293 -247.5C293 -246.672 292.328 -246 291.5 -246C290.672 -246 290 -246.672 290 -247.5C290 -248.328 290.672 -249 291.5 -249C292.328 -249 293 -248.328 293 -247.5Z" fill="#D5D7DA"/>
<path d="M324 -247.5C324 -246.672 323.328 -246 322.5 -246C321.672 -246 321 -246.672 321 -247.5C321 -248.328 321.672 -249 322.5 -249C323.328 -249 324 -248.328 324 -247.5Z" fill="#D5D7DA"/>
<path d="M355 -247.5C355 -246.672 354.328 -246 353.5 -246C352.672 -246 352 -246.672 352 -247.5C352 -248.328 352.672 -249 353.5 -249C354.328 -249 355 -248.328 355 -247.5Z" fill="#D5D7DA"/>
<path d="M386 -247.5C386 -246.672 385.328 -246 384.5 -246C383.672 -246 383 -246.672 383 -247.5C383 -248.328 383.672 -249 384.5 -249C385.328 -249 386 -248.328 386 -247.5Z" fill="#D5D7DA"/>
<path d="M417 -247.5C417 -246.672 416.328 -246 415.5 -246C414.672 -246 414 -246.672 414 -247.5C414 -248.328 414.672 -249 415.5 -249C416.328 -249 417 -248.328 417 -247.5Z" fill="#D5D7DA"/>
<path d="M448 -247.5C448 -246.672 447.328 -246 446.5 -246C445.672 -246 445 -246.672 445 -247.5C445 -248.328 445.672 -249 446.5 -249C447.328 -249 448 -248.328 448 -247.5Z" fill="#D5D7DA"/>
<path d="M479 -247.5C479 -246.672 478.328 -246 477.5 -246C476.672 -246 476 -246.672 476 -247.5C476 -248.328 476.672 -249 477.5 -249C478.328 -249 479 -248.328 479 -247.5Z" fill="#D5D7DA"/>
<path d="M510 -247.5C510 -246.672 509.328 -246 508.5 -246C507.672 -246 507 -246.672 507 -247.5C507 -248.328 507.672 -249 508.5 -249C509.328 -249 510 -248.328 510 -247.5Z" fill="#D5D7DA"/>
<path d="M541 -247.5C541 -246.672 540.328 -246 539.5 -246C538.672 -246 538 -246.672 538 -247.5C538 -248.328 538.672 -249 539.5 -249C540.328 -249 541 -248.328 541 -247.5Z" fill="#D5D7DA"/>
<path d="M572 -247.5C572 -246.672 571.328 -246 570.5 -246C569.672 -246 569 -246.672 569 -247.5C569 -248.328 569.672 -249 570.5 -249C571.328 -249 572 -248.328 572 -247.5Z" fill="#D5D7DA"/>
<path d="M603 -247.5C603 -246.672 602.328 -246 601.5 -246C600.672 -246 600 -246.672 600 -247.5C600 -248.328 600.672 -249 601.5 -249C602.328 -249 603 -248.328 603 -247.5Z" fill="#D5D7DA"/>
<path d="M634 -247.5C634 -246.672 633.328 -246 632.5 -246C631.672 -246 631 -246.672 631 -247.5C631 -248.328 631.672 -249 632.5 -249C633.328 -249 634 -248.328 634 -247.5Z" fill="#D5D7DA"/>
<path d="M665 -247.5C665 -246.672 664.328 -246 663.5 -246C662.672 -246 662 -246.672 662 -247.5C662 -248.328 662.672 -249 663.5 -249C664.328 -249 665 -248.328 665 -247.5Z" fill="#D5D7DA"/>
<path d="M696 -247.5C696 -246.672 695.328 -246 694.5 -246C693.672 -246 693 -246.672 693 -247.5C693 -248.328 693.672 -249 694.5 -249C695.328 -249 696 -248.328 696 -247.5Z" fill="#D5D7DA"/>
<path d="M727 -247.5C727 -246.672 726.328 -246 725.5 -246C724.672 -246 724 -246.672 724 -247.5C724 -248.328 724.672 -249 725.5 -249C726.328 -249 727 -248.328 727 -247.5Z" fill="#D5D7DA"/>
<path d="M758 -247.5C758 -246.672 757.328 -246 756.5 -246C755.672 -246 755 -246.672 755 -247.5C755 -248.328 755.672 -249 756.5 -249C757.328 -249 758 -248.328 758 -247.5Z" fill="#D5D7DA"/>
<path d="M14 -212.5C14 -211.672 13.3284 -211 12.5 -211C11.6716 -211 11 -211.672 11 -212.5C11 -213.328 11.6716 -214 12.5 -214C13.3284 -214 14 -213.328 14 -212.5Z" fill="#D5D7DA"/>
<path d="M45 -212.5C45 -211.672 44.3284 -211 43.5 -211C42.6716 -211 42 -211.672 42 -212.5C42 -213.328 42.6716 -214 43.5 -214C44.3284 -214 45 -213.328 45 -212.5Z" fill="#D5D7DA"/>
<path d="M76 -212.5C76 -211.672 75.3284 -211 74.5 -211C73.6716 -211 73 -211.672 73 -212.5C73 -213.328 73.6716 -214 74.5 -214C75.3284 -214 76 -213.328 76 -212.5Z" fill="#D5D7DA"/>
<path d="M107 -212.5C107 -211.672 106.328 -211 105.5 -211C104.672 -211 104 -211.672 104 -212.5C104 -213.328 104.672 -214 105.5 -214C106.328 -214 107 -213.328 107 -212.5Z" fill="#D5D7DA"/>
<path d="M138 -212.5C138 -211.672 137.328 -211 136.5 -211C135.672 -211 135 -211.672 135 -212.5C135 -213.328 135.672 -214 136.5 -214C137.328 -214 138 -213.328 138 -212.5Z" fill="#D5D7DA"/>
<path d="M169 -212.5C169 -211.672 168.328 -211 167.5 -211C166.672 -211 166 -211.672 166 -212.5C166 -213.328 166.672 -214 167.5 -214C168.328 -214 169 -213.328 169 -212.5Z" fill="#D5D7DA"/>
<path d="M200 -212.5C200 -211.672 199.328 -211 198.5 -211C197.672 -211 197 -211.672 197 -212.5C197 -213.328 197.672 -214 198.5 -214C199.328 -214 200 -213.328 200 -212.5Z" fill="#D5D7DA"/>
<path d="M231 -212.5C231 -211.672 230.328 -211 229.5 -211C228.672 -211 228 -211.672 228 -212.5C228 -213.328 228.672 -214 229.5 -214C230.328 -214 231 -213.328 231 -212.5Z" fill="#D5D7DA"/>
<path d="M262 -212.5C262 -211.672 261.328 -211 260.5 -211C259.672 -211 259 -211.672 259 -212.5C259 -213.328 259.672 -214 260.5 -214C261.328 -214 262 -213.328 262 -212.5Z" fill="#D5D7DA"/>
<path d="M293 -212.5C293 -211.672 292.328 -211 291.5 -211C290.672 -211 290 -211.672 290 -212.5C290 -213.328 290.672 -214 291.5 -214C292.328 -214 293 -213.328 293 -212.5Z" fill="#D5D7DA"/>
<path d="M324 -212.5C324 -211.672 323.328 -211 322.5 -211C321.672 -211 321 -211.672 321 -212.5C321 -213.328 321.672 -214 322.5 -214C323.328 -214 324 -213.328 324 -212.5Z" fill="#D5D7DA"/>
<path d="M355 -212.5C355 -211.672 354.328 -211 353.5 -211C352.672 -211 352 -211.672 352 -212.5C352 -213.328 352.672 -214 353.5 -214C354.328 -214 355 -213.328 355 -212.5Z" fill="#D5D7DA"/>
<path d="M386 -212.5C386 -211.672 385.328 -211 384.5 -211C383.672 -211 383 -211.672 383 -212.5C383 -213.328 383.672 -214 384.5 -214C385.328 -214 386 -213.328 386 -212.5Z" fill="#D5D7DA"/>
<path d="M417 -212.5C417 -211.672 416.328 -211 415.5 -211C414.672 -211 414 -211.672 414 -212.5C414 -213.328 414.672 -214 415.5 -214C416.328 -214 417 -213.328 417 -212.5Z" fill="#D5D7DA"/>
<path d="M448 -212.5C448 -211.672 447.328 -211 446.5 -211C445.672 -211 445 -211.672 445 -212.5C445 -213.328 445.672 -214 446.5 -214C447.328 -214 448 -213.328 448 -212.5Z" fill="#D5D7DA"/>
<path d="M479 -212.5C479 -211.672 478.328 -211 477.5 -211C476.672 -211 476 -211.672 476 -212.5C476 -213.328 476.672 -214 477.5 -214C478.328 -214 479 -213.328 479 -212.5Z" fill="#D5D7DA"/>
<path d="M510 -212.5C510 -211.672 509.328 -211 508.5 -211C507.672 -211 507 -211.672 507 -212.5C507 -213.328 507.672 -214 508.5 -214C509.328 -214 510 -213.328 510 -212.5Z" fill="#D5D7DA"/>
<path d="M541 -212.5C541 -211.672 540.328 -211 539.5 -211C538.672 -211 538 -211.672 538 -212.5C538 -213.328 538.672 -214 539.5 -214C540.328 -214 541 -213.328 541 -212.5Z" fill="#D5D7DA"/>
<path d="M572 -212.5C572 -211.672 571.328 -211 570.5 -211C569.672 -211 569 -211.672 569 -212.5C569 -213.328 569.672 -214 570.5 -214C571.328 -214 572 -213.328 572 -212.5Z" fill="#D5D7DA"/>
<path d="M603 -212.5C603 -211.672 602.328 -211 601.5 -211C600.672 -211 600 -211.672 600 -212.5C600 -213.328 600.672 -214 601.5 -214C602.328 -214 603 -213.328 603 -212.5Z" fill="#D5D7DA"/>
<path d="M634 -212.5C634 -211.672 633.328 -211 632.5 -211C631.672 -211 631 -211.672 631 -212.5C631 -213.328 631.672 -214 632.5 -214C633.328 -214 634 -213.328 634 -212.5Z" fill="#D5D7DA"/>
<path d="M665 -212.5C665 -211.672 664.328 -211 663.5 -211C662.672 -211 662 -211.672 662 -212.5C662 -213.328 662.672 -214 663.5 -214C664.328 -214 665 -213.328 665 -212.5Z" fill="#D5D7DA"/>
<path d="M696 -212.5C696 -211.672 695.328 -211 694.5 -211C693.672 -211 693 -211.672 693 -212.5C693 -213.328 693.672 -214 694.5 -214C695.328 -214 696 -213.328 696 -212.5Z" fill="#D5D7DA"/>
<path d="M727 -212.5C727 -211.672 726.328 -211 725.5 -211C724.672 -211 724 -211.672 724 -212.5C724 -213.328 724.672 -214 725.5 -214C726.328 -214 727 -213.328 727 -212.5Z" fill="#D5D7DA"/>
<path d="M758 -212.5C758 -211.672 757.328 -211 756.5 -211C755.672 -211 755 -211.672 755 -212.5C755 -213.328 755.672 -214 756.5 -214C757.328 -214 758 -213.328 758 -212.5Z" fill="#D5D7DA"/>
<path d="M14 -177.5C14 -176.672 13.3284 -176 12.5 -176C11.6716 -176 11 -176.672 11 -177.5C11 -178.328 11.6716 -179 12.5 -179C13.3284 -179 14 -178.328 14 -177.5Z" fill="#D5D7DA"/>
<path d="M45 -177.5C45 -176.672 44.3284 -176 43.5 -176C42.6716 -176 42 -176.672 42 -177.5C42 -178.328 42.6716 -179 43.5 -179C44.3284 -179 45 -178.328 45 -177.5Z" fill="#D5D7DA"/>
<path d="M76 -177.5C76 -176.672 75.3284 -176 74.5 -176C73.6716 -176 73 -176.672 73 -177.5C73 -178.328 73.6716 -179 74.5 -179C75.3284 -179 76 -178.328 76 -177.5Z" fill="#D5D7DA"/>
<path d="M107 -177.5C107 -176.672 106.328 -176 105.5 -176C104.672 -176 104 -176.672 104 -177.5C104 -178.328 104.672 -179 105.5 -179C106.328 -179 107 -178.328 107 -177.5Z" fill="#D5D7DA"/>
<path d="M138 -177.5C138 -176.672 137.328 -176 136.5 -176C135.672 -176 135 -176.672 135 -177.5C135 -178.328 135.672 -179 136.5 -179C137.328 -179 138 -178.328 138 -177.5Z" fill="#D5D7DA"/>
<path d="M169 -177.5C169 -176.672 168.328 -176 167.5 -176C166.672 -176 166 -176.672 166 -177.5C166 -178.328 166.672 -179 167.5 -179C168.328 -179 169 -178.328 169 -177.5Z" fill="#D5D7DA"/>
<path d="M200 -177.5C200 -176.672 199.328 -176 198.5 -176C197.672 -176 197 -176.672 197 -177.5C197 -178.328 197.672 -179 198.5 -179C199.328 -179 200 -178.328 200 -177.5Z" fill="#D5D7DA"/>
<path d="M231 -177.5C231 -176.672 230.328 -176 229.5 -176C228.672 -176 228 -176.672 228 -177.5C228 -178.328 228.672 -179 229.5 -179C230.328 -179 231 -178.328 231 -177.5Z" fill="#D5D7DA"/>
<path d="M262 -177.5C262 -176.672 261.328 -176 260.5 -176C259.672 -176 259 -176.672 259 -177.5C259 -178.328 259.672 -179 260.5 -179C261.328 -179 262 -178.328 262 -177.5Z" fill="#D5D7DA"/>
<path d="M293 -177.5C293 -176.672 292.328 -176 291.5 -176C290.672 -176 290 -176.672 290 -177.5C290 -178.328 290.672 -179 291.5 -179C292.328 -179 293 -178.328 293 -177.5Z" fill="#D5D7DA"/>
<path d="M324 -177.5C324 -176.672 323.328 -176 322.5 -176C321.672 -176 321 -176.672 321 -177.5C321 -178.328 321.672 -179 322.5 -179C323.328 -179 324 -178.328 324 -177.5Z" fill="#D5D7DA"/>
<path d="M355 -177.5C355 -176.672 354.328 -176 353.5 -176C352.672 -176 352 -176.672 352 -177.5C352 -178.328 352.672 -179 353.5 -179C354.328 -179 355 -178.328 355 -177.5Z" fill="#D5D7DA"/>
<path d="M386 -177.5C386 -176.672 385.328 -176 384.5 -176C383.672 -176 383 -176.672 383 -177.5C383 -178.328 383.672 -179 384.5 -179C385.328 -179 386 -178.328 386 -177.5Z" fill="#D5D7DA"/>
<path d="M417 -177.5C417 -176.672 416.328 -176 415.5 -176C414.672 -176 414 -176.672 414 -177.5C414 -178.328 414.672 -179 415.5 -179C416.328 -179 417 -178.328 417 -177.5Z" fill="#D5D7DA"/>
<path d="M448 -177.5C448 -176.672 447.328 -176 446.5 -176C445.672 -176 445 -176.672 445 -177.5C445 -178.328 445.672 -179 446.5 -179C447.328 -179 448 -178.328 448 -177.5Z" fill="#D5D7DA"/>
<path d="M479 -177.5C479 -176.672 478.328 -176 477.5 -176C476.672 -176 476 -176.672 476 -177.5C476 -178.328 476.672 -179 477.5 -179C478.328 -179 479 -178.328 479 -177.5Z" fill="#D5D7DA"/>
<path d="M510 -177.5C510 -176.672 509.328 -176 508.5 -176C507.672 -176 507 -176.672 507 -177.5C507 -178.328 507.672 -179 508.5 -179C509.328 -179 510 -178.328 510 -177.5Z" fill="#D5D7DA"/>
<path d="M541 -177.5C541 -176.672 540.328 -176 539.5 -176C538.672 -176 538 -176.672 538 -177.5C538 -178.328 538.672 -179 539.5 -179C540.328 -179 541 -178.328 541 -177.5Z" fill="#D5D7DA"/>
<path d="M572 -177.5C572 -176.672 571.328 -176 570.5 -176C569.672 -176 569 -176.672 569 -177.5C569 -178.328 569.672 -179 570.5 -179C571.328 -179 572 -178.328 572 -177.5Z" fill="#D5D7DA"/>
<path d="M603 -177.5C603 -176.672 602.328 -176 601.5 -176C600.672 -176 600 -176.672 600 -177.5C600 -178.328 600.672 -179 601.5 -179C602.328 -179 603 -178.328 603 -177.5Z" fill="#D5D7DA"/>
<path d="M634 -177.5C634 -176.672 633.328 -176 632.5 -176C631.672 -176 631 -176.672 631 -177.5C631 -178.328 631.672 -179 632.5 -179C633.328 -179 634 -178.328 634 -177.5Z" fill="#D5D7DA"/>
<path d="M665 -177.5C665 -176.672 664.328 -176 663.5 -176C662.672 -176 662 -176.672 662 -177.5C662 -178.328 662.672 -179 663.5 -179C664.328 -179 665 -178.328 665 -177.5Z" fill="#D5D7DA"/>
<path d="M696 -177.5C696 -176.672 695.328 -176 694.5 -176C693.672 -176 693 -176.672 693 -177.5C693 -178.328 693.672 -179 694.5 -179C695.328 -179 696 -178.328 696 -177.5Z" fill="#D5D7DA"/>
<path d="M727 -177.5C727 -176.672 726.328 -176 725.5 -176C724.672 -176 724 -176.672 724 -177.5C724 -178.328 724.672 -179 725.5 -179C726.328 -179 727 -178.328 727 -177.5Z" fill="#D5D7DA"/>
<path d="M758 -177.5C758 -176.672 757.328 -176 756.5 -176C755.672 -176 755 -176.672 755 -177.5C755 -178.328 755.672 -179 756.5 -179C757.328 -179 758 -178.328 758 -177.5Z" fill="#D5D7DA"/>
<path d="M14 -142.5C14 -141.672 13.3284 -141 12.5 -141C11.6716 -141 11 -141.672 11 -142.5C11 -143.328 11.6716 -144 12.5 -144C13.3284 -144 14 -143.328 14 -142.5Z" fill="#D5D7DA"/>
<path d="M45 -142.5C45 -141.672 44.3284 -141 43.5 -141C42.6716 -141 42 -141.672 42 -142.5C42 -143.328 42.6716 -144 43.5 -144C44.3284 -144 45 -143.328 45 -142.5Z" fill="#D5D7DA"/>
<path d="M76 -142.5C76 -141.672 75.3284 -141 74.5 -141C73.6716 -141 73 -141.672 73 -142.5C73 -143.328 73.6716 -144 74.5 -144C75.3284 -144 76 -143.328 76 -142.5Z" fill="#D5D7DA"/>
<path d="M107 -142.5C107 -141.672 106.328 -141 105.5 -141C104.672 -141 104 -141.672 104 -142.5C104 -143.328 104.672 -144 105.5 -144C106.328 -144 107 -143.328 107 -142.5Z" fill="#D5D7DA"/>
<path d="M138 -142.5C138 -141.672 137.328 -141 136.5 -141C135.672 -141 135 -141.672 135 -142.5C135 -143.328 135.672 -144 136.5 -144C137.328 -144 138 -143.328 138 -142.5Z" fill="#D5D7DA"/>
<path d="M169 -142.5C169 -141.672 168.328 -141 167.5 -141C166.672 -141 166 -141.672 166 -142.5C166 -143.328 166.672 -144 167.5 -144C168.328 -144 169 -143.328 169 -142.5Z" fill="#D5D7DA"/>
<path d="M200 -142.5C200 -141.672 199.328 -141 198.5 -141C197.672 -141 197 -141.672 197 -142.5C197 -143.328 197.672 -144 198.5 -144C199.328 -144 200 -143.328 200 -142.5Z" fill="#D5D7DA"/>
<path d="M231 -142.5C231 -141.672 230.328 -141 229.5 -141C228.672 -141 228 -141.672 228 -142.5C228 -143.328 228.672 -144 229.5 -144C230.328 -144 231 -143.328 231 -142.5Z" fill="#D5D7DA"/>
<path d="M262 -142.5C262 -141.672 261.328 -141 260.5 -141C259.672 -141 259 -141.672 259 -142.5C259 -143.328 259.672 -144 260.5 -144C261.328 -144 262 -143.328 262 -142.5Z" fill="#D5D7DA"/>
<path d="M293 -142.5C293 -141.672 292.328 -141 291.5 -141C290.672 -141 290 -141.672 290 -142.5C290 -143.328 290.672 -144 291.5 -144C292.328 -144 293 -143.328 293 -142.5Z" fill="#D5D7DA"/>
<path d="M324 -142.5C324 -141.672 323.328 -141 322.5 -141C321.672 -141 321 -141.672 321 -142.5C321 -143.328 321.672 -144 322.5 -144C323.328 -144 324 -143.328 324 -142.5Z" fill="#D5D7DA"/>
<path d="M355 -142.5C355 -141.672 354.328 -141 353.5 -141C352.672 -141 352 -141.672 352 -142.5C352 -143.328 352.672 -144 353.5 -144C354.328 -144 355 -143.328 355 -142.5Z" fill="#D5D7DA"/>
<path d="M386 -142.5C386 -141.672 385.328 -141 384.5 -141C383.672 -141 383 -141.672 383 -142.5C383 -143.328 383.672 -144 384.5 -144C385.328 -144 386 -143.328 386 -142.5Z" fill="#D5D7DA"/>
<path d="M417 -142.5C417 -141.672 416.328 -141 415.5 -141C414.672 -141 414 -141.672 414 -142.5C414 -143.328 414.672 -144 415.5 -144C416.328 -144 417 -143.328 417 -142.5Z" fill="#D5D7DA"/>
<path d="M448 -142.5C448 -141.672 447.328 -141 446.5 -141C445.672 -141 445 -141.672 445 -142.5C445 -143.328 445.672 -144 446.5 -144C447.328 -144 448 -143.328 448 -142.5Z" fill="#D5D7DA"/>
<path d="M479 -142.5C479 -141.672 478.328 -141 477.5 -141C476.672 -141 476 -141.672 476 -142.5C476 -143.328 476.672 -144 477.5 -144C478.328 -144 479 -143.328 479 -142.5Z" fill="#D5D7DA"/>
<path d="M510 -142.5C510 -141.672 509.328 -141 508.5 -141C507.672 -141 507 -141.672 507 -142.5C507 -143.328 507.672 -144 508.5 -144C509.328 -144 510 -143.328 510 -142.5Z" fill="#D5D7DA"/>
<path d="M541 -142.5C541 -141.672 540.328 -141 539.5 -141C538.672 -141 538 -141.672 538 -142.5C538 -143.328 538.672 -144 539.5 -144C540.328 -144 541 -143.328 541 -142.5Z" fill="#D5D7DA"/>
<path d="M572 -142.5C572 -141.672 571.328 -141 570.5 -141C569.672 -141 569 -141.672 569 -142.5C569 -143.328 569.672 -144 570.5 -144C571.328 -144 572 -143.328 572 -142.5Z" fill="#D5D7DA"/>
<path d="M603 -142.5C603 -141.672 602.328 -141 601.5 -141C600.672 -141 600 -141.672 600 -142.5C600 -143.328 600.672 -144 601.5 -144C602.328 -144 603 -143.328 603 -142.5Z" fill="#D5D7DA"/>
<path d="M634 -142.5C634 -141.672 633.328 -141 632.5 -141C631.672 -141 631 -141.672 631 -142.5C631 -143.328 631.672 -144 632.5 -144C633.328 -144 634 -143.328 634 -142.5Z" fill="#D5D7DA"/>
<path d="M665 -142.5C665 -141.672 664.328 -141 663.5 -141C662.672 -141 662 -141.672 662 -142.5C662 -143.328 662.672 -144 663.5 -144C664.328 -144 665 -143.328 665 -142.5Z" fill="#D5D7DA"/>
<path d="M696 -142.5C696 -141.672 695.328 -141 694.5 -141C693.672 -141 693 -141.672 693 -142.5C693 -143.328 693.672 -144 694.5 -144C695.328 -144 696 -143.328 696 -142.5Z" fill="#D5D7DA"/>
<path d="M727 -142.5C727 -141.672 726.328 -141 725.5 -141C724.672 -141 724 -141.672 724 -142.5C724 -143.328 724.672 -144 725.5 -144C726.328 -144 727 -143.328 727 -142.5Z" fill="#D5D7DA"/>
<path d="M758 -142.5C758 -141.672 757.328 -141 756.5 -141C755.672 -141 755 -141.672 755 -142.5C755 -143.328 755.672 -144 756.5 -144C757.328 -144 758 -143.328 758 -142.5Z" fill="#D5D7DA"/>
<path d="M14 -107.5C14 -106.672 13.3284 -106 12.5 -106C11.6716 -106 11 -106.672 11 -107.5C11 -108.328 11.6716 -109 12.5 -109C13.3284 -109 14 -108.328 14 -107.5Z" fill="#D5D7DA"/>
<path d="M45 -107.5C45 -106.672 44.3284 -106 43.5 -106C42.6716 -106 42 -106.672 42 -107.5C42 -108.328 42.6716 -109 43.5 -109C44.3284 -109 45 -108.328 45 -107.5Z" fill="#D5D7DA"/>
<path d="M76 -107.5C76 -106.672 75.3284 -106 74.5 -106C73.6716 -106 73 -106.672 73 -107.5C73 -108.328 73.6716 -109 74.5 -109C75.3284 -109 76 -108.328 76 -107.5Z" fill="#D5D7DA"/>
<path d="M107 -107.5C107 -106.672 106.328 -106 105.5 -106C104.672 -106 104 -106.672 104 -107.5C104 -108.328 104.672 -109 105.5 -109C106.328 -109 107 -108.328 107 -107.5Z" fill="#D5D7DA"/>
<path d="M138 -107.5C138 -106.672 137.328 -106 136.5 -106C135.672 -106 135 -106.672 135 -107.5C135 -108.328 135.672 -109 136.5 -109C137.328 -109 138 -108.328 138 -107.5Z" fill="#D5D7DA"/>
<path d="M169 -107.5C169 -106.672 168.328 -106 167.5 -106C166.672 -106 166 -106.672 166 -107.5C166 -108.328 166.672 -109 167.5 -109C168.328 -109 169 -108.328 169 -107.5Z" fill="#D5D7DA"/>
<path d="M200 -107.5C200 -106.672 199.328 -106 198.5 -106C197.672 -106 197 -106.672 197 -107.5C197 -108.328 197.672 -109 198.5 -109C199.328 -109 200 -108.328 200 -107.5Z" fill="#D5D7DA"/>
<path d="M231 -107.5C231 -106.672 230.328 -106 229.5 -106C228.672 -106 228 -106.672 228 -107.5C228 -108.328 228.672 -109 229.5 -109C230.328 -109 231 -108.328 231 -107.5Z" fill="#D5D7DA"/>
<path d="M262 -107.5C262 -106.672 261.328 -106 260.5 -106C259.672 -106 259 -106.672 259 -107.5C259 -108.328 259.672 -109 260.5 -109C261.328 -109 262 -108.328 262 -107.5Z" fill="#D5D7DA"/>
<path d="M293 -107.5C293 -106.672 292.328 -106 291.5 -106C290.672 -106 290 -106.672 290 -107.5C290 -108.328 290.672 -109 291.5 -109C292.328 -109 293 -108.328 293 -107.5Z" fill="#D5D7DA"/>
<path d="M324 -107.5C324 -106.672 323.328 -106 322.5 -106C321.672 -106 321 -106.672 321 -107.5C321 -108.328 321.672 -109 322.5 -109C323.328 -109 324 -108.328 324 -107.5Z" fill="#D5D7DA"/>
<path d="M355 -107.5C355 -106.672 354.328 -106 353.5 -106C352.672 -106 352 -106.672 352 -107.5C352 -108.328 352.672 -109 353.5 -109C354.328 -109 355 -108.328 355 -107.5Z" fill="#D5D7DA"/>
<path d="M386 -107.5C386 -106.672 385.328 -106 384.5 -106C383.672 -106 383 -106.672 383 -107.5C383 -108.328 383.672 -109 384.5 -109C385.328 -109 386 -108.328 386 -107.5Z" fill="#D5D7DA"/>
<path d="M417 -107.5C417 -106.672 416.328 -106 415.5 -106C414.672 -106 414 -106.672 414 -107.5C414 -108.328 414.672 -109 415.5 -109C416.328 -109 417 -108.328 417 -107.5Z" fill="#D5D7DA"/>
<path d="M448 -107.5C448 -106.672 447.328 -106 446.5 -106C445.672 -106 445 -106.672 445 -107.5C445 -108.328 445.672 -109 446.5 -109C447.328 -109 448 -108.328 448 -107.5Z" fill="#D5D7DA"/>
<path d="M479 -107.5C479 -106.672 478.328 -106 477.5 -106C476.672 -106 476 -106.672 476 -107.5C476 -108.328 476.672 -109 477.5 -109C478.328 -109 479 -108.328 479 -107.5Z" fill="#D5D7DA"/>
<path d="M510 -107.5C510 -106.672 509.328 -106 508.5 -106C507.672 -106 507 -106.672 507 -107.5C507 -108.328 507.672 -109 508.5 -109C509.328 -109 510 -108.328 510 -107.5Z" fill="#D5D7DA"/>
<path d="M541 -107.5C541 -106.672 540.328 -106 539.5 -106C538.672 -106 538 -106.672 538 -107.5C538 -108.328 538.672 -109 539.5 -109C540.328 -109 541 -108.328 541 -107.5Z" fill="#D5D7DA"/>
<path d="M572 -107.5C572 -106.672 571.328 -106 570.5 -106C569.672 -106 569 -106.672 569 -107.5C569 -108.328 569.672 -109 570.5 -109C571.328 -109 572 -108.328 572 -107.5Z" fill="#D5D7DA"/>
<path d="M603 -107.5C603 -106.672 602.328 -106 601.5 -106C600.672 -106 600 -106.672 600 -107.5C600 -108.328 600.672 -109 601.5 -109C602.328 -109 603 -108.328 603 -107.5Z" fill="#D5D7DA"/>
<path d="M634 -107.5C634 -106.672 633.328 -106 632.5 -106C631.672 -106 631 -106.672 631 -107.5C631 -108.328 631.672 -109 632.5 -109C633.328 -109 634 -108.328 634 -107.5Z" fill="#D5D7DA"/>
<path d="M665 -107.5C665 -106.672 664.328 -106 663.5 -106C662.672 -106 662 -106.672 662 -107.5C662 -108.328 662.672 -109 663.5 -109C664.328 -109 665 -108.328 665 -107.5Z" fill="#D5D7DA"/>
<path d="M696 -107.5C696 -106.672 695.328 -106 694.5 -106C693.672 -106 693 -106.672 693 -107.5C693 -108.328 693.672 -109 694.5 -109C695.328 -109 696 -108.328 696 -107.5Z" fill="#D5D7DA"/>
<path d="M727 -107.5C727 -106.672 726.328 -106 725.5 -106C724.672 -106 724 -106.672 724 -107.5C724 -108.328 724.672 -109 725.5 -109C726.328 -109 727 -108.328 727 -107.5Z" fill="#D5D7DA"/>
<path d="M758 -107.5C758 -106.672 757.328 -106 756.5 -106C755.672 -106 755 -106.672 755 -107.5C755 -108.328 755.672 -109 756.5 -109C757.328 -109 758 -108.328 758 -107.5Z" fill="#D5D7DA"/>
<path d="M14 -72.5C14 -71.6716 13.3284 -71 12.5 -71C11.6716 -71 11 -71.6716 11 -72.5C11 -73.3284 11.6716 -74 12.5 -74C13.3284 -74 14 -73.3284 14 -72.5Z" fill="#D5D7DA"/>
<path d="M45 -72.5C45 -71.6716 44.3284 -71 43.5 -71C42.6716 -71 42 -71.6716 42 -72.5C42 -73.3284 42.6716 -74 43.5 -74C44.3284 -74 45 -73.3284 45 -72.5Z" fill="#D5D7DA"/>
<path d="M76 -72.5C76 -71.6716 75.3284 -71 74.5 -71C73.6716 -71 73 -71.6716 73 -72.5C73 -73.3284 73.6716 -74 74.5 -74C75.3284 -74 76 -73.3284 76 -72.5Z" fill="#D5D7DA"/>
<path d="M107 -72.5C107 -71.6716 106.328 -71 105.5 -71C104.672 -71 104 -71.6716 104 -72.5C104 -73.3284 104.672 -74 105.5 -74C106.328 -74 107 -73.3284 107 -72.5Z" fill="#D5D7DA"/>
<path d="M138 -72.5C138 -71.6716 137.328 -71 136.5 -71C135.672 -71 135 -71.6716 135 -72.5C135 -73.3284 135.672 -74 136.5 -74C137.328 -74 138 -73.3284 138 -72.5Z" fill="#D5D7DA"/>
<path d="M169 -72.5C169 -71.6716 168.328 -71 167.5 -71C166.672 -71 166 -71.6716 166 -72.5C166 -73.3284 166.672 -74 167.5 -74C168.328 -74 169 -73.3284 169 -72.5Z" fill="#D5D7DA"/>
<path d="M200 -72.5C200 -71.6716 199.328 -71 198.5 -71C197.672 -71 197 -71.6716 197 -72.5C197 -73.3284 197.672 -74 198.5 -74C199.328 -74 200 -73.3284 200 -72.5Z" fill="#D5D7DA"/>
<path d="M231 -72.5C231 -71.6716 230.328 -71 229.5 -71C228.672 -71 228 -71.6716 228 -72.5C228 -73.3284 228.672 -74 229.5 -74C230.328 -74 231 -73.3284 231 -72.5Z" fill="#D5D7DA"/>
<path d="M262 -72.5C262 -71.6716 261.328 -71 260.5 -71C259.672 -71 259 -71.6716 259 -72.5C259 -73.3284 259.672 -74 260.5 -74C261.328 -74 262 -73.3284 262 -72.5Z" fill="#D5D7DA"/>
<path d="M293 -72.5C293 -71.6716 292.328 -71 291.5 -71C290.672 -71 290 -71.6716 290 -72.5C290 -73.3284 290.672 -74 291.5 -74C292.328 -74 293 -73.3284 293 -72.5Z" fill="#D5D7DA"/>
<path d="M324 -72.5C324 -71.6716 323.328 -71 322.5 -71C321.672 -71 321 -71.6716 321 -72.5C321 -73.3284 321.672 -74 322.5 -74C323.328 -74 324 -73.3284 324 -72.5Z" fill="#D5D7DA"/>
<path d="M355 -72.5C355 -71.6716 354.328 -71 353.5 -71C352.672 -71 352 -71.6716 352 -72.5C352 -73.3284 352.672 -74 353.5 -74C354.328 -74 355 -73.3284 355 -72.5Z" fill="#D5D7DA"/>
<path d="M386 -72.5C386 -71.6716 385.328 -71 384.5 -71C383.672 -71 383 -71.6716 383 -72.5C383 -73.3284 383.672 -74 384.5 -74C385.328 -74 386 -73.3284 386 -72.5Z" fill="#D5D7DA"/>
<path d="M417 -72.5C417 -71.6716 416.328 -71 415.5 -71C414.672 -71 414 -71.6716 414 -72.5C414 -73.3284 414.672 -74 415.5 -74C416.328 -74 417 -73.3284 417 -72.5Z" fill="#D5D7DA"/>
<path d="M448 -72.5C448 -71.6716 447.328 -71 446.5 -71C445.672 -71 445 -71.6716 445 -72.5C445 -73.3284 445.672 -74 446.5 -74C447.328 -74 448 -73.3284 448 -72.5Z" fill="#D5D7DA"/>
<path d="M479 -72.5C479 -71.6716 478.328 -71 477.5 -71C476.672 -71 476 -71.6716 476 -72.5C476 -73.3284 476.672 -74 477.5 -74C478.328 -74 479 -73.3284 479 -72.5Z" fill="#D5D7DA"/>
<path d="M510 -72.5C510 -71.6716 509.328 -71 508.5 -71C507.672 -71 507 -71.6716 507 -72.5C507 -73.3284 507.672 -74 508.5 -74C509.328 -74 510 -73.3284 510 -72.5Z" fill="#D5D7DA"/>
<path d="M541 -72.5C541 -71.6716 540.328 -71 539.5 -71C538.672 -71 538 -71.6716 538 -72.5C538 -73.3284 538.672 -74 539.5 -74C540.328 -74 541 -73.3284 541 -72.5Z" fill="#D5D7DA"/>
<path d="M572 -72.5C572 -71.6716 571.328 -71 570.5 -71C569.672 -71 569 -71.6716 569 -72.5C569 -73.3284 569.672 -74 570.5 -74C571.328 -74 572 -73.3284 572 -72.5Z" fill="#D5D7DA"/>
<path d="M603 -72.5C603 -71.6716 602.328 -71 601.5 -71C600.672 -71 600 -71.6716 600 -72.5C600 -73.3284 600.672 -74 601.5 -74C602.328 -74 603 -73.3284 603 -72.5Z" fill="#D5D7DA"/>
<path d="M634 -72.5C634 -71.6716 633.328 -71 632.5 -71C631.672 -71 631 -71.6716 631 -72.5C631 -73.3284 631.672 -74 632.5 -74C633.328 -74 634 -73.3284 634 -72.5Z" fill="#D5D7DA"/>
<path d="M665 -72.5C665 -71.6716 664.328 -71 663.5 -71C662.672 -71 662 -71.6716 662 -72.5C662 -73.3284 662.672 -74 663.5 -74C664.328 -74 665 -73.3284 665 -72.5Z" fill="#D5D7DA"/>
<path d="M696 -72.5C696 -71.6716 695.328 -71 694.5 -71C693.672 -71 693 -71.6716 693 -72.5C693 -73.3284 693.672 -74 694.5 -74C695.328 -74 696 -73.3284 696 -72.5Z" fill="#D5D7DA"/>
<path d="M727 -72.5C727 -71.6716 726.328 -71 725.5 -71C724.672 -71 724 -71.6716 724 -72.5C724 -73.3284 724.672 -74 725.5 -74C726.328 -74 727 -73.3284 727 -72.5Z" fill="#D5D7DA"/>
<path d="M758 -72.5C758 -71.6716 757.328 -71 756.5 -71C755.672 -71 755 -71.6716 755 -72.5C755 -73.3284 755.672 -74 756.5 -74C757.328 -74 758 -73.3284 758 -72.5Z" fill="#D5D7DA"/>
<path d="M14 -37.5C14 -36.6716 13.3284 -36 12.5 -36C11.6716 -36 11 -36.6716 11 -37.5C11 -38.3284 11.6716 -39 12.5 -39C13.3284 -39 14 -38.3284 14 -37.5Z" fill="#D5D7DA"/>
<path d="M45 -37.5C45 -36.6716 44.3284 -36 43.5 -36C42.6716 -36 42 -36.6716 42 -37.5C42 -38.3284 42.6716 -39 43.5 -39C44.3284 -39 45 -38.3284 45 -37.5Z" fill="#D5D7DA"/>
<path d="M76 -37.5C76 -36.6716 75.3284 -36 74.5 -36C73.6716 -36 73 -36.6716 73 -37.5C73 -38.3284 73.6716 -39 74.5 -39C75.3284 -39 76 -38.3284 76 -37.5Z" fill="#D5D7DA"/>
<path d="M107 -37.5C107 -36.6716 106.328 -36 105.5 -36C104.672 -36 104 -36.6716 104 -37.5C104 -38.3284 104.672 -39 105.5 -39C106.328 -39 107 -38.3284 107 -37.5Z" fill="#D5D7DA"/>
<path d="M138 -37.5C138 -36.6716 137.328 -36 136.5 -36C135.672 -36 135 -36.6716 135 -37.5C135 -38.3284 135.672 -39 136.5 -39C137.328 -39 138 -38.3284 138 -37.5Z" fill="#D5D7DA"/>
<path d="M169 -37.5C169 -36.6716 168.328 -36 167.5 -36C166.672 -36 166 -36.6716 166 -37.5C166 -38.3284 166.672 -39 167.5 -39C168.328 -39 169 -38.3284 169 -37.5Z" fill="#D5D7DA"/>
<path d="M200 -37.5C200 -36.6716 199.328 -36 198.5 -36C197.672 -36 197 -36.6716 197 -37.5C197 -38.3284 197.672 -39 198.5 -39C199.328 -39 200 -38.3284 200 -37.5Z" fill="#D5D7DA"/>
<path d="M231 -37.5C231 -36.6716 230.328 -36 229.5 -36C228.672 -36 228 -36.6716 228 -37.5C228 -38.3284 228.672 -39 229.5 -39C230.328 -39 231 -38.3284 231 -37.5Z" fill="#D5D7DA"/>
<path d="M262 -37.5C262 -36.6716 261.328 -36 260.5 -36C259.672 -36 259 -36.6716 259 -37.5C259 -38.3284 259.672 -39 260.5 -39C261.328 -39 262 -38.3284 262 -37.5Z" fill="#D5D7DA"/>
<path d="M293 -37.5C293 -36.6716 292.328 -36 291.5 -36C290.672 -36 290 -36.6716 290 -37.5C290 -38.3284 290.672 -39 291.5 -39C292.328 -39 293 -38.3284 293 -37.5Z" fill="#D5D7DA"/>
<path d="M324 -37.5C324 -36.6716 323.328 -36 322.5 -36C321.672 -36 321 -36.6716 321 -37.5C321 -38.3284 321.672 -39 322.5 -39C323.328 -39 324 -38.3284 324 -37.5Z" fill="#D5D7DA"/>
<path d="M355 -37.5C355 -36.6716 354.328 -36 353.5 -36C352.672 -36 352 -36.6716 352 -37.5C352 -38.3284 352.672 -39 353.5 -39C354.328 -39 355 -38.3284 355 -37.5Z" fill="#D5D7DA"/>
<path d="M386 -37.5C386 -36.6716 385.328 -36 384.5 -36C383.672 -36 383 -36.6716 383 -37.5C383 -38.3284 383.672 -39 384.5 -39C385.328 -39 386 -38.3284 386 -37.5Z" fill="#D5D7DA"/>
<path d="M417 -37.5C417 -36.6716 416.328 -36 415.5 -36C414.672 -36 414 -36.6716 414 -37.5C414 -38.3284 414.672 -39 415.5 -39C416.328 -39 417 -38.3284 417 -37.5Z" fill="#D5D7DA"/>
<path d="M448 -37.5C448 -36.6716 447.328 -36 446.5 -36C445.672 -36 445 -36.6716 445 -37.5C445 -38.3284 445.672 -39 446.5 -39C447.328 -39 448 -38.3284 448 -37.5Z" fill="#D5D7DA"/>
<path d="M479 -37.5C479 -36.6716 478.328 -36 477.5 -36C476.672 -36 476 -36.6716 476 -37.5C476 -38.3284 476.672 -39 477.5 -39C478.328 -39 479 -38.3284 479 -37.5Z" fill="#D5D7DA"/>
<path d="M510 -37.5C510 -36.6716 509.328 -36 508.5 -36C507.672 -36 507 -36.6716 507 -37.5C507 -38.3284 507.672 -39 508.5 -39C509.328 -39 510 -38.3284 510 -37.5Z" fill="#D5D7DA"/>
<path d="M541 -37.5C541 -36.6716 540.328 -36 539.5 -36C538.672 -36 538 -36.6716 538 -37.5C538 -38.3284 538.672 -39 539.5 -39C540.328 -39 541 -38.3284 541 -37.5Z" fill="#D5D7DA"/>
<path d="M572 -37.5C572 -36.6716 571.328 -36 570.5 -36C569.672 -36 569 -36.6716 569 -37.5C569 -38.3284 569.672 -39 570.5 -39C571.328 -39 572 -38.3284 572 -37.5Z" fill="#D5D7DA"/>
<path d="M603 -37.5C603 -36.6716 602.328 -36 601.5 -36C600.672 -36 600 -36.6716 600 -37.5C600 -38.3284 600.672 -39 601.5 -39C602.328 -39 603 -38.3284 603 -37.5Z" fill="#D5D7DA"/>
<path d="M634 -37.5C634 -36.6716 633.328 -36 632.5 -36C631.672 -36 631 -36.6716 631 -37.5C631 -38.3284 631.672 -39 632.5 -39C633.328 -39 634 -38.3284 634 -37.5Z" fill="#D5D7DA"/>
<path d="M665 -37.5C665 -36.6716 664.328 -36 663.5 -36C662.672 -36 662 -36.6716 662 -37.5C662 -38.3284 662.672 -39 663.5 -39C664.328 -39 665 -38.3284 665 -37.5Z" fill="#D5D7DA"/>
<path d="M696 -37.5C696 -36.6716 695.328 -36 694.5 -36C693.672 -36 693 -36.6716 693 -37.5C693 -38.3284 693.672 -39 694.5 -39C695.328 -39 696 -38.3284 696 -37.5Z" fill="#D5D7DA"/>
<path d="M727 -37.5C727 -36.6716 726.328 -36 725.5 -36C724.672 -36 724 -36.6716 724 -37.5C724 -38.3284 724.672 -39 725.5 -39C726.328 -39 727 -38.3284 727 -37.5Z" fill="#D5D7DA"/>
<path d="M758 -37.5C758 -36.6716 757.328 -36 756.5 -36C755.672 -36 755 -36.6716 755 -37.5C755 -38.3284 755.672 -39 756.5 -39C757.328 -39 758 -38.3284 758 -37.5Z" fill="#D5D7DA"/>
<path d="M14 -2.5C14 -1.67157 13.3284 -1 12.5 -1C11.6716 -1 11 -1.67157 11 -2.5C11 -3.32843 11.6716 -4 12.5 -4C13.3284 -4 14 -3.32843 14 -2.5Z" fill="#D5D7DA"/>
<path d="M45 -2.5C45 -1.67157 44.3284 -1 43.5 -1C42.6716 -1 42 -1.67157 42 -2.5C42 -3.32843 42.6716 -4 43.5 -4C44.3284 -4 45 -3.32843 45 -2.5Z" fill="#D5D7DA"/>
<path d="M76 -2.5C76 -1.67157 75.3284 -1 74.5 -1C73.6716 -1 73 -1.67157 73 -2.5C73 -3.32843 73.6716 -4 74.5 -4C75.3284 -4 76 -3.32843 76 -2.5Z" fill="#D5D7DA"/>
<path d="M107 -2.5C107 -1.67157 106.328 -1 105.5 -1C104.672 -1 104 -1.67157 104 -2.5C104 -3.32843 104.672 -4 105.5 -4C106.328 -4 107 -3.32843 107 -2.5Z" fill="#D5D7DA"/>
<path d="M138 -2.5C138 -1.67157 137.328 -1 136.5 -1C135.672 -1 135 -1.67157 135 -2.5C135 -3.32843 135.672 -4 136.5 -4C137.328 -4 138 -3.32843 138 -2.5Z" fill="#D5D7DA"/>
<path d="M169 -2.5C169 -1.67157 168.328 -1 167.5 -1C166.672 -1 166 -1.67157 166 -2.5C166 -3.32843 166.672 -4 167.5 -4C168.328 -4 169 -3.32843 169 -2.5Z" fill="#D5D7DA"/>
<path d="M200 -2.5C200 -1.67157 199.328 -1 198.5 -1C197.672 -1 197 -1.67157 197 -2.5C197 -3.32843 197.672 -4 198.5 -4C199.328 -4 200 -3.32843 200 -2.5Z" fill="#D5D7DA"/>
<path d="M231 -2.5C231 -1.67157 230.328 -1 229.5 -1C228.672 -1 228 -1.67157 228 -2.5C228 -3.32843 228.672 -4 229.5 -4C230.328 -4 231 -3.32843 231 -2.5Z" fill="#D5D7DA"/>
<path d="M262 -2.5C262 -1.67157 261.328 -1 260.5 -1C259.672 -1 259 -1.67157 259 -2.5C259 -3.32843 259.672 -4 260.5 -4C261.328 -4 262 -3.32843 262 -2.5Z" fill="#D5D7DA"/>
<path d="M293 -2.5C293 -1.67157 292.328 -1 291.5 -1C290.672 -1 290 -1.67157 290 -2.5C290 -3.32843 290.672 -4 291.5 -4C292.328 -4 293 -3.32843 293 -2.5Z" fill="#D5D7DA"/>
<path d="M324 -2.5C324 -1.67157 323.328 -1 322.5 -1C321.672 -1 321 -1.67157 321 -2.5C321 -3.32843 321.672 -4 322.5 -4C323.328 -4 324 -3.32843 324 -2.5Z" fill="#D5D7DA"/>
<path d="M355 -2.5C355 -1.67157 354.328 -1 353.5 -1C352.672 -1 352 -1.67157 352 -2.5C352 -3.32843 352.672 -4 353.5 -4C354.328 -4 355 -3.32843 355 -2.5Z" fill="#D5D7DA"/>
<path d="M386 -2.5C386 -1.67157 385.328 -1 384.5 -1C383.672 -1 383 -1.67157 383 -2.5C383 -3.32843 383.672 -4 384.5 -4C385.328 -4 386 -3.32843 386 -2.5Z" fill="#D5D7DA"/>
<path d="M417 -2.5C417 -1.67157 416.328 -1 415.5 -1C414.672 -1 414 -1.67157 414 -2.5C414 -3.32843 414.672 -4 415.5 -4C416.328 -4 417 -3.32843 417 -2.5Z" fill="#D5D7DA"/>
<path d="M448 -2.5C448 -1.67157 447.328 -1 446.5 -1C445.672 -1 445 -1.67157 445 -2.5C445 -3.32843 445.672 -4 446.5 -4C447.328 -4 448 -3.32843 448 -2.5Z" fill="#D5D7DA"/>
<path d="M479 -2.5C479 -1.67157 478.328 -1 477.5 -1C476.672 -1 476 -1.67157 476 -2.5C476 -3.32843 476.672 -4 477.5 -4C478.328 -4 479 -3.32843 479 -2.5Z" fill="#D5D7DA"/>
<path d="M510 -2.5C510 -1.67157 509.328 -1 508.5 -1C507.672 -1 507 -1.67157 507 -2.5C507 -3.32843 507.672 -4 508.5 -4C509.328 -4 510 -3.32843 510 -2.5Z" fill="#D5D7DA"/>
<path d="M541 -2.5C541 -1.67157 540.328 -1 539.5 -1C538.672 -1 538 -1.67157 538 -2.5C538 -3.32843 538.672 -4 539.5 -4C540.328 -4 541 -3.32843 541 -2.5Z" fill="#D5D7DA"/>
<path d="M572 -2.5C572 -1.67157 571.328 -1 570.5 -1C569.672 -1 569 -1.67157 569 -2.5C569 -3.32843 569.672 -4 570.5 -4C571.328 -4 572 -3.32843 572 -2.5Z" fill="#D5D7DA"/>
<path d="M603 -2.5C603 -1.67157 602.328 -1 601.5 -1C600.672 -1 600 -1.67157 600 -2.5C600 -3.32843 600.672 -4 601.5 -4C602.328 -4 603 -3.32843 603 -2.5Z" fill="#D5D7DA"/>
<path d="M634 -2.5C634 -1.67157 633.328 -1 632.5 -1C631.672 -1 631 -1.67157 631 -2.5C631 -3.32843 631.672 -4 632.5 -4C633.328 -4 634 -3.32843 634 -2.5Z" fill="#D5D7DA"/>
<path d="M665 -2.5C665 -1.67157 664.328 -1 663.5 -1C662.672 -1 662 -1.67157 662 -2.5C662 -3.32843 662.672 -4 663.5 -4C664.328 -4 665 -3.32843 665 -2.5Z" fill="#D5D7DA"/>
<path d="M696 -2.5C696 -1.67157 695.328 -1 694.5 -1C693.672 -1 693 -1.67157 693 -2.5C693 -3.32843 693.672 -4 694.5 -4C695.328 -4 696 -3.32843 696 -2.5Z" fill="#D5D7DA"/>
<path d="M727 -2.5C727 -1.67157 726.328 -1 725.5 -1C724.672 -1 724 -1.67157 724 -2.5C724 -3.32843 724.672 -4 725.5 -4C726.328 -4 727 -3.32843 727 -2.5Z" fill="#D5D7DA"/>
<path d="M758 -2.5C758 -1.67157 757.328 -1 756.5 -1C755.672 -1 755 -1.67157 755 -2.5C755 -3.32843 755.672 -4 756.5 -4C757.328 -4 758 -3.32843 758 -2.5Z" fill="#D5D7DA"/>
<path d="M14 32.5C14 33.3284 13.3284 34 12.5 34C11.6716 34 11 33.3284 11 32.5C11 31.6716 11.6716 31 12.5 31C13.3284 31 14 31.6716 14 32.5Z" fill="#D5D7DA"/>
<path d="M45 32.5C45 33.3284 44.3284 34 43.5 34C42.6716 34 42 33.3284 42 32.5C42 31.6716 42.6716 31 43.5 31C44.3284 31 45 31.6716 45 32.5Z" fill="#D5D7DA"/>
<path d="M76 32.5C76 33.3284 75.3284 34 74.5 34C73.6716 34 73 33.3284 73 32.5C73 31.6716 73.6716 31 74.5 31C75.3284 31 76 31.6716 76 32.5Z" fill="#D5D7DA"/>
<path d="M107 32.5C107 33.3284 106.328 34 105.5 34C104.672 34 104 33.3284 104 32.5C104 31.6716 104.672 31 105.5 31C106.328 31 107 31.6716 107 32.5Z" fill="#D5D7DA"/>
<path d="M138 32.5C138 33.3284 137.328 34 136.5 34C135.672 34 135 33.3284 135 32.5C135 31.6716 135.672 31 136.5 31C137.328 31 138 31.6716 138 32.5Z" fill="#D5D7DA"/>
<path d="M169 32.5C169 33.3284 168.328 34 167.5 34C166.672 34 166 33.3284 166 32.5C166 31.6716 166.672 31 167.5 31C168.328 31 169 31.6716 169 32.5Z" fill="#D5D7DA"/>
<path d="M200 32.5C200 33.3284 199.328 34 198.5 34C197.672 34 197 33.3284 197 32.5C197 31.6716 197.672 31 198.5 31C199.328 31 200 31.6716 200 32.5Z" fill="#D5D7DA"/>
<path d="M231 32.5C231 33.3284 230.328 34 229.5 34C228.672 34 228 33.3284 228 32.5C228 31.6716 228.672 31 229.5 31C230.328 31 231 31.6716 231 32.5Z" fill="#D5D7DA"/>
<path d="M262 32.5C262 33.3284 261.328 34 260.5 34C259.672 34 259 33.3284 259 32.5C259 31.6716 259.672 31 260.5 31C261.328 31 262 31.6716 262 32.5Z" fill="#D5D7DA"/>
<path d="M293 32.5C293 33.3284 292.328 34 291.5 34C290.672 34 290 33.3284 290 32.5C290 31.6716 290.672 31 291.5 31C292.328 31 293 31.6716 293 32.5Z" fill="#D5D7DA"/>
<path d="M324 32.5C324 33.3284 323.328 34 322.5 34C321.672 34 321 33.3284 321 32.5C321 31.6716 321.672 31 322.5 31C323.328 31 324 31.6716 324 32.5Z" fill="#D5D7DA"/>
<path d="M355 32.5C355 33.3284 354.328 34 353.5 34C352.672 34 352 33.3284 352 32.5C352 31.6716 352.672 31 353.5 31C354.328 31 355 31.6716 355 32.5Z" fill="#D5D7DA"/>
<path d="M386 32.5C386 33.3284 385.328 34 384.5 34C383.672 34 383 33.3284 383 32.5C383 31.6716 383.672 31 384.5 31C385.328 31 386 31.6716 386 32.5Z" fill="#D5D7DA"/>
<path d="M417 32.5C417 33.3284 416.328 34 415.5 34C414.672 34 414 33.3284 414 32.5C414 31.6716 414.672 31 415.5 31C416.328 31 417 31.6716 417 32.5Z" fill="#D5D7DA"/>
<path d="M448 32.5C448 33.3284 447.328 34 446.5 34C445.672 34 445 33.3284 445 32.5C445 31.6716 445.672 31 446.5 31C447.328 31 448 31.6716 448 32.5Z" fill="#D5D7DA"/>
<path d="M479 32.5C479 33.3284 478.328 34 477.5 34C476.672 34 476 33.3284 476 32.5C476 31.6716 476.672 31 477.5 31C478.328 31 479 31.6716 479 32.5Z" fill="#D5D7DA"/>
<path d="M510 32.5C510 33.3284 509.328 34 508.5 34C507.672 34 507 33.3284 507 32.5C507 31.6716 507.672 31 508.5 31C509.328 31 510 31.6716 510 32.5Z" fill="#D5D7DA"/>
<path d="M541 32.5C541 33.3284 540.328 34 539.5 34C538.672 34 538 33.3284 538 32.5C538 31.6716 538.672 31 539.5 31C540.328 31 541 31.6716 541 32.5Z" fill="#D5D7DA"/>
<path d="M572 32.5C572 33.3284 571.328 34 570.5 34C569.672 34 569 33.3284 569 32.5C569 31.6716 569.672 31 570.5 31C571.328 31 572 31.6716 572 32.5Z" fill="#D5D7DA"/>
<path d="M603 32.5C603 33.3284 602.328 34 601.5 34C600.672 34 600 33.3284 600 32.5C600 31.6716 600.672 31 601.5 31C602.328 31 603 31.6716 603 32.5Z" fill="#D5D7DA"/>
<path d="M634 32.5C634 33.3284 633.328 34 632.5 34C631.672 34 631 33.3284 631 32.5C631 31.6716 631.672 31 632.5 31C633.328 31 634 31.6716 634 32.5Z" fill="#D5D7DA"/>
<path d="M665 32.5C665 33.3284 664.328 34 663.5 34C662.672 34 662 33.3284 662 32.5C662 31.6716 662.672 31 663.5 31C664.328 31 665 31.6716 665 32.5Z" fill="#D5D7DA"/>
<path d="M696 32.5C696 33.3284 695.328 34 694.5 34C693.672 34 693 33.3284 693 32.5C693 31.6716 693.672 31 694.5 31C695.328 31 696 31.6716 696 32.5Z" fill="#D5D7DA"/>
<path d="M727 32.5C727 33.3284 726.328 34 725.5 34C724.672 34 724 33.3284 724 32.5C724 31.6716 724.672 31 725.5 31C726.328 31 727 31.6716 727 32.5Z" fill="#D5D7DA"/>
<path d="M758 32.5C758 33.3284 757.328 34 756.5 34C755.672 34 755 33.3284 755 32.5C755 31.6716 755.672 31 756.5 31C757.328 31 758 31.6716 758 32.5Z" fill="#D5D7DA"/>
<path d="M14 67.5C14 68.3284 13.3284 69 12.5 69C11.6716 69 11 68.3284 11 67.5C11 66.6716 11.6716 66 12.5 66C13.3284 66 14 66.6716 14 67.5Z" fill="#D5D7DA"/>
<path d="M45 67.5C45 68.3284 44.3284 69 43.5 69C42.6716 69 42 68.3284 42 67.5C42 66.6716 42.6716 66 43.5 66C44.3284 66 45 66.6716 45 67.5Z" fill="#D5D7DA"/>
<path d="M76 67.5C76 68.3284 75.3284 69 74.5 69C73.6716 69 73 68.3284 73 67.5C73 66.6716 73.6716 66 74.5 66C75.3284 66 76 66.6716 76 67.5Z" fill="#D5D7DA"/>
<path d="M107 67.5C107 68.3284 106.328 69 105.5 69C104.672 69 104 68.3284 104 67.5C104 66.6716 104.672 66 105.5 66C106.328 66 107 66.6716 107 67.5Z" fill="#D5D7DA"/>
<path d="M138 67.5C138 68.3284 137.328 69 136.5 69C135.672 69 135 68.3284 135 67.5C135 66.6716 135.672 66 136.5 66C137.328 66 138 66.6716 138 67.5Z" fill="#D5D7DA"/>
<path d="M169 67.5C169 68.3284 168.328 69 167.5 69C166.672 69 166 68.3284 166 67.5C166 66.6716 166.672 66 167.5 66C168.328 66 169 66.6716 169 67.5Z" fill="#D5D7DA"/>
<path d="M200 67.5C200 68.3284 199.328 69 198.5 69C197.672 69 197 68.3284 197 67.5C197 66.6716 197.672 66 198.5 66C199.328 66 200 66.6716 200 67.5Z" fill="#D5D7DA"/>
<path d="M231 67.5C231 68.3284 230.328 69 229.5 69C228.672 69 228 68.3284 228 67.5C228 66.6716 228.672 66 229.5 66C230.328 66 231 66.6716 231 67.5Z" fill="#D5D7DA"/>
<path d="M262 67.5C262 68.3284 261.328 69 260.5 69C259.672 69 259 68.3284 259 67.5C259 66.6716 259.672 66 260.5 66C261.328 66 262 66.6716 262 67.5Z" fill="#D5D7DA"/>
<path d="M293 67.5C293 68.3284 292.328 69 291.5 69C290.672 69 290 68.3284 290 67.5C290 66.6716 290.672 66 291.5 66C292.328 66 293 66.6716 293 67.5Z" fill="#D5D7DA"/>
<path d="M324 67.5C324 68.3284 323.328 69 322.5 69C321.672 69 321 68.3284 321 67.5C321 66.6716 321.672 66 322.5 66C323.328 66 324 66.6716 324 67.5Z" fill="#D5D7DA"/>
<path d="M355 67.5C355 68.3284 354.328 69 353.5 69C352.672 69 352 68.3284 352 67.5C352 66.6716 352.672 66 353.5 66C354.328 66 355 66.6716 355 67.5Z" fill="#D5D7DA"/>
<path d="M386 67.5C386 68.3284 385.328 69 384.5 69C383.672 69 383 68.3284 383 67.5C383 66.6716 383.672 66 384.5 66C385.328 66 386 66.6716 386 67.5Z" fill="#D5D7DA"/>
<path d="M417 67.5C417 68.3284 416.328 69 415.5 69C414.672 69 414 68.3284 414 67.5C414 66.6716 414.672 66 415.5 66C416.328 66 417 66.6716 417 67.5Z" fill="#D5D7DA"/>
<path d="M448 67.5C448 68.3284 447.328 69 446.5 69C445.672 69 445 68.3284 445 67.5C445 66.6716 445.672 66 446.5 66C447.328 66 448 66.6716 448 67.5Z" fill="#D5D7DA"/>
<path d="M479 67.5C479 68.3284 478.328 69 477.5 69C476.672 69 476 68.3284 476 67.5C476 66.6716 476.672 66 477.5 66C478.328 66 479 66.6716 479 67.5Z" fill="#D5D7DA"/>
<path d="M510 67.5C510 68.3284 509.328 69 508.5 69C507.672 69 507 68.3284 507 67.5C507 66.6716 507.672 66 508.5 66C509.328 66 510 66.6716 510 67.5Z" fill="#D5D7DA"/>
<path d="M541 67.5C541 68.3284 540.328 69 539.5 69C538.672 69 538 68.3284 538 67.5C538 66.6716 538.672 66 539.5 66C540.328 66 541 66.6716 541 67.5Z" fill="#D5D7DA"/>
<path d="M572 67.5C572 68.3284 571.328 69 570.5 69C569.672 69 569 68.3284 569 67.5C569 66.6716 569.672 66 570.5 66C571.328 66 572 66.6716 572 67.5Z" fill="#D5D7DA"/>
<path d="M603 67.5C603 68.3284 602.328 69 601.5 69C600.672 69 600 68.3284 600 67.5C600 66.6716 600.672 66 601.5 66C602.328 66 603 66.6716 603 67.5Z" fill="#D5D7DA"/>
<path d="M634 67.5C634 68.3284 633.328 69 632.5 69C631.672 69 631 68.3284 631 67.5C631 66.6716 631.672 66 632.5 66C633.328 66 634 66.6716 634 67.5Z" fill="#D5D7DA"/>
<path d="M665 67.5C665 68.3284 664.328 69 663.5 69C662.672 69 662 68.3284 662 67.5C662 66.6716 662.672 66 663.5 66C664.328 66 665 66.6716 665 67.5Z" fill="#D5D7DA"/>
<path d="M696 67.5C696 68.3284 695.328 69 694.5 69C693.672 69 693 68.3284 693 67.5C693 66.6716 693.672 66 694.5 66C695.328 66 696 66.6716 696 67.5Z" fill="#D5D7DA"/>
<path d="M727 67.5C727 68.3284 726.328 69 725.5 69C724.672 69 724 68.3284 724 67.5C724 66.6716 724.672 66 725.5 66C726.328 66 727 66.6716 727 67.5Z" fill="#D5D7DA"/>
<path d="M758 67.5C758 68.3284 757.328 69 756.5 69C755.672 69 755 68.3284 755 67.5C755 66.6716 755.672 66 756.5 66C757.328 66 758 66.6716 758 67.5Z" fill="#D5D7DA"/>
<path d="M14 102.5C14 103.328 13.3284 104 12.5 104C11.6716 104 11 103.328 11 102.5C11 101.672 11.6716 101 12.5 101C13.3284 101 14 101.672 14 102.5Z" fill="#D5D7DA"/>
<path d="M45 102.5C45 103.328 44.3284 104 43.5 104C42.6716 104 42 103.328 42 102.5C42 101.672 42.6716 101 43.5 101C44.3284 101 45 101.672 45 102.5Z" fill="#D5D7DA"/>
<path d="M76 102.5C76 103.328 75.3284 104 74.5 104C73.6716 104 73 103.328 73 102.5C73 101.672 73.6716 101 74.5 101C75.3284 101 76 101.672 76 102.5Z" fill="#D5D7DA"/>
<path d="M107 102.5C107 103.328 106.328 104 105.5 104C104.672 104 104 103.328 104 102.5C104 101.672 104.672 101 105.5 101C106.328 101 107 101.672 107 102.5Z" fill="#D5D7DA"/>
<path d="M138 102.5C138 103.328 137.328 104 136.5 104C135.672 104 135 103.328 135 102.5C135 101.672 135.672 101 136.5 101C137.328 101 138 101.672 138 102.5Z" fill="#D5D7DA"/>
<path d="M169 102.5C169 103.328 168.328 104 167.5 104C166.672 104 166 103.328 166 102.5C166 101.672 166.672 101 167.5 101C168.328 101 169 101.672 169 102.5Z" fill="#D5D7DA"/>
<path d="M200 102.5C200 103.328 199.328 104 198.5 104C197.672 104 197 103.328 197 102.5C197 101.672 197.672 101 198.5 101C199.328 101 200 101.672 200 102.5Z" fill="#D5D7DA"/>
<path d="M231 102.5C231 103.328 230.328 104 229.5 104C228.672 104 228 103.328 228 102.5C228 101.672 228.672 101 229.5 101C230.328 101 231 101.672 231 102.5Z" fill="#D5D7DA"/>
<path d="M262 102.5C262 103.328 261.328 104 260.5 104C259.672 104 259 103.328 259 102.5C259 101.672 259.672 101 260.5 101C261.328 101 262 101.672 262 102.5Z" fill="#D5D7DA"/>
<path d="M293 102.5C293 103.328 292.328 104 291.5 104C290.672 104 290 103.328 290 102.5C290 101.672 290.672 101 291.5 101C292.328 101 293 101.672 293 102.5Z" fill="#D5D7DA"/>
<path d="M324 102.5C324 103.328 323.328 104 322.5 104C321.672 104 321 103.328 321 102.5C321 101.672 321.672 101 322.5 101C323.328 101 324 101.672 324 102.5Z" fill="#D5D7DA"/>
<path d="M355 102.5C355 103.328 354.328 104 353.5 104C352.672 104 352 103.328 352 102.5C352 101.672 352.672 101 353.5 101C354.328 101 355 101.672 355 102.5Z" fill="#D5D7DA"/>
<path d="M386 102.5C386 103.328 385.328 104 384.5 104C383.672 104 383 103.328 383 102.5C383 101.672 383.672 101 384.5 101C385.328 101 386 101.672 386 102.5Z" fill="#D5D7DA"/>
<path d="M417 102.5C417 103.328 416.328 104 415.5 104C414.672 104 414 103.328 414 102.5C414 101.672 414.672 101 415.5 101C416.328 101 417 101.672 417 102.5Z" fill="#D5D7DA"/>
<path d="M448 102.5C448 103.328 447.328 104 446.5 104C445.672 104 445 103.328 445 102.5C445 101.672 445.672 101 446.5 101C447.328 101 448 101.672 448 102.5Z" fill="#D5D7DA"/>
<path d="M479 102.5C479 103.328 478.328 104 477.5 104C476.672 104 476 103.328 476 102.5C476 101.672 476.672 101 477.5 101C478.328 101 479 101.672 479 102.5Z" fill="#D5D7DA"/>
<path d="M510 102.5C510 103.328 509.328 104 508.5 104C507.672 104 507 103.328 507 102.5C507 101.672 507.672 101 508.5 101C509.328 101 510 101.672 510 102.5Z" fill="#D5D7DA"/>
<path d="M541 102.5C541 103.328 540.328 104 539.5 104C538.672 104 538 103.328 538 102.5C538 101.672 538.672 101 539.5 101C540.328 101 541 101.672 541 102.5Z" fill="#D5D7DA"/>
<path d="M572 102.5C572 103.328 571.328 104 570.5 104C569.672 104 569 103.328 569 102.5C569 101.672 569.672 101 570.5 101C571.328 101 572 101.672 572 102.5Z" fill="#D5D7DA"/>
<path d="M603 102.5C603 103.328 602.328 104 601.5 104C600.672 104 600 103.328 600 102.5C600 101.672 600.672 101 601.5 101C602.328 101 603 101.672 603 102.5Z" fill="#D5D7DA"/>
<path d="M634 102.5C634 103.328 633.328 104 632.5 104C631.672 104 631 103.328 631 102.5C631 101.672 631.672 101 632.5 101C633.328 101 634 101.672 634 102.5Z" fill="#D5D7DA"/>
<path d="M665 102.5C665 103.328 664.328 104 663.5 104C662.672 104 662 103.328 662 102.5C662 101.672 662.672 101 663.5 101C664.328 101 665 101.672 665 102.5Z" fill="#D5D7DA"/>
<path d="M696 102.5C696 103.328 695.328 104 694.5 104C693.672 104 693 103.328 693 102.5C693 101.672 693.672 101 694.5 101C695.328 101 696 101.672 696 102.5Z" fill="#D5D7DA"/>
<path d="M727 102.5C727 103.328 726.328 104 725.5 104C724.672 104 724 103.328 724 102.5C724 101.672 724.672 101 725.5 101C726.328 101 727 101.672 727 102.5Z" fill="#D5D7DA"/>
<path d="M758 102.5C758 103.328 757.328 104 756.5 104C755.672 104 755 103.328 755 102.5C755 101.672 755.672 101 756.5 101C757.328 101 758 101.672 758 102.5Z" fill="#D5D7DA"/>
<path d="M14 137.5C14 138.328 13.3284 139 12.5 139C11.6716 139 11 138.328 11 137.5C11 136.672 11.6716 136 12.5 136C13.3284 136 14 136.672 14 137.5Z" fill="#D5D7DA"/>
<path d="M45 137.5C45 138.328 44.3284 139 43.5 139C42.6716 139 42 138.328 42 137.5C42 136.672 42.6716 136 43.5 136C44.3284 136 45 136.672 45 137.5Z" fill="#D5D7DA"/>
<path d="M76 137.5C76 138.328 75.3284 139 74.5 139C73.6716 139 73 138.328 73 137.5C73 136.672 73.6716 136 74.5 136C75.3284 136 76 136.672 76 137.5Z" fill="#D5D7DA"/>
<path d="M107 137.5C107 138.328 106.328 139 105.5 139C104.672 139 104 138.328 104 137.5C104 136.672 104.672 136 105.5 136C106.328 136 107 136.672 107 137.5Z" fill="#D5D7DA"/>
<path d="M138 137.5C138 138.328 137.328 139 136.5 139C135.672 139 135 138.328 135 137.5C135 136.672 135.672 136 136.5 136C137.328 136 138 136.672 138 137.5Z" fill="#D5D7DA"/>
<path d="M169 137.5C169 138.328 168.328 139 167.5 139C166.672 139 166 138.328 166 137.5C166 136.672 166.672 136 167.5 136C168.328 136 169 136.672 169 137.5Z" fill="#D5D7DA"/>
<path d="M200 137.5C200 138.328 199.328 139 198.5 139C197.672 139 197 138.328 197 137.5C197 136.672 197.672 136 198.5 136C199.328 136 200 136.672 200 137.5Z" fill="#D5D7DA"/>
<path d="M231 137.5C231 138.328 230.328 139 229.5 139C228.672 139 228 138.328 228 137.5C228 136.672 228.672 136 229.5 136C230.328 136 231 136.672 231 137.5Z" fill="#D5D7DA"/>
<path d="M262 137.5C262 138.328 261.328 139 260.5 139C259.672 139 259 138.328 259 137.5C259 136.672 259.672 136 260.5 136C261.328 136 262 136.672 262 137.5Z" fill="#D5D7DA"/>
<path d="M293 137.5C293 138.328 292.328 139 291.5 139C290.672 139 290 138.328 290 137.5C290 136.672 290.672 136 291.5 136C292.328 136 293 136.672 293 137.5Z" fill="#D5D7DA"/>
<path d="M324 137.5C324 138.328 323.328 139 322.5 139C321.672 139 321 138.328 321 137.5C321 136.672 321.672 136 322.5 136C323.328 136 324 136.672 324 137.5Z" fill="#D5D7DA"/>
<path d="M355 137.5C355 138.328 354.328 139 353.5 139C352.672 139 352 138.328 352 137.5C352 136.672 352.672 136 353.5 136C354.328 136 355 136.672 355 137.5Z" fill="#D5D7DA"/>
<path d="M386 137.5C386 138.328 385.328 139 384.5 139C383.672 139 383 138.328 383 137.5C383 136.672 383.672 136 384.5 136C385.328 136 386 136.672 386 137.5Z" fill="#D5D7DA"/>
<path d="M417 137.5C417 138.328 416.328 139 415.5 139C414.672 139 414 138.328 414 137.5C414 136.672 414.672 136 415.5 136C416.328 136 417 136.672 417 137.5Z" fill="#D5D7DA"/>
<path d="M448 137.5C448 138.328 447.328 139 446.5 139C445.672 139 445 138.328 445 137.5C445 136.672 445.672 136 446.5 136C447.328 136 448 136.672 448 137.5Z" fill="#D5D7DA"/>
<path d="M479 137.5C479 138.328 478.328 139 477.5 139C476.672 139 476 138.328 476 137.5C476 136.672 476.672 136 477.5 136C478.328 136 479 136.672 479 137.5Z" fill="#D5D7DA"/>
<path d="M510 137.5C510 138.328 509.328 139 508.5 139C507.672 139 507 138.328 507 137.5C507 136.672 507.672 136 508.5 136C509.328 136 510 136.672 510 137.5Z" fill="#D5D7DA"/>
<path d="M541 137.5C541 138.328 540.328 139 539.5 139C538.672 139 538 138.328 538 137.5C538 136.672 538.672 136 539.5 136C540.328 136 541 136.672 541 137.5Z" fill="#D5D7DA"/>
<path d="M572 137.5C572 138.328 571.328 139 570.5 139C569.672 139 569 138.328 569 137.5C569 136.672 569.672 136 570.5 136C571.328 136 572 136.672 572 137.5Z" fill="#D5D7DA"/>
<path d="M603 137.5C603 138.328 602.328 139 601.5 139C600.672 139 600 138.328 600 137.5C600 136.672 600.672 136 601.5 136C602.328 136 603 136.672 603 137.5Z" fill="#D5D7DA"/>
<path d="M634 137.5C634 138.328 633.328 139 632.5 139C631.672 139 631 138.328 631 137.5C631 136.672 631.672 136 632.5 136C633.328 136 634 136.672 634 137.5Z" fill="#D5D7DA"/>
<path d="M665 137.5C665 138.328 664.328 139 663.5 139C662.672 139 662 138.328 662 137.5C662 136.672 662.672 136 663.5 136C664.328 136 665 136.672 665 137.5Z" fill="#D5D7DA"/>
<path d="M696 137.5C696 138.328 695.328 139 694.5 139C693.672 139 693 138.328 693 137.5C693 136.672 693.672 136 694.5 136C695.328 136 696 136.672 696 137.5Z" fill="#D5D7DA"/>
<path d="M727 137.5C727 138.328 726.328 139 725.5 139C724.672 139 724 138.328 724 137.5C724 136.672 724.672 136 725.5 136C726.328 136 727 136.672 727 137.5Z" fill="#D5D7DA"/>
<path d="M758 137.5C758 138.328 757.328 139 756.5 139C755.672 139 755 138.328 755 137.5C755 136.672 755.672 136 756.5 136C757.328 136 758 136.672 758 137.5Z" fill="#D5D7DA"/>
<path d="M14 172.5C14 173.328 13.3284 174 12.5 174C11.6716 174 11 173.328 11 172.5C11 171.672 11.6716 171 12.5 171C13.3284 171 14 171.672 14 172.5Z" fill="#D5D7DA"/>
<path d="M45 172.5C45 173.328 44.3284 174 43.5 174C42.6716 174 42 173.328 42 172.5C42 171.672 42.6716 171 43.5 171C44.3284 171 45 171.672 45 172.5Z" fill="#D5D7DA"/>
<path d="M76 172.5C76 173.328 75.3284 174 74.5 174C73.6716 174 73 173.328 73 172.5C73 171.672 73.6716 171 74.5 171C75.3284 171 76 171.672 76 172.5Z" fill="#D5D7DA"/>
<path d="M107 172.5C107 173.328 106.328 174 105.5 174C104.672 174 104 173.328 104 172.5C104 171.672 104.672 171 105.5 171C106.328 171 107 171.672 107 172.5Z" fill="#D5D7DA"/>
<path d="M138 172.5C138 173.328 137.328 174 136.5 174C135.672 174 135 173.328 135 172.5C135 171.672 135.672 171 136.5 171C137.328 171 138 171.672 138 172.5Z" fill="#D5D7DA"/>
<path d="M169 172.5C169 173.328 168.328 174 167.5 174C166.672 174 166 173.328 166 172.5C166 171.672 166.672 171 167.5 171C168.328 171 169 171.672 169 172.5Z" fill="#D5D7DA"/>
<path d="M200 172.5C200 173.328 199.328 174 198.5 174C197.672 174 197 173.328 197 172.5C197 171.672 197.672 171 198.5 171C199.328 171 200 171.672 200 172.5Z" fill="#D5D7DA"/>
<path d="M231 172.5C231 173.328 230.328 174 229.5 174C228.672 174 228 173.328 228 172.5C228 171.672 228.672 171 229.5 171C230.328 171 231 171.672 231 172.5Z" fill="#D5D7DA"/>
<path d="M262 172.5C262 173.328 261.328 174 260.5 174C259.672 174 259 173.328 259 172.5C259 171.672 259.672 171 260.5 171C261.328 171 262 171.672 262 172.5Z" fill="#D5D7DA"/>
<path d="M293 172.5C293 173.328 292.328 174 291.5 174C290.672 174 290 173.328 290 172.5C290 171.672 290.672 171 291.5 171C292.328 171 293 171.672 293 172.5Z" fill="#D5D7DA"/>
<path d="M324 172.5C324 173.328 323.328 174 322.5 174C321.672 174 321 173.328 321 172.5C321 171.672 321.672 171 322.5 171C323.328 171 324 171.672 324 172.5Z" fill="#D5D7DA"/>
<path d="M355 172.5C355 173.328 354.328 174 353.5 174C352.672 174 352 173.328 352 172.5C352 171.672 352.672 171 353.5 171C354.328 171 355 171.672 355 172.5Z" fill="#D5D7DA"/>
<path d="M386 172.5C386 173.328 385.328 174 384.5 174C383.672 174 383 173.328 383 172.5C383 171.672 383.672 171 384.5 171C385.328 171 386 171.672 386 172.5Z" fill="#D5D7DA"/>
<path d="M417 172.5C417 173.328 416.328 174 415.5 174C414.672 174 414 173.328 414 172.5C414 171.672 414.672 171 415.5 171C416.328 171 417 171.672 417 172.5Z" fill="#D5D7DA"/>
<path d="M448 172.5C448 173.328 447.328 174 446.5 174C445.672 174 445 173.328 445 172.5C445 171.672 445.672 171 446.5 171C447.328 171 448 171.672 448 172.5Z" fill="#D5D7DA"/>
<path d="M479 172.5C479 173.328 478.328 174 477.5 174C476.672 174 476 173.328 476 172.5C476 171.672 476.672 171 477.5 171C478.328 171 479 171.672 479 172.5Z" fill="#D5D7DA"/>
<path d="M510 172.5C510 173.328 509.328 174 508.5 174C507.672 174 507 173.328 507 172.5C507 171.672 507.672 171 508.5 171C509.328 171 510 171.672 510 172.5Z" fill="#D5D7DA"/>
<path d="M541 172.5C541 173.328 540.328 174 539.5 174C538.672 174 538 173.328 538 172.5C538 171.672 538.672 171 539.5 171C540.328 171 541 171.672 541 172.5Z" fill="#D5D7DA"/>
<path d="M572 172.5C572 173.328 571.328 174 570.5 174C569.672 174 569 173.328 569 172.5C569 171.672 569.672 171 570.5 171C571.328 171 572 171.672 572 172.5Z" fill="#D5D7DA"/>
<path d="M603 172.5C603 173.328 602.328 174 601.5 174C600.672 174 600 173.328 600 172.5C600 171.672 600.672 171 601.5 171C602.328 171 603 171.672 603 172.5Z" fill="#D5D7DA"/>
<path d="M634 172.5C634 173.328 633.328 174 632.5 174C631.672 174 631 173.328 631 172.5C631 171.672 631.672 171 632.5 171C633.328 171 634 171.672 634 172.5Z" fill="#D5D7DA"/>
<path d="M665 172.5C665 173.328 664.328 174 663.5 174C662.672 174 662 173.328 662 172.5C662 171.672 662.672 171 663.5 171C664.328 171 665 171.672 665 172.5Z" fill="#D5D7DA"/>
<path d="M696 172.5C696 173.328 695.328 174 694.5 174C693.672 174 693 173.328 693 172.5C693 171.672 693.672 171 694.5 171C695.328 171 696 171.672 696 172.5Z" fill="#D5D7DA"/>
<path d="M727 172.5C727 173.328 726.328 174 725.5 174C724.672 174 724 173.328 724 172.5C724 171.672 724.672 171 725.5 171C726.328 171 727 171.672 727 172.5Z" fill="#D5D7DA"/>
<path d="M758 172.5C758 173.328 757.328 174 756.5 174C755.672 174 755 173.328 755 172.5C755 171.672 755.672 171 756.5 171C757.328 171 758 171.672 758 172.5Z" fill="#D5D7DA"/>
<path d="M14 207.5C14 208.328 13.3284 209 12.5 209C11.6716 209 11 208.328 11 207.5C11 206.672 11.6716 206 12.5 206C13.3284 206 14 206.672 14 207.5Z" fill="#D5D7DA"/>
<path d="M45 207.5C45 208.328 44.3284 209 43.5 209C42.6716 209 42 208.328 42 207.5C42 206.672 42.6716 206 43.5 206C44.3284 206 45 206.672 45 207.5Z" fill="#D5D7DA"/>
<path d="M76 207.5C76 208.328 75.3284 209 74.5 209C73.6716 209 73 208.328 73 207.5C73 206.672 73.6716 206 74.5 206C75.3284 206 76 206.672 76 207.5Z" fill="#D5D7DA"/>
<path d="M107 207.5C107 208.328 106.328 209 105.5 209C104.672 209 104 208.328 104 207.5C104 206.672 104.672 206 105.5 206C106.328 206 107 206.672 107 207.5Z" fill="#D5D7DA"/>
<path d="M138 207.5C138 208.328 137.328 209 136.5 209C135.672 209 135 208.328 135 207.5C135 206.672 135.672 206 136.5 206C137.328 206 138 206.672 138 207.5Z" fill="#D5D7DA"/>
<path d="M169 207.5C169 208.328 168.328 209 167.5 209C166.672 209 166 208.328 166 207.5C166 206.672 166.672 206 167.5 206C168.328 206 169 206.672 169 207.5Z" fill="#D5D7DA"/>
<path d="M200 207.5C200 208.328 199.328 209 198.5 209C197.672 209 197 208.328 197 207.5C197 206.672 197.672 206 198.5 206C199.328 206 200 206.672 200 207.5Z" fill="#D5D7DA"/>
<path d="M231 207.5C231 208.328 230.328 209 229.5 209C228.672 209 228 208.328 228 207.5C228 206.672 228.672 206 229.5 206C230.328 206 231 206.672 231 207.5Z" fill="#D5D7DA"/>
<path d="M262 207.5C262 208.328 261.328 209 260.5 209C259.672 209 259 208.328 259 207.5C259 206.672 259.672 206 260.5 206C261.328 206 262 206.672 262 207.5Z" fill="#D5D7DA"/>
<path d="M293 207.5C293 208.328 292.328 209 291.5 209C290.672 209 290 208.328 290 207.5C290 206.672 290.672 206 291.5 206C292.328 206 293 206.672 293 207.5Z" fill="#D5D7DA"/>
<path d="M324 207.5C324 208.328 323.328 209 322.5 209C321.672 209 321 208.328 321 207.5C321 206.672 321.672 206 322.5 206C323.328 206 324 206.672 324 207.5Z" fill="#D5D7DA"/>
<path d="M355 207.5C355 208.328 354.328 209 353.5 209C352.672 209 352 208.328 352 207.5C352 206.672 352.672 206 353.5 206C354.328 206 355 206.672 355 207.5Z" fill="#D5D7DA"/>
<path d="M386 207.5C386 208.328 385.328 209 384.5 209C383.672 209 383 208.328 383 207.5C383 206.672 383.672 206 384.5 206C385.328 206 386 206.672 386 207.5Z" fill="#D5D7DA"/>
<path d="M417 207.5C417 208.328 416.328 209 415.5 209C414.672 209 414 208.328 414 207.5C414 206.672 414.672 206 415.5 206C416.328 206 417 206.672 417 207.5Z" fill="#D5D7DA"/>
<path d="M448 207.5C448 208.328 447.328 209 446.5 209C445.672 209 445 208.328 445 207.5C445 206.672 445.672 206 446.5 206C447.328 206 448 206.672 448 207.5Z" fill="#D5D7DA"/>
<path d="M479 207.5C479 208.328 478.328 209 477.5 209C476.672 209 476 208.328 476 207.5C476 206.672 476.672 206 477.5 206C478.328 206 479 206.672 479 207.5Z" fill="#D5D7DA"/>
<path d="M510 207.5C510 208.328 509.328 209 508.5 209C507.672 209 507 208.328 507 207.5C507 206.672 507.672 206 508.5 206C509.328 206 510 206.672 510 207.5Z" fill="#D5D7DA"/>
<path d="M541 207.5C541 208.328 540.328 209 539.5 209C538.672 209 538 208.328 538 207.5C538 206.672 538.672 206 539.5 206C540.328 206 541 206.672 541 207.5Z" fill="#D5D7DA"/>
<path d="M572 207.5C572 208.328 571.328 209 570.5 209C569.672 209 569 208.328 569 207.5C569 206.672 569.672 206 570.5 206C571.328 206 572 206.672 572 207.5Z" fill="#D5D7DA"/>
<path d="M603 207.5C603 208.328 602.328 209 601.5 209C600.672 209 600 208.328 600 207.5C600 206.672 600.672 206 601.5 206C602.328 206 603 206.672 603 207.5Z" fill="#D5D7DA"/>
<path d="M634 207.5C634 208.328 633.328 209 632.5 209C631.672 209 631 208.328 631 207.5C631 206.672 631.672 206 632.5 206C633.328 206 634 206.672 634 207.5Z" fill="#D5D7DA"/>
<path d="M665 207.5C665 208.328 664.328 209 663.5 209C662.672 209 662 208.328 662 207.5C662 206.672 662.672 206 663.5 206C664.328 206 665 206.672 665 207.5Z" fill="#D5D7DA"/>
<path d="M696 207.5C696 208.328 695.328 209 694.5 209C693.672 209 693 208.328 693 207.5C693 206.672 693.672 206 694.5 206C695.328 206 696 206.672 696 207.5Z" fill="#D5D7DA"/>
<path d="M727 207.5C727 208.328 726.328 209 725.5 209C724.672 209 724 208.328 724 207.5C724 206.672 724.672 206 725.5 206C726.328 206 727 206.672 727 207.5Z" fill="#D5D7DA"/>
<path d="M758 207.5C758 208.328 757.328 209 756.5 209C755.672 209 755 208.328 755 207.5C755 206.672 755.672 206 756.5 206C757.328 206 758 206.672 758 207.5Z" fill="#D5D7DA"/>
<path d="M14 242.5C14 243.328 13.3284 244 12.5 244C11.6716 244 11 243.328 11 242.5C11 241.672 11.6716 241 12.5 241C13.3284 241 14 241.672 14 242.5Z" fill="#D5D7DA"/>
<path d="M45 242.5C45 243.328 44.3284 244 43.5 244C42.6716 244 42 243.328 42 242.5C42 241.672 42.6716 241 43.5 241C44.3284 241 45 241.672 45 242.5Z" fill="#D5D7DA"/>
<path d="M76 242.5C76 243.328 75.3284 244 74.5 244C73.6716 244 73 243.328 73 242.5C73 241.672 73.6716 241 74.5 241C75.3284 241 76 241.672 76 242.5Z" fill="#D5D7DA"/>
<path d="M107 242.5C107 243.328 106.328 244 105.5 244C104.672 244 104 243.328 104 242.5C104 241.672 104.672 241 105.5 241C106.328 241 107 241.672 107 242.5Z" fill="#D5D7DA"/>
<path d="M138 242.5C138 243.328 137.328 244 136.5 244C135.672 244 135 243.328 135 242.5C135 241.672 135.672 241 136.5 241C137.328 241 138 241.672 138 242.5Z" fill="#D5D7DA"/>
<path d="M169 242.5C169 243.328 168.328 244 167.5 244C166.672 244 166 243.328 166 242.5C166 241.672 166.672 241 167.5 241C168.328 241 169 241.672 169 242.5Z" fill="#D5D7DA"/>
<path d="M200 242.5C200 243.328 199.328 244 198.5 244C197.672 244 197 243.328 197 242.5C197 241.672 197.672 241 198.5 241C199.328 241 200 241.672 200 242.5Z" fill="#D5D7DA"/>
<path d="M231 242.5C231 243.328 230.328 244 229.5 244C228.672 244 228 243.328 228 242.5C228 241.672 228.672 241 229.5 241C230.328 241 231 241.672 231 242.5Z" fill="#D5D7DA"/>
<path d="M262 242.5C262 243.328 261.328 244 260.5 244C259.672 244 259 243.328 259 242.5C259 241.672 259.672 241 260.5 241C261.328 241 262 241.672 262 242.5Z" fill="#D5D7DA"/>
<path d="M293 242.5C293 243.328 292.328 244 291.5 244C290.672 244 290 243.328 290 242.5C290 241.672 290.672 241 291.5 241C292.328 241 293 241.672 293 242.5Z" fill="#D5D7DA"/>
<path d="M324 242.5C324 243.328 323.328 244 322.5 244C321.672 244 321 243.328 321 242.5C321 241.672 321.672 241 322.5 241C323.328 241 324 241.672 324 242.5Z" fill="#D5D7DA"/>
<path d="M355 242.5C355 243.328 354.328 244 353.5 244C352.672 244 352 243.328 352 242.5C352 241.672 352.672 241 353.5 241C354.328 241 355 241.672 355 242.5Z" fill="#D5D7DA"/>
<path d="M386 242.5C386 243.328 385.328 244 384.5 244C383.672 244 383 243.328 383 242.5C383 241.672 383.672 241 384.5 241C385.328 241 386 241.672 386 242.5Z" fill="#D5D7DA"/>
<path d="M417 242.5C417 243.328 416.328 244 415.5 244C414.672 244 414 243.328 414 242.5C414 241.672 414.672 241 415.5 241C416.328 241 417 241.672 417 242.5Z" fill="#D5D7DA"/>
<path d="M448 242.5C448 243.328 447.328 244 446.5 244C445.672 244 445 243.328 445 242.5C445 241.672 445.672 241 446.5 241C447.328 241 448 241.672 448 242.5Z" fill="#D5D7DA"/>
<path d="M479 242.5C479 243.328 478.328 244 477.5 244C476.672 244 476 243.328 476 242.5C476 241.672 476.672 241 477.5 241C478.328 241 479 241.672 479 242.5Z" fill="#D5D7DA"/>
<path d="M510 242.5C510 243.328 509.328 244 508.5 244C507.672 244 507 243.328 507 242.5C507 241.672 507.672 241 508.5 241C509.328 241 510 241.672 510 242.5Z" fill="#D5D7DA"/>
<path d="M541 242.5C541 243.328 540.328 244 539.5 244C538.672 244 538 243.328 538 242.5C538 241.672 538.672 241 539.5 241C540.328 241 541 241.672 541 242.5Z" fill="#D5D7DA"/>
<path d="M572 242.5C572 243.328 571.328 244 570.5 244C569.672 244 569 243.328 569 242.5C569 241.672 569.672 241 570.5 241C571.328 241 572 241.672 572 242.5Z" fill="#D5D7DA"/>
<path d="M603 242.5C603 243.328 602.328 244 601.5 244C600.672 244 600 243.328 600 242.5C600 241.672 600.672 241 601.5 241C602.328 241 603 241.672 603 242.5Z" fill="#D5D7DA"/>
<path d="M634 242.5C634 243.328 633.328 244 632.5 244C631.672 244 631 243.328 631 242.5C631 241.672 631.672 241 632.5 241C633.328 241 634 241.672 634 242.5Z" fill="#D5D7DA"/>
<path d="M665 242.5C665 243.328 664.328 244 663.5 244C662.672 244 662 243.328 662 242.5C662 241.672 662.672 241 663.5 241C664.328 241 665 241.672 665 242.5Z" fill="#D5D7DA"/>
<path d="M696 242.5C696 243.328 695.328 244 694.5 244C693.672 244 693 243.328 693 242.5C693 241.672 693.672 241 694.5 241C695.328 241 696 241.672 696 242.5Z" fill="#D5D7DA"/>
<path d="M727 242.5C727 243.328 726.328 244 725.5 244C724.672 244 724 243.328 724 242.5C724 241.672 724.672 241 725.5 241C726.328 241 727 241.672 727 242.5Z" fill="#D5D7DA"/>
<path d="M758 242.5C758 243.328 757.328 244 756.5 244C755.672 244 755 243.328 755 242.5C755 241.672 755.672 241 756.5 241C757.328 241 758 241.672 758 242.5Z" fill="#D5D7DA"/>
<path d="M14 277.5C14 278.328 13.3284 279 12.5 279C11.6716 279 11 278.328 11 277.5C11 276.672 11.6716 276 12.5 276C13.3284 276 14 276.672 14 277.5Z" fill="#D5D7DA"/>
<path d="M45 277.5C45 278.328 44.3284 279 43.5 279C42.6716 279 42 278.328 42 277.5C42 276.672 42.6716 276 43.5 276C44.3284 276 45 276.672 45 277.5Z" fill="#D5D7DA"/>
<path d="M76 277.5C76 278.328 75.3284 279 74.5 279C73.6716 279 73 278.328 73 277.5C73 276.672 73.6716 276 74.5 276C75.3284 276 76 276.672 76 277.5Z" fill="#D5D7DA"/>
<path d="M107 277.5C107 278.328 106.328 279 105.5 279C104.672 279 104 278.328 104 277.5C104 276.672 104.672 276 105.5 276C106.328 276 107 276.672 107 277.5Z" fill="#D5D7DA"/>
<path d="M138 277.5C138 278.328 137.328 279 136.5 279C135.672 279 135 278.328 135 277.5C135 276.672 135.672 276 136.5 276C137.328 276 138 276.672 138 277.5Z" fill="#D5D7DA"/>
<path d="M169 277.5C169 278.328 168.328 279 167.5 279C166.672 279 166 278.328 166 277.5C166 276.672 166.672 276 167.5 276C168.328 276 169 276.672 169 277.5Z" fill="#D5D7DA"/>
<path d="M200 277.5C200 278.328 199.328 279 198.5 279C197.672 279 197 278.328 197 277.5C197 276.672 197.672 276 198.5 276C199.328 276 200 276.672 200 277.5Z" fill="#D5D7DA"/>
<path d="M231 277.5C231 278.328 230.328 279 229.5 279C228.672 279 228 278.328 228 277.5C228 276.672 228.672 276 229.5 276C230.328 276 231 276.672 231 277.5Z" fill="#D5D7DA"/>
<path d="M262 277.5C262 278.328 261.328 279 260.5 279C259.672 279 259 278.328 259 277.5C259 276.672 259.672 276 260.5 276C261.328 276 262 276.672 262 277.5Z" fill="#D5D7DA"/>
<path d="M293 277.5C293 278.328 292.328 279 291.5 279C290.672 279 290 278.328 290 277.5C290 276.672 290.672 276 291.5 276C292.328 276 293 276.672 293 277.5Z" fill="#D5D7DA"/>
<path d="M324 277.5C324 278.328 323.328 279 322.5 279C321.672 279 321 278.328 321 277.5C321 276.672 321.672 276 322.5 276C323.328 276 324 276.672 324 277.5Z" fill="#D5D7DA"/>
<path d="M355 277.5C355 278.328 354.328 279 353.5 279C352.672 279 352 278.328 352 277.5C352 276.672 352.672 276 353.5 276C354.328 276 355 276.672 355 277.5Z" fill="#D5D7DA"/>
<path d="M386 277.5C386 278.328 385.328 279 384.5 279C383.672 279 383 278.328 383 277.5C383 276.672 383.672 276 384.5 276C385.328 276 386 276.672 386 277.5Z" fill="#D5D7DA"/>
<path d="M417 277.5C417 278.328 416.328 279 415.5 279C414.672 279 414 278.328 414 277.5C414 276.672 414.672 276 415.5 276C416.328 276 417 276.672 417 277.5Z" fill="#D5D7DA"/>
<path d="M448 277.5C448 278.328 447.328 279 446.5 279C445.672 279 445 278.328 445 277.5C445 276.672 445.672 276 446.5 276C447.328 276 448 276.672 448 277.5Z" fill="#D5D7DA"/>
<path d="M479 277.5C479 278.328 478.328 279 477.5 279C476.672 279 476 278.328 476 277.5C476 276.672 476.672 276 477.5 276C478.328 276 479 276.672 479 277.5Z" fill="#D5D7DA"/>
<path d="M510 277.5C510 278.328 509.328 279 508.5 279C507.672 279 507 278.328 507 277.5C507 276.672 507.672 276 508.5 276C509.328 276 510 276.672 510 277.5Z" fill="#D5D7DA"/>
<path d="M541 277.5C541 278.328 540.328 279 539.5 279C538.672 279 538 278.328 538 277.5C538 276.672 538.672 276 539.5 276C540.328 276 541 276.672 541 277.5Z" fill="#D5D7DA"/>
<path d="M572 277.5C572 278.328 571.328 279 570.5 279C569.672 279 569 278.328 569 277.5C569 276.672 569.672 276 570.5 276C571.328 276 572 276.672 572 277.5Z" fill="#D5D7DA"/>
<path d="M603 277.5C603 278.328 602.328 279 601.5 279C600.672 279 600 278.328 600 277.5C600 276.672 600.672 276 601.5 276C602.328 276 603 276.672 603 277.5Z" fill="#D5D7DA"/>
<path d="M634 277.5C634 278.328 633.328 279 632.5 279C631.672 279 631 278.328 631 277.5C631 276.672 631.672 276 632.5 276C633.328 276 634 276.672 634 277.5Z" fill="#D5D7DA"/>
<path d="M665 277.5C665 278.328 664.328 279 663.5 279C662.672 279 662 278.328 662 277.5C662 276.672 662.672 276 663.5 276C664.328 276 665 276.672 665 277.5Z" fill="#D5D7DA"/>
<path d="M696 277.5C696 278.328 695.328 279 694.5 279C693.672 279 693 278.328 693 277.5C693 276.672 693.672 276 694.5 276C695.328 276 696 276.672 696 277.5Z" fill="#D5D7DA"/>
<path d="M727 277.5C727 278.328 726.328 279 725.5 279C724.672 279 724 278.328 724 277.5C724 276.672 724.672 276 725.5 276C726.328 276 727 276.672 727 277.5Z" fill="#D5D7DA"/>
<path d="M758 277.5C758 278.328 757.328 279 756.5 279C755.672 279 755 278.328 755 277.5C755 276.672 755.672 276 756.5 276C757.328 276 758 276.672 758 277.5Z" fill="#D5D7DA"/>
<path d="M14 312.5C14 313.328 13.3284 314 12.5 314C11.6716 314 11 313.328 11 312.5C11 311.672 11.6716 311 12.5 311C13.3284 311 14 311.672 14 312.5Z" fill="#D5D7DA"/>
<path d="M45 312.5C45 313.328 44.3284 314 43.5 314C42.6716 314 42 313.328 42 312.5C42 311.672 42.6716 311 43.5 311C44.3284 311 45 311.672 45 312.5Z" fill="#D5D7DA"/>
<path d="M76 312.5C76 313.328 75.3284 314 74.5 314C73.6716 314 73 313.328 73 312.5C73 311.672 73.6716 311 74.5 311C75.3284 311 76 311.672 76 312.5Z" fill="#D5D7DA"/>
<path d="M107 312.5C107 313.328 106.328 314 105.5 314C104.672 314 104 313.328 104 312.5C104 311.672 104.672 311 105.5 311C106.328 311 107 311.672 107 312.5Z" fill="#D5D7DA"/>
<path d="M138 312.5C138 313.328 137.328 314 136.5 314C135.672 314 135 313.328 135 312.5C135 311.672 135.672 311 136.5 311C137.328 311 138 311.672 138 312.5Z" fill="#D5D7DA"/>
<path d="M169 312.5C169 313.328 168.328 314 167.5 314C166.672 314 166 313.328 166 312.5C166 311.672 166.672 311 167.5 311C168.328 311 169 311.672 169 312.5Z" fill="#D5D7DA"/>
<path d="M200 312.5C200 313.328 199.328 314 198.5 314C197.672 314 197 313.328 197 312.5C197 311.672 197.672 311 198.5 311C199.328 311 200 311.672 200 312.5Z" fill="#D5D7DA"/>
<path d="M231 312.5C231 313.328 230.328 314 229.5 314C228.672 314 228 313.328 228 312.5C228 311.672 228.672 311 229.5 311C230.328 311 231 311.672 231 312.5Z" fill="#D5D7DA"/>
<path d="M262 312.5C262 313.328 261.328 314 260.5 314C259.672 314 259 313.328 259 312.5C259 311.672 259.672 311 260.5 311C261.328 311 262 311.672 262 312.5Z" fill="#D5D7DA"/>
<path d="M293 312.5C293 313.328 292.328 314 291.5 314C290.672 314 290 313.328 290 312.5C290 311.672 290.672 311 291.5 311C292.328 311 293 311.672 293 312.5Z" fill="#D5D7DA"/>
<path d="M324 312.5C324 313.328 323.328 314 322.5 314C321.672 314 321 313.328 321 312.5C321 311.672 321.672 311 322.5 311C323.328 311 324 311.672 324 312.5Z" fill="#D5D7DA"/>
<path d="M355 312.5C355 313.328 354.328 314 353.5 314C352.672 314 352 313.328 352 312.5C352 311.672 352.672 311 353.5 311C354.328 311 355 311.672 355 312.5Z" fill="#D5D7DA"/>
<path d="M386 312.5C386 313.328 385.328 314 384.5 314C383.672 314 383 313.328 383 312.5C383 311.672 383.672 311 384.5 311C385.328 311 386 311.672 386 312.5Z" fill="#D5D7DA"/>
<path d="M417 312.5C417 313.328 416.328 314 415.5 314C414.672 314 414 313.328 414 312.5C414 311.672 414.672 311 415.5 311C416.328 311 417 311.672 417 312.5Z" fill="#D5D7DA"/>
<path d="M448 312.5C448 313.328 447.328 314 446.5 314C445.672 314 445 313.328 445 312.5C445 311.672 445.672 311 446.5 311C447.328 311 448 311.672 448 312.5Z" fill="#D5D7DA"/>
<path d="M479 312.5C479 313.328 478.328 314 477.5 314C476.672 314 476 313.328 476 312.5C476 311.672 476.672 311 477.5 311C478.328 311 479 311.672 479 312.5Z" fill="#D5D7DA"/>
<path d="M510 312.5C510 313.328 509.328 314 508.5 314C507.672 314 507 313.328 507 312.5C507 311.672 507.672 311 508.5 311C509.328 311 510 311.672 510 312.5Z" fill="#D5D7DA"/>
<path d="M541 312.5C541 313.328 540.328 314 539.5 314C538.672 314 538 313.328 538 312.5C538 311.672 538.672 311 539.5 311C540.328 311 541 311.672 541 312.5Z" fill="#D5D7DA"/>
<path d="M572 312.5C572 313.328 571.328 314 570.5 314C569.672 314 569 313.328 569 312.5C569 311.672 569.672 311 570.5 311C571.328 311 572 311.672 572 312.5Z" fill="#D5D7DA"/>
<path d="M603 312.5C603 313.328 602.328 314 601.5 314C600.672 314 600 313.328 600 312.5C600 311.672 600.672 311 601.5 311C602.328 311 603 311.672 603 312.5Z" fill="#D5D7DA"/>
<path d="M634 312.5C634 313.328 633.328 314 632.5 314C631.672 314 631 313.328 631 312.5C631 311.672 631.672 311 632.5 311C633.328 311 634 311.672 634 312.5Z" fill="#D5D7DA"/>
<path d="M665 312.5C665 313.328 664.328 314 663.5 314C662.672 314 662 313.328 662 312.5C662 311.672 662.672 311 663.5 311C664.328 311 665 311.672 665 312.5Z" fill="#D5D7DA"/>
<path d="M696 312.5C696 313.328 695.328 314 694.5 314C693.672 314 693 313.328 693 312.5C693 311.672 693.672 311 694.5 311C695.328 311 696 311.672 696 312.5Z" fill="#D5D7DA"/>
<path d="M727 312.5C727 313.328 726.328 314 725.5 314C724.672 314 724 313.328 724 312.5C724 311.672 724.672 311 725.5 311C726.328 311 727 311.672 727 312.5Z" fill="#D5D7DA"/>
<path d="M758 312.5C758 313.328 757.328 314 756.5 314C755.672 314 755 313.328 755 312.5C755 311.672 755.672 311 756.5 311C757.328 311 758 311.672 758 312.5Z" fill="#D5D7DA"/>
<path d="M14 347.5C14 348.328 13.3284 349 12.5 349C11.6716 349 11 348.328 11 347.5C11 346.672 11.6716 346 12.5 346C13.3284 346 14 346.672 14 347.5Z" fill="#D5D7DA"/>
<path d="M45 347.5C45 348.328 44.3284 349 43.5 349C42.6716 349 42 348.328 42 347.5C42 346.672 42.6716 346 43.5 346C44.3284 346 45 346.672 45 347.5Z" fill="#D5D7DA"/>
<path d="M76 347.5C76 348.328 75.3284 349 74.5 349C73.6716 349 73 348.328 73 347.5C73 346.672 73.6716 346 74.5 346C75.3284 346 76 346.672 76 347.5Z" fill="#D5D7DA"/>
<path d="M107 347.5C107 348.328 106.328 349 105.5 349C104.672 349 104 348.328 104 347.5C104 346.672 104.672 346 105.5 346C106.328 346 107 346.672 107 347.5Z" fill="#D5D7DA"/>
<path d="M138 347.5C138 348.328 137.328 349 136.5 349C135.672 349 135 348.328 135 347.5C135 346.672 135.672 346 136.5 346C137.328 346 138 346.672 138 347.5Z" fill="#D5D7DA"/>
<path d="M169 347.5C169 348.328 168.328 349 167.5 349C166.672 349 166 348.328 166 347.5C166 346.672 166.672 346 167.5 346C168.328 346 169 346.672 169 347.5Z" fill="#D5D7DA"/>
<path d="M200 347.5C200 348.328 199.328 349 198.5 349C197.672 349 197 348.328 197 347.5C197 346.672 197.672 346 198.5 346C199.328 346 200 346.672 200 347.5Z" fill="#D5D7DA"/>
<path d="M231 347.5C231 348.328 230.328 349 229.5 349C228.672 349 228 348.328 228 347.5C228 346.672 228.672 346 229.5 346C230.328 346 231 346.672 231 347.5Z" fill="#D5D7DA"/>
<path d="M262 347.5C262 348.328 261.328 349 260.5 349C259.672 349 259 348.328 259 347.5C259 346.672 259.672 346 260.5 346C261.328 346 262 346.672 262 347.5Z" fill="#D5D7DA"/>
<path d="M293 347.5C293 348.328 292.328 349 291.5 349C290.672 349 290 348.328 290 347.5C290 346.672 290.672 346 291.5 346C292.328 346 293 346.672 293 347.5Z" fill="#D5D7DA"/>
<path d="M324 347.5C324 348.328 323.328 349 322.5 349C321.672 349 321 348.328 321 347.5C321 346.672 321.672 346 322.5 346C323.328 346 324 346.672 324 347.5Z" fill="#D5D7DA"/>
<path d="M355 347.5C355 348.328 354.328 349 353.5 349C352.672 349 352 348.328 352 347.5C352 346.672 352.672 346 353.5 346C354.328 346 355 346.672 355 347.5Z" fill="#D5D7DA"/>
<path d="M386 347.5C386 348.328 385.328 349 384.5 349C383.672 349 383 348.328 383 347.5C383 346.672 383.672 346 384.5 346C385.328 346 386 346.672 386 347.5Z" fill="#D5D7DA"/>
<path d="M417 347.5C417 348.328 416.328 349 415.5 349C414.672 349 414 348.328 414 347.5C414 346.672 414.672 346 415.5 346C416.328 346 417 346.672 417 347.5Z" fill="#D5D7DA"/>
<path d="M448 347.5C448 348.328 447.328 349 446.5 349C445.672 349 445 348.328 445 347.5C445 346.672 445.672 346 446.5 346C447.328 346 448 346.672 448 347.5Z" fill="#D5D7DA"/>
<path d="M479 347.5C479 348.328 478.328 349 477.5 349C476.672 349 476 348.328 476 347.5C476 346.672 476.672 346 477.5 346C478.328 346 479 346.672 479 347.5Z" fill="#D5D7DA"/>
<path d="M510 347.5C510 348.328 509.328 349 508.5 349C507.672 349 507 348.328 507 347.5C507 346.672 507.672 346 508.5 346C509.328 346 510 346.672 510 347.5Z" fill="#D5D7DA"/>
<path d="M541 347.5C541 348.328 540.328 349 539.5 349C538.672 349 538 348.328 538 347.5C538 346.672 538.672 346 539.5 346C540.328 346 541 346.672 541 347.5Z" fill="#D5D7DA"/>
<path d="M572 347.5C572 348.328 571.328 349 570.5 349C569.672 349 569 348.328 569 347.5C569 346.672 569.672 346 570.5 346C571.328 346 572 346.672 572 347.5Z" fill="#D5D7DA"/>
<path d="M603 347.5C603 348.328 602.328 349 601.5 349C600.672 349 600 348.328 600 347.5C600 346.672 600.672 346 601.5 346C602.328 346 603 346.672 603 347.5Z" fill="#D5D7DA"/>
<path d="M634 347.5C634 348.328 633.328 349 632.5 349C631.672 349 631 348.328 631 347.5C631 346.672 631.672 346 632.5 346C633.328 346 634 346.672 634 347.5Z" fill="#D5D7DA"/>
<path d="M665 347.5C665 348.328 664.328 349 663.5 349C662.672 349 662 348.328 662 347.5C662 346.672 662.672 346 663.5 346C664.328 346 665 346.672 665 347.5Z" fill="#D5D7DA"/>
<path d="M696 347.5C696 348.328 695.328 349 694.5 349C693.672 349 693 348.328 693 347.5C693 346.672 693.672 346 694.5 346C695.328 346 696 346.672 696 347.5Z" fill="#D5D7DA"/>
<path d="M727 347.5C727 348.328 726.328 349 725.5 349C724.672 349 724 348.328 724 347.5C724 346.672 724.672 346 725.5 346C726.328 346 727 346.672 727 347.5Z" fill="#D5D7DA"/>
<path d="M758 347.5C758 348.328 757.328 349 756.5 349C755.672 349 755 348.328 755 347.5C755 346.672 755.672 346 756.5 346C757.328 346 758 346.672 758 347.5Z" fill="#D5D7DA"/>
<path d="M14 382.5C14 383.328 13.3284 384 12.5 384C11.6716 384 11 383.328 11 382.5C11 381.672 11.6716 381 12.5 381C13.3284 381 14 381.672 14 382.5Z" fill="#D5D7DA"/>
<path d="M45 382.5C45 383.328 44.3284 384 43.5 384C42.6716 384 42 383.328 42 382.5C42 381.672 42.6716 381 43.5 381C44.3284 381 45 381.672 45 382.5Z" fill="#D5D7DA"/>
<path d="M76 382.5C76 383.328 75.3284 384 74.5 384C73.6716 384 73 383.328 73 382.5C73 381.672 73.6716 381 74.5 381C75.3284 381 76 381.672 76 382.5Z" fill="#D5D7DA"/>
<path d="M107 382.5C107 383.328 106.328 384 105.5 384C104.672 384 104 383.328 104 382.5C104 381.672 104.672 381 105.5 381C106.328 381 107 381.672 107 382.5Z" fill="#D5D7DA"/>
<path d="M138 382.5C138 383.328 137.328 384 136.5 384C135.672 384 135 383.328 135 382.5C135 381.672 135.672 381 136.5 381C137.328 381 138 381.672 138 382.5Z" fill="#D5D7DA"/>
<path d="M169 382.5C169 383.328 168.328 384 167.5 384C166.672 384 166 383.328 166 382.5C166 381.672 166.672 381 167.5 381C168.328 381 169 381.672 169 382.5Z" fill="#D5D7DA"/>
<path d="M200 382.5C200 383.328 199.328 384 198.5 384C197.672 384 197 383.328 197 382.5C197 381.672 197.672 381 198.5 381C199.328 381 200 381.672 200 382.5Z" fill="#D5D7DA"/>
<path d="M231 382.5C231 383.328 230.328 384 229.5 384C228.672 384 228 383.328 228 382.5C228 381.672 228.672 381 229.5 381C230.328 381 231 381.672 231 382.5Z" fill="#D5D7DA"/>
<path d="M262 382.5C262 383.328 261.328 384 260.5 384C259.672 384 259 383.328 259 382.5C259 381.672 259.672 381 260.5 381C261.328 381 262 381.672 262 382.5Z" fill="#D5D7DA"/>
<path d="M293 382.5C293 383.328 292.328 384 291.5 384C290.672 384 290 383.328 290 382.5C290 381.672 290.672 381 291.5 381C292.328 381 293 381.672 293 382.5Z" fill="#D5D7DA"/>
<path d="M324 382.5C324 383.328 323.328 384 322.5 384C321.672 384 321 383.328 321 382.5C321 381.672 321.672 381 322.5 381C323.328 381 324 381.672 324 382.5Z" fill="#D5D7DA"/>
<path d="M355 382.5C355 383.328 354.328 384 353.5 384C352.672 384 352 383.328 352 382.5C352 381.672 352.672 381 353.5 381C354.328 381 355 381.672 355 382.5Z" fill="#D5D7DA"/>
<path d="M386 382.5C386 383.328 385.328 384 384.5 384C383.672 384 383 383.328 383 382.5C383 381.672 383.672 381 384.5 381C385.328 381 386 381.672 386 382.5Z" fill="#D5D7DA"/>
<path d="M417 382.5C417 383.328 416.328 384 415.5 384C414.672 384 414 383.328 414 382.5C414 381.672 414.672 381 415.5 381C416.328 381 417 381.672 417 382.5Z" fill="#D5D7DA"/>
<path d="M448 382.5C448 383.328 447.328 384 446.5 384C445.672 384 445 383.328 445 382.5C445 381.672 445.672 381 446.5 381C447.328 381 448 381.672 448 382.5Z" fill="#D5D7DA"/>
<path d="M479 382.5C479 383.328 478.328 384 477.5 384C476.672 384 476 383.328 476 382.5C476 381.672 476.672 381 477.5 381C478.328 381 479 381.672 479 382.5Z" fill="#D5D7DA"/>
<path d="M510 382.5C510 383.328 509.328 384 508.5 384C507.672 384 507 383.328 507 382.5C507 381.672 507.672 381 508.5 381C509.328 381 510 381.672 510 382.5Z" fill="#D5D7DA"/>
<path d="M541 382.5C541 383.328 540.328 384 539.5 384C538.672 384 538 383.328 538 382.5C538 381.672 538.672 381 539.5 381C540.328 381 541 381.672 541 382.5Z" fill="#D5D7DA"/>
<path d="M572 382.5C572 383.328 571.328 384 570.5 384C569.672 384 569 383.328 569 382.5C569 381.672 569.672 381 570.5 381C571.328 381 572 381.672 572 382.5Z" fill="#D5D7DA"/>
<path d="M603 382.5C603 383.328 602.328 384 601.5 384C600.672 384 600 383.328 600 382.5C600 381.672 600.672 381 601.5 381C602.328 381 603 381.672 603 382.5Z" fill="#D5D7DA"/>
<path d="M634 382.5C634 383.328 633.328 384 632.5 384C631.672 384 631 383.328 631 382.5C631 381.672 631.672 381 632.5 381C633.328 381 634 381.672 634 382.5Z" fill="#D5D7DA"/>
<path d="M665 382.5C665 383.328 664.328 384 663.5 384C662.672 384 662 383.328 662 382.5C662 381.672 662.672 381 663.5 381C664.328 381 665 381.672 665 382.5Z" fill="#D5D7DA"/>
<path d="M696 382.5C696 383.328 695.328 384 694.5 384C693.672 384 693 383.328 693 382.5C693 381.672 693.672 381 694.5 381C695.328 381 696 381.672 696 382.5Z" fill="#D5D7DA"/>
<path d="M727 382.5C727 383.328 726.328 384 725.5 384C724.672 384 724 383.328 724 382.5C724 381.672 724.672 381 725.5 381C726.328 381 727 381.672 727 382.5Z" fill="#D5D7DA"/>
<path d="M758 382.5C758 383.328 757.328 384 756.5 384C755.672 384 755 383.328 755 382.5C755 381.672 755.672 381 756.5 381C757.328 381 758 381.672 758 382.5Z" fill="#D5D7DA"/>
<path d="M14 417.5C14 418.328 13.3284 419 12.5 419C11.6716 419 11 418.328 11 417.5C11 416.672 11.6716 416 12.5 416C13.3284 416 14 416.672 14 417.5Z" fill="#D5D7DA"/>
<path d="M45 417.5C45 418.328 44.3284 419 43.5 419C42.6716 419 42 418.328 42 417.5C42 416.672 42.6716 416 43.5 416C44.3284 416 45 416.672 45 417.5Z" fill="#D5D7DA"/>
<path d="M76 417.5C76 418.328 75.3284 419 74.5 419C73.6716 419 73 418.328 73 417.5C73 416.672 73.6716 416 74.5 416C75.3284 416 76 416.672 76 417.5Z" fill="#D5D7DA"/>
<path d="M107 417.5C107 418.328 106.328 419 105.5 419C104.672 419 104 418.328 104 417.5C104 416.672 104.672 416 105.5 416C106.328 416 107 416.672 107 417.5Z" fill="#D5D7DA"/>
<path d="M138 417.5C138 418.328 137.328 419 136.5 419C135.672 419 135 418.328 135 417.5C135 416.672 135.672 416 136.5 416C137.328 416 138 416.672 138 417.5Z" fill="#D5D7DA"/>
<path d="M169 417.5C169 418.328 168.328 419 167.5 419C166.672 419 166 418.328 166 417.5C166 416.672 166.672 416 167.5 416C168.328 416 169 416.672 169 417.5Z" fill="#D5D7DA"/>
<path d="M200 417.5C200 418.328 199.328 419 198.5 419C197.672 419 197 418.328 197 417.5C197 416.672 197.672 416 198.5 416C199.328 416 200 416.672 200 417.5Z" fill="#D5D7DA"/>
<path d="M231 417.5C231 418.328 230.328 419 229.5 419C228.672 419 228 418.328 228 417.5C228 416.672 228.672 416 229.5 416C230.328 416 231 416.672 231 417.5Z" fill="#D5D7DA"/>
<path d="M262 417.5C262 418.328 261.328 419 260.5 419C259.672 419 259 418.328 259 417.5C259 416.672 259.672 416 260.5 416C261.328 416 262 416.672 262 417.5Z" fill="#D5D7DA"/>
<path d="M293 417.5C293 418.328 292.328 419 291.5 419C290.672 419 290 418.328 290 417.5C290 416.672 290.672 416 291.5 416C292.328 416 293 416.672 293 417.5Z" fill="#D5D7DA"/>
<path d="M324 417.5C324 418.328 323.328 419 322.5 419C321.672 419 321 418.328 321 417.5C321 416.672 321.672 416 322.5 416C323.328 416 324 416.672 324 417.5Z" fill="#D5D7DA"/>
<path d="M355 417.5C355 418.328 354.328 419 353.5 419C352.672 419 352 418.328 352 417.5C352 416.672 352.672 416 353.5 416C354.328 416 355 416.672 355 417.5Z" fill="#D5D7DA"/>
<path d="M386 417.5C386 418.328 385.328 419 384.5 419C383.672 419 383 418.328 383 417.5C383 416.672 383.672 416 384.5 416C385.328 416 386 416.672 386 417.5Z" fill="#D5D7DA"/>
<path d="M417 417.5C417 418.328 416.328 419 415.5 419C414.672 419 414 418.328 414 417.5C414 416.672 414.672 416 415.5 416C416.328 416 417 416.672 417 417.5Z" fill="#D5D7DA"/>
<path d="M448 417.5C448 418.328 447.328 419 446.5 419C445.672 419 445 418.328 445 417.5C445 416.672 445.672 416 446.5 416C447.328 416 448 416.672 448 417.5Z" fill="#D5D7DA"/>
<path d="M479 417.5C479 418.328 478.328 419 477.5 419C476.672 419 476 418.328 476 417.5C476 416.672 476.672 416 477.5 416C478.328 416 479 416.672 479 417.5Z" fill="#D5D7DA"/>
<path d="M510 417.5C510 418.328 509.328 419 508.5 419C507.672 419 507 418.328 507 417.5C507 416.672 507.672 416 508.5 416C509.328 416 510 416.672 510 417.5Z" fill="#D5D7DA"/>
<path d="M541 417.5C541 418.328 540.328 419 539.5 419C538.672 419 538 418.328 538 417.5C538 416.672 538.672 416 539.5 416C540.328 416 541 416.672 541 417.5Z" fill="#D5D7DA"/>
<path d="M572 417.5C572 418.328 571.328 419 570.5 419C569.672 419 569 418.328 569 417.5C569 416.672 569.672 416 570.5 416C571.328 416 572 416.672 572 417.5Z" fill="#D5D7DA"/>
<path d="M603 417.5C603 418.328 602.328 419 601.5 419C600.672 419 600 418.328 600 417.5C600 416.672 600.672 416 601.5 416C602.328 416 603 416.672 603 417.5Z" fill="#D5D7DA"/>
<path d="M634 417.5C634 418.328 633.328 419 632.5 419C631.672 419 631 418.328 631 417.5C631 416.672 631.672 416 632.5 416C633.328 416 634 416.672 634 417.5Z" fill="#D5D7DA"/>
<path d="M665 417.5C665 418.328 664.328 419 663.5 419C662.672 419 662 418.328 662 417.5C662 416.672 662.672 416 663.5 416C664.328 416 665 416.672 665 417.5Z" fill="#D5D7DA"/>
<path d="M696 417.5C696 418.328 695.328 419 694.5 419C693.672 419 693 418.328 693 417.5C693 416.672 693.672 416 694.5 416C695.328 416 696 416.672 696 417.5Z" fill="#D5D7DA"/>
<path d="M727 417.5C727 418.328 726.328 419 725.5 419C724.672 419 724 418.328 724 417.5C724 416.672 724.672 416 725.5 416C726.328 416 727 416.672 727 417.5Z" fill="#D5D7DA"/>
<path d="M758 417.5C758 418.328 757.328 419 756.5 419C755.672 419 755 418.328 755 417.5C755 416.672 755.672 416 756.5 416C757.328 416 758 416.672 758 417.5Z" fill="#D5D7DA"/>
<path d="M14 452.5C14 453.328 13.3284 454 12.5 454C11.6716 454 11 453.328 11 452.5C11 451.672 11.6716 451 12.5 451C13.3284 451 14 451.672 14 452.5Z" fill="#D5D7DA"/>
<path d="M45 452.5C45 453.328 44.3284 454 43.5 454C42.6716 454 42 453.328 42 452.5C42 451.672 42.6716 451 43.5 451C44.3284 451 45 451.672 45 452.5Z" fill="#D5D7DA"/>
<path d="M76 452.5C76 453.328 75.3284 454 74.5 454C73.6716 454 73 453.328 73 452.5C73 451.672 73.6716 451 74.5 451C75.3284 451 76 451.672 76 452.5Z" fill="#D5D7DA"/>
<path d="M107 452.5C107 453.328 106.328 454 105.5 454C104.672 454 104 453.328 104 452.5C104 451.672 104.672 451 105.5 451C106.328 451 107 451.672 107 452.5Z" fill="#D5D7DA"/>
<path d="M138 452.5C138 453.328 137.328 454 136.5 454C135.672 454 135 453.328 135 452.5C135 451.672 135.672 451 136.5 451C137.328 451 138 451.672 138 452.5Z" fill="#D5D7DA"/>
<path d="M169 452.5C169 453.328 168.328 454 167.5 454C166.672 454 166 453.328 166 452.5C166 451.672 166.672 451 167.5 451C168.328 451 169 451.672 169 452.5Z" fill="#D5D7DA"/>
<path d="M200 452.5C200 453.328 199.328 454 198.5 454C197.672 454 197 453.328 197 452.5C197 451.672 197.672 451 198.5 451C199.328 451 200 451.672 200 452.5Z" fill="#D5D7DA"/>
<path d="M231 452.5C231 453.328 230.328 454 229.5 454C228.672 454 228 453.328 228 452.5C228 451.672 228.672 451 229.5 451C230.328 451 231 451.672 231 452.5Z" fill="#D5D7DA"/>
<path d="M262 452.5C262 453.328 261.328 454 260.5 454C259.672 454 259 453.328 259 452.5C259 451.672 259.672 451 260.5 451C261.328 451 262 451.672 262 452.5Z" fill="#D5D7DA"/>
<path d="M293 452.5C293 453.328 292.328 454 291.5 454C290.672 454 290 453.328 290 452.5C290 451.672 290.672 451 291.5 451C292.328 451 293 451.672 293 452.5Z" fill="#D5D7DA"/>
<path d="M324 452.5C324 453.328 323.328 454 322.5 454C321.672 454 321 453.328 321 452.5C321 451.672 321.672 451 322.5 451C323.328 451 324 451.672 324 452.5Z" fill="#D5D7DA"/>
<path d="M355 452.5C355 453.328 354.328 454 353.5 454C352.672 454 352 453.328 352 452.5C352 451.672 352.672 451 353.5 451C354.328 451 355 451.672 355 452.5Z" fill="#D5D7DA"/>
<path d="M386 452.5C386 453.328 385.328 454 384.5 454C383.672 454 383 453.328 383 452.5C383 451.672 383.672 451 384.5 451C385.328 451 386 451.672 386 452.5Z" fill="#D5D7DA"/>
<path d="M417 452.5C417 453.328 416.328 454 415.5 454C414.672 454 414 453.328 414 452.5C414 451.672 414.672 451 415.5 451C416.328 451 417 451.672 417 452.5Z" fill="#D5D7DA"/>
<path d="M448 452.5C448 453.328 447.328 454 446.5 454C445.672 454 445 453.328 445 452.5C445 451.672 445.672 451 446.5 451C447.328 451 448 451.672 448 452.5Z" fill="#D5D7DA"/>
<path d="M479 452.5C479 453.328 478.328 454 477.5 454C476.672 454 476 453.328 476 452.5C476 451.672 476.672 451 477.5 451C478.328 451 479 451.672 479 452.5Z" fill="#D5D7DA"/>
<path d="M510 452.5C510 453.328 509.328 454 508.5 454C507.672 454 507 453.328 507 452.5C507 451.672 507.672 451 508.5 451C509.328 451 510 451.672 510 452.5Z" fill="#D5D7DA"/>
<path d="M541 452.5C541 453.328 540.328 454 539.5 454C538.672 454 538 453.328 538 452.5C538 451.672 538.672 451 539.5 451C540.328 451 541 451.672 541 452.5Z" fill="#D5D7DA"/>
<path d="M572 452.5C572 453.328 571.328 454 570.5 454C569.672 454 569 453.328 569 452.5C569 451.672 569.672 451 570.5 451C571.328 451 572 451.672 572 452.5Z" fill="#D5D7DA"/>
<path d="M603 452.5C603 453.328 602.328 454 601.5 454C600.672 454 600 453.328 600 452.5C600 451.672 600.672 451 601.5 451C602.328 451 603 451.672 603 452.5Z" fill="#D5D7DA"/>
<path d="M634 452.5C634 453.328 633.328 454 632.5 454C631.672 454 631 453.328 631 452.5C631 451.672 631.672 451 632.5 451C633.328 451 634 451.672 634 452.5Z" fill="#D5D7DA"/>
<path d="M665 452.5C665 453.328 664.328 454 663.5 454C662.672 454 662 453.328 662 452.5C662 451.672 662.672 451 663.5 451C664.328 451 665 451.672 665 452.5Z" fill="#D5D7DA"/>
<path d="M696 452.5C696 453.328 695.328 454 694.5 454C693.672 454 693 453.328 693 452.5C693 451.672 693.672 451 694.5 451C695.328 451 696 451.672 696 452.5Z" fill="#D5D7DA"/>
<path d="M727 452.5C727 453.328 726.328 454 725.5 454C724.672 454 724 453.328 724 452.5C724 451.672 724.672 451 725.5 451C726.328 451 727 451.672 727 452.5Z" fill="#D5D7DA"/>
<path d="M758 452.5C758 453.328 757.328 454 756.5 454C755.672 454 755 453.328 755 452.5C755 451.672 755.672 451 756.5 451C757.328 451 758 451.672 758 452.5Z" fill="#D5D7DA"/>
<path d="M14 487.5C14 488.328 13.3284 489 12.5 489C11.6716 489 11 488.328 11 487.5C11 486.672 11.6716 486 12.5 486C13.3284 486 14 486.672 14 487.5Z" fill="#D5D7DA"/>
<path d="M45 487.5C45 488.328 44.3284 489 43.5 489C42.6716 489 42 488.328 42 487.5C42 486.672 42.6716 486 43.5 486C44.3284 486 45 486.672 45 487.5Z" fill="#D5D7DA"/>
<path d="M76 487.5C76 488.328 75.3284 489 74.5 489C73.6716 489 73 488.328 73 487.5C73 486.672 73.6716 486 74.5 486C75.3284 486 76 486.672 76 487.5Z" fill="#D5D7DA"/>
<path d="M107 487.5C107 488.328 106.328 489 105.5 489C104.672 489 104 488.328 104 487.5C104 486.672 104.672 486 105.5 486C106.328 486 107 486.672 107 487.5Z" fill="#D5D7DA"/>
<path d="M138 487.5C138 488.328 137.328 489 136.5 489C135.672 489 135 488.328 135 487.5C135 486.672 135.672 486 136.5 486C137.328 486 138 486.672 138 487.5Z" fill="#D5D7DA"/>
<path d="M169 487.5C169 488.328 168.328 489 167.5 489C166.672 489 166 488.328 166 487.5C166 486.672 166.672 486 167.5 486C168.328 486 169 486.672 169 487.5Z" fill="#D5D7DA"/>
<path d="M200 487.5C200 488.328 199.328 489 198.5 489C197.672 489 197 488.328 197 487.5C197 486.672 197.672 486 198.5 486C199.328 486 200 486.672 200 487.5Z" fill="#D5D7DA"/>
<path d="M231 487.5C231 488.328 230.328 489 229.5 489C228.672 489 228 488.328 228 487.5C228 486.672 228.672 486 229.5 486C230.328 486 231 486.672 231 487.5Z" fill="#D5D7DA"/>
<path d="M262 487.5C262 488.328 261.328 489 260.5 489C259.672 489 259 488.328 259 487.5C259 486.672 259.672 486 260.5 486C261.328 486 262 486.672 262 487.5Z" fill="#D5D7DA"/>
<path d="M293 487.5C293 488.328 292.328 489 291.5 489C290.672 489 290 488.328 290 487.5C290 486.672 290.672 486 291.5 486C292.328 486 293 486.672 293 487.5Z" fill="#D5D7DA"/>
<path d="M324 487.5C324 488.328 323.328 489 322.5 489C321.672 489 321 488.328 321 487.5C321 486.672 321.672 486 322.5 486C323.328 486 324 486.672 324 487.5Z" fill="#D5D7DA"/>
<path d="M355 487.5C355 488.328 354.328 489 353.5 489C352.672 489 352 488.328 352 487.5C352 486.672 352.672 486 353.5 486C354.328 486 355 486.672 355 487.5Z" fill="#D5D7DA"/>
<path d="M386 487.5C386 488.328 385.328 489 384.5 489C383.672 489 383 488.328 383 487.5C383 486.672 383.672 486 384.5 486C385.328 486 386 486.672 386 487.5Z" fill="#D5D7DA"/>
<path d="M417 487.5C417 488.328 416.328 489 415.5 489C414.672 489 414 488.328 414 487.5C414 486.672 414.672 486 415.5 486C416.328 486 417 486.672 417 487.5Z" fill="#D5D7DA"/>
<path d="M448 487.5C448 488.328 447.328 489 446.5 489C445.672 489 445 488.328 445 487.5C445 486.672 445.672 486 446.5 486C447.328 486 448 486.672 448 487.5Z" fill="#D5D7DA"/>
<path d="M479 487.5C479 488.328 478.328 489 477.5 489C476.672 489 476 488.328 476 487.5C476 486.672 476.672 486 477.5 486C478.328 486 479 486.672 479 487.5Z" fill="#D5D7DA"/>
<path d="M510 487.5C510 488.328 509.328 489 508.5 489C507.672 489 507 488.328 507 487.5C507 486.672 507.672 486 508.5 486C509.328 486 510 486.672 510 487.5Z" fill="#D5D7DA"/>
<path d="M541 487.5C541 488.328 540.328 489 539.5 489C538.672 489 538 488.328 538 487.5C538 486.672 538.672 486 539.5 486C540.328 486 541 486.672 541 487.5Z" fill="#D5D7DA"/>
<path d="M572 487.5C572 488.328 571.328 489 570.5 489C569.672 489 569 488.328 569 487.5C569 486.672 569.672 486 570.5 486C571.328 486 572 486.672 572 487.5Z" fill="#D5D7DA"/>
<path d="M603 487.5C603 488.328 602.328 489 601.5 489C600.672 489 600 488.328 600 487.5C600 486.672 600.672 486 601.5 486C602.328 486 603 486.672 603 487.5Z" fill="#D5D7DA"/>
<path d="M634 487.5C634 488.328 633.328 489 632.5 489C631.672 489 631 488.328 631 487.5C631 486.672 631.672 486 632.5 486C633.328 486 634 486.672 634 487.5Z" fill="#D5D7DA"/>
<path d="M665 487.5C665 488.328 664.328 489 663.5 489C662.672 489 662 488.328 662 487.5C662 486.672 662.672 486 663.5 486C664.328 486 665 486.672 665 487.5Z" fill="#D5D7DA"/>
<path d="M696 487.5C696 488.328 695.328 489 694.5 489C693.672 489 693 488.328 693 487.5C693 486.672 693.672 486 694.5 486C695.328 486 696 486.672 696 487.5Z" fill="#D5D7DA"/>
<path d="M727 487.5C727 488.328 726.328 489 725.5 489C724.672 489 724 488.328 724 487.5C724 486.672 724.672 486 725.5 486C726.328 486 727 486.672 727 487.5Z" fill="#D5D7DA"/>
<path d="M758 487.5C758 488.328 757.328 489 756.5 489C755.672 489 755 488.328 755 487.5C755 486.672 755.672 486 756.5 486C757.328 486 758 486.672 758 487.5Z" fill="#D5D7DA"/>
</svg>
