<svg width="32" height="24" viewBox="0 0 32 24" fill="none" xmlns="http://www.w3.org/2000/svg">
<path d="M4 0.800049H28C29.933 0.800049 31.5 2.36705 31.5 4.30005V19.7004C31.4998 21.6333 29.9329 23.2004 28 23.2004H4C2.06713 23.2004 0.500211 21.6333 0.5 19.7004V4.30005C0.5 2.36705 2.067 0.800049 4 0.800049Z" fill="white"/>
<path d="M4 0.800049H28C29.933 0.800049 31.5 2.36705 31.5 4.30005V19.7004C31.4998 21.6333 29.9329 23.2004 28 23.2004H4C2.06713 23.2004 0.500211 21.6333 0.5 19.7004V4.30005C0.5 2.36705 2.067 0.800049 4 0.800049Z" stroke="#E9EAEB"/>
<path fill-rule="evenodd" clip-rule="evenodd" d="M17.179 17.0995C15.9949 18.0976 14.459 18.7 12.7807 18.7C9.03582 18.7 6 15.7004 6 12C6 8.29974 9.03582 5.30005 12.7807 5.30005C14.459 5.30005 15.9949 5.90255 17.179 6.90059C18.363 5.90255 19.8989 5.30005 21.5773 5.30005C25.3221 5.30005 28.358 8.29974 28.358 12C28.358 15.7004 25.3221 18.7 21.5773 18.7C19.8989 18.7 18.363 18.0976 17.179 17.0995Z" fill="#ED0006"/>
<path fill-rule="evenodd" clip-rule="evenodd" d="M17.1787 17.0995C18.6367 15.8706 19.5611 14.042 19.5611 12C19.5611 9.95809 18.6367 8.12949 17.1787 6.90059C18.3628 5.90255 19.8987 5.30005 21.577 5.30005C25.3219 5.30005 28.3577 8.29974 28.3577 12C28.3577 15.7004 25.3219 18.7 21.577 18.7C19.8987 18.7 18.3628 18.0976 17.1787 17.0995Z" fill="#F9A000"/>
<path fill-rule="evenodd" clip-rule="evenodd" d="M17.1793 17.0995C18.6372 15.8706 19.5616 14.042 19.5616 12C19.5616 9.95811 18.6372 8.12951 17.1793 6.90061C15.7213 8.12951 14.7969 9.95811 14.7969 12C14.7969 14.042 15.7213 15.8706 17.1793 17.0995Z" fill="#FF5E00"/>
</svg>
