<svg width="312" height="297" viewBox="0 0 312 297" fill="none" xmlns="http://www.w3.org/2000/svg">
<path d="M296.4 156.2C296.4 137.736 292.768 119.453 285.712 102.395C278.657 85.3363 268.315 69.8367 255.277 56.7808C242.24 43.7249 226.762 33.3683 209.728 26.3025C192.694 19.2367 174.437 15.6 156 15.6C137.562 15.6 119.305 19.2367 102.271 26.3025C85.2368 33.3683 69.7592 43.7248 56.7219 56.7807C43.6845 69.8366 33.3427 85.3362 26.287 102.395C19.2312 119.453 15.5996 137.736 15.5996 156.2" stroke="#E9EAEB" stroke-width="15" stroke-linecap="round" stroke-linejoin="round"/>
<path d="M15.5996 156.2C15.5996 129.52 23.1802 103.39 37.456 80.8627C51.7317 58.3357 72.1133 40.3413 96.2202 28.9813" stroke="#155EEF" stroke-width="15" stroke-linecap="round" stroke-linejoin="round"/>
<path d="M74.7759 90.6968C74.6724 89.7292 74.2367 88.9758 73.4685 88.4365C72.7077 87.8973 71.7179 87.6277 70.4992 87.6277C69.6423 87.6277 68.9074 87.757 68.2943 88.0155C67.6813 88.274 67.2122 88.6249 66.8872 89.0681C66.5622 89.5113 66.396 90.0172 66.3886 90.586C66.3886 91.0587 66.4957 91.4687 66.7099 91.8158C66.9315 92.163 67.2307 92.4584 67.6074 92.7022C67.9841 92.9385 68.4014 93.138 68.8594 93.3005C69.3173 93.463 69.779 93.5996 70.2443 93.7104L72.3716 94.2422C73.2284 94.4417 74.052 94.7113 74.8423 95.051C75.6401 95.3908 76.3528 95.8192 76.9807 96.3363C77.6159 96.8533 78.1182 97.4775 78.4875 98.2087C78.8568 98.94 79.0415 99.7968 79.0415 100.779C79.0415 102.109 78.7017 103.279 78.0222 104.291C77.3426 105.296 76.3602 106.083 75.075 106.651C73.7972 107.213 72.2497 107.493 70.4327 107.493C68.6673 107.493 67.1347 107.22 65.8347 106.673C64.542 106.127 63.5301 105.329 62.7989 104.28C62.075 103.231 61.6835 101.954 61.6244 100.447H65.6685C65.7276 101.237 65.9713 101.895 66.3997 102.419C66.8281 102.943 67.3858 103.335 68.0727 103.593C68.767 103.852 69.5426 103.981 70.3994 103.981C71.2932 103.981 72.0761 103.848 72.7483 103.582C73.4278 103.309 73.9597 102.932 74.3438 102.452C74.7278 101.965 74.9236 101.396 74.931 100.746C74.9236 100.155 74.75 99.6675 74.4102 99.2834C74.0705 98.8919 73.594 98.5669 72.981 98.3084C72.3753 98.0425 71.6662 97.8062 70.8537 97.5993L68.2722 96.9346C66.4034 96.4544 64.9261 95.7269 63.8403 94.7519C62.7619 93.7695 62.2227 92.4658 62.2227 90.8408C62.2227 89.5039 62.5847 88.3331 63.3085 87.3286C64.0398 86.324 65.0332 85.5448 66.2889 84.9908C67.5446 84.4294 68.9665 84.1488 70.5545 84.1488C72.1648 84.1488 73.5756 84.4294 74.7869 84.9908C76.0057 85.5448 76.9622 86.3167 77.6565 87.3064C78.3509 88.2888 78.7091 89.4189 78.7313 90.6968H74.7759ZM87.4259 107.493C86.3475 107.493 85.3762 107.301 84.512 106.917C83.6552 106.526 82.9756 105.95 82.4734 105.189C81.9785 104.428 81.731 103.49 81.731 102.375C81.731 101.414 81.9083 100.62 82.2629 99.9925C82.6174 99.3647 83.1012 98.8624 83.7143 98.4857C84.3273 98.109 85.018 97.8246 85.7862 97.6326C86.5617 97.4331 87.3631 97.2891 88.1904 97.2005C89.1876 97.0971 89.9964 97.0047 90.6168 96.9235C91.2373 96.8348 91.6879 96.7019 91.9685 96.5246C92.2566 96.34 92.4006 96.0556 92.4006 95.6715V95.605C92.4006 94.7704 92.1532 94.124 91.6583 93.6661C91.1634 93.2081 90.4506 92.9792 89.52 92.9792C88.5376 92.9792 87.7583 93.1934 87.1822 93.6218C86.6134 94.0502 86.2293 94.5562 86.0299 95.1397L82.285 94.6079C82.5805 93.5738 83.068 92.7096 83.7475 92.0152C84.4271 91.3135 85.258 90.7891 86.2404 90.4419C87.2228 90.0874 88.3086 89.9101 89.4978 89.9101C90.3177 89.9101 91.1339 90.0062 91.9464 90.1982C92.7589 90.3902 93.5012 90.7079 94.1734 91.151C94.8455 91.5868 95.3847 92.1814 95.791 92.9348C96.2046 93.6883 96.4114 94.63 96.4114 95.7601V107.15H92.5558V104.812H92.4228C92.1791 105.285 91.8356 105.728 91.3924 106.142C90.9566 106.548 90.4063 106.877 89.7416 107.128C89.0842 107.371 88.3123 107.493 87.4259 107.493ZM88.4674 104.546C89.2725 104.546 89.9705 104.387 90.5614 104.07C91.1523 103.745 91.6066 103.316 91.9242 102.785C92.2492 102.253 92.4117 101.673 92.4117 101.045V99.0397C92.2862 99.1431 92.0719 99.2391 91.7691 99.3277C91.4737 99.4164 91.1413 99.4939 90.7719 99.5604C90.4026 99.6269 90.037 99.686 89.6751 99.7377C89.3131 99.7894 88.9992 99.8337 88.7333 99.8706C88.135 99.9519 87.5995 100.085 87.1268 100.27C86.6541 100.454 86.281 100.713 86.0077 101.045C85.7344 101.37 85.5978 101.791 85.5978 102.308C85.5978 103.047 85.8674 103.604 86.4066 103.981C86.9458 104.358 87.6327 104.546 88.4674 104.546ZM115.036 90.1317L108.976 107.15H104.544L98.4833 90.1317H102.76L106.671 102.773H106.848L110.771 90.1317H115.036ZM117.812 107.15V90.1317H121.822V107.15H117.812ZM119.828 87.7164C119.193 87.7164 118.646 87.5059 118.188 87.0848C117.73 86.6564 117.501 86.1431 117.501 85.5448C117.501 84.9391 117.73 84.4258 118.188 84.0047C118.646 83.5763 119.193 83.3621 119.828 83.3621C120.471 83.3621 121.017 83.5763 121.468 84.0047C121.926 84.4258 122.155 84.9391 122.155 85.5448C122.155 86.1431 121.926 86.6564 121.468 87.0848C121.017 87.5059 120.471 87.7164 119.828 87.7164ZM129.958 97.1783V107.15H125.947V90.1317H129.78V93.0235H129.98C130.371 92.0706 130.995 91.3135 131.852 90.7522C132.716 90.1908 133.784 89.9101 135.054 89.9101C136.229 89.9101 137.252 90.1613 138.123 90.6635C139.002 91.1658 139.682 91.8934 140.162 92.8462C140.649 93.799 140.889 94.955 140.882 96.3141V107.15H136.871V96.9346C136.871 95.7971 136.576 94.907 135.985 94.2644C135.401 93.6218 134.592 93.3005 133.558 93.3005C132.857 93.3005 132.233 93.4556 131.686 93.7658C131.147 94.0687 130.722 94.5081 130.412 95.0843C130.109 95.6604 129.958 96.3584 129.958 97.1783ZM152.36 113.886C150.92 113.886 149.683 113.691 148.649 113.299C147.615 112.915 146.784 112.398 146.156 111.748C145.528 111.098 145.092 110.378 144.848 109.587L148.46 108.712C148.623 109.045 148.859 109.373 149.169 109.698C149.48 110.031 149.897 110.304 150.421 110.518C150.953 110.74 151.622 110.85 152.427 110.85C153.564 110.85 154.506 110.573 155.252 110.02C155.998 109.473 156.371 108.572 156.371 107.316V104.092H156.172C155.965 104.506 155.662 104.93 155.263 105.366C154.872 105.802 154.351 106.168 153.701 106.463C153.058 106.758 152.25 106.906 151.275 106.906C149.967 106.906 148.782 106.6 147.718 105.987C146.662 105.366 145.82 104.443 145.192 103.217C144.571 101.983 144.261 100.439 144.261 98.5854C144.261 96.7167 144.571 95.1397 145.192 93.8544C145.82 92.5618 146.665 91.5831 147.729 90.9184C148.793 90.2462 149.978 89.9101 151.286 89.9101C152.283 89.9101 153.103 90.08 153.745 90.4198C154.395 90.7522 154.912 91.1547 155.296 91.6275C155.681 92.0928 155.972 92.5323 156.172 92.9459H156.393V90.1317H160.349V107.427C160.349 108.882 160.002 110.086 159.307 111.039C158.613 111.992 157.664 112.704 156.46 113.177C155.256 113.65 153.889 113.886 152.36 113.886ZM152.394 103.76C153.243 103.76 153.967 103.553 154.565 103.139C155.163 102.725 155.618 102.131 155.928 101.355C156.238 100.58 156.393 99.649 156.393 98.5633C156.393 97.4922 156.238 96.5542 155.928 95.749C155.625 94.9439 155.175 94.3198 154.576 93.8766C153.985 93.426 153.258 93.2008 152.394 93.2008C151.5 93.2008 150.754 93.4334 150.156 93.8988C149.557 94.3641 149.107 95.003 148.804 95.8155C148.501 96.6206 148.35 97.5365 148.35 98.5633C148.35 99.6047 148.501 100.517 148.804 101.3C149.114 102.075 149.568 102.681 150.167 103.117C150.772 103.545 151.515 103.76 152.394 103.76ZM177.91 94.63L174.254 95.0289C174.15 94.6596 173.969 94.3124 173.711 93.9874C173.46 93.6624 173.12 93.4002 172.691 93.2008C172.263 93.0013 171.738 92.9016 171.118 92.9016C170.283 92.9016 169.582 93.0826 169.013 93.4445C168.452 93.8064 168.175 94.2755 168.182 94.8516C168.175 95.3465 168.356 95.749 168.725 96.0593C169.102 96.3695 169.722 96.6243 170.586 96.8238L173.489 97.4442C175.099 97.7914 176.296 98.3417 177.079 99.0951C177.869 99.8485 178.268 100.835 178.275 102.053C178.268 103.124 177.954 104.07 177.334 104.89C176.721 105.702 175.867 106.337 174.774 106.795C173.681 107.253 172.425 107.482 171.007 107.482C168.924 107.482 167.248 107.046 165.977 106.175C164.707 105.296 163.95 104.073 163.706 102.508L167.617 102.131C167.794 102.899 168.171 103.479 168.747 103.87C169.323 104.262 170.073 104.458 170.996 104.458C171.949 104.458 172.713 104.262 173.29 103.87C173.873 103.479 174.165 102.995 174.165 102.419C174.165 101.931 173.977 101.529 173.6 101.211C173.231 100.894 172.654 100.65 171.871 100.48L168.969 99.8706C167.336 99.5309 166.129 98.9584 165.346 98.1533C164.563 97.3408 164.175 96.3141 164.182 95.0732C164.175 94.0243 164.459 93.1158 165.035 92.3476C165.619 91.5721 166.428 90.9738 167.462 90.5527C168.503 90.1243 169.704 89.9101 171.063 89.9101C173.057 89.9101 174.627 90.3348 175.771 91.1843C176.924 92.0337 177.637 93.1823 177.91 94.63ZM196.723 113.886C195.283 113.886 194.045 113.691 193.011 113.299C191.977 112.915 191.146 112.398 190.518 111.748C189.89 111.098 189.455 110.378 189.211 109.587L192.823 108.712C192.985 109.045 193.222 109.373 193.532 109.698C193.842 110.031 194.26 110.304 194.784 110.518C195.316 110.74 195.984 110.85 196.789 110.85C197.927 110.85 198.869 110.573 199.615 110.02C200.361 109.473 200.734 108.572 200.734 107.316V104.092H200.534C200.327 104.506 200.025 104.93 199.626 105.366C199.234 105.802 198.713 106.168 198.063 106.463C197.421 106.758 196.612 106.906 195.637 106.906C194.33 106.906 193.144 106.6 192.081 105.987C191.024 105.366 190.182 104.443 189.554 103.217C188.934 101.983 188.624 100.439 188.624 98.5854C188.624 96.7167 188.934 95.1397 189.554 93.8544C190.182 92.5618 191.028 91.5831 192.092 90.9184C193.155 90.2462 194.341 89.9101 195.648 89.9101C196.645 89.9101 197.465 90.08 198.108 90.4198C198.758 90.7522 199.275 91.1547 199.659 91.6275C200.043 92.0928 200.335 92.5323 200.534 92.9459H200.756V90.1317H204.711V107.427C204.711 108.882 204.364 110.086 203.67 111.039C202.975 111.992 202.026 112.704 200.822 113.177C199.618 113.65 198.252 113.886 196.723 113.886ZM196.756 103.76C197.606 103.76 198.329 103.553 198.928 103.139C199.526 102.725 199.98 102.131 200.29 101.355C200.601 100.58 200.756 99.649 200.756 98.5633C200.756 97.4922 200.601 96.5542 200.29 95.749C199.988 94.9439 199.537 94.3198 198.939 93.8766C198.348 93.426 197.62 93.2008 196.756 93.2008C195.862 93.2008 195.116 93.4334 194.518 93.8988C193.92 94.3641 193.469 95.003 193.166 95.8155C192.863 96.6206 192.712 97.5365 192.712 98.5633C192.712 99.6047 192.863 100.517 193.166 101.3C193.477 102.075 193.931 102.681 194.529 103.117C195.135 103.545 195.877 103.76 196.756 103.76ZM216.245 107.482C214.583 107.482 213.143 107.117 211.924 106.385C210.705 105.654 209.76 104.631 209.088 103.316C208.423 102.002 208.09 100.465 208.09 98.7073C208.09 96.9493 208.423 95.4093 209.088 94.0871C209.76 92.765 210.705 91.7383 211.924 91.007C213.143 90.2758 214.583 89.9101 216.245 89.9101C217.907 89.9101 219.347 90.2758 220.566 91.007C221.785 91.7383 222.727 92.765 223.391 94.0871C224.063 95.4093 224.4 96.9493 224.4 98.7073C224.4 100.465 224.063 102.002 223.391 103.316C222.727 104.631 221.785 105.654 220.566 106.385C219.347 107.117 217.907 107.482 216.245 107.482ZM216.267 104.269C217.168 104.269 217.922 104.022 218.527 103.527C219.133 103.025 219.584 102.352 219.879 101.51C220.182 100.668 220.333 99.7303 220.333 98.6962C220.333 97.6547 220.182 96.713 219.879 95.8709C219.584 95.0215 219.133 94.3456 218.527 93.8434C217.922 93.3411 217.168 93.09 216.267 93.09C215.344 93.09 214.576 93.3411 213.963 93.8434C213.357 94.3456 212.903 95.0215 212.6 95.8709C212.304 96.713 212.157 97.6547 212.157 98.6962C212.157 99.7303 212.304 100.668 212.6 101.51C212.903 102.352 213.357 103.025 213.963 103.527C214.576 104.022 215.344 104.269 216.267 104.269ZM232.701 107.493C231.623 107.493 230.651 107.301 229.787 106.917C228.93 106.526 228.251 105.95 227.748 105.189C227.253 104.428 227.006 103.49 227.006 102.375C227.006 101.414 227.183 100.62 227.538 99.9925C227.892 99.3647 228.376 98.8624 228.989 98.4857C229.602 98.109 230.293 97.8246 231.061 97.6326C231.837 97.4331 232.638 97.2891 233.465 97.2005C234.463 97.0971 235.271 97.0047 235.892 96.9235C236.512 96.8348 236.963 96.7019 237.244 96.5246C237.532 96.34 237.676 96.0556 237.676 95.6715V95.605C237.676 94.7704 237.428 94.124 236.933 93.6661C236.438 93.2081 235.726 92.9792 234.795 92.9792C233.813 92.9792 233.033 93.1934 232.457 93.6218C231.888 94.0502 231.504 94.5562 231.305 95.1397L227.56 94.6079C227.855 93.5738 228.343 92.7096 229.023 92.0152C229.702 91.3135 230.533 90.7891 231.515 90.4419C232.498 90.0874 233.584 89.9101 234.773 89.9101C235.593 89.9101 236.409 90.0062 237.221 90.1982C238.034 90.3902 238.776 90.7079 239.448 91.151C240.121 91.5868 240.66 92.1814 241.066 92.9348C241.48 93.6883 241.686 94.63 241.686 95.7601V107.15H237.831V104.812H237.698C237.454 105.285 237.111 105.728 236.667 106.142C236.232 106.548 235.681 106.877 235.017 107.128C234.359 107.371 233.587 107.493 232.701 107.493ZM233.742 104.546C234.548 104.546 235.246 104.387 235.836 104.07C236.427 103.745 236.882 103.316 237.199 102.785C237.524 102.253 237.687 101.673 237.687 101.045V99.0397C237.561 99.1431 237.347 99.2391 237.044 99.3277C236.749 99.4164 236.416 99.4939 236.047 99.5604C235.678 99.6269 235.312 99.686 234.95 99.7377C234.588 99.7894 234.274 99.8337 234.008 99.8706C233.41 99.9519 232.875 100.085 232.402 100.27C231.929 100.454 231.556 100.713 231.283 101.045C231.009 101.37 230.873 101.791 230.873 102.308C230.873 103.047 231.142 103.604 231.682 103.981C232.221 104.358 232.908 104.546 233.742 104.546ZM249.73 84.459V107.15H245.719V84.459H249.73Z" fill="#535862"/>
<path d="M123.649 149.94V146.671L133.277 131.459H136.003V136.112H134.341L127.859 146.383V146.56H141.299V149.94H123.649ZM134.474 154.15V148.943L134.518 147.48V131.459H138.396V154.15H134.474ZM153.226 154.582C151.402 154.582 149.836 154.12 148.528 153.197C147.228 152.266 146.227 150.926 145.526 149.175C144.831 147.417 144.484 145.301 144.484 142.827C144.492 140.352 144.842 138.247 145.537 136.511C146.238 134.768 147.239 133.439 148.539 132.523C149.847 131.607 151.409 131.149 153.226 131.149C155.043 131.149 156.605 131.607 157.913 132.523C159.22 133.439 160.221 134.768 160.915 136.511C161.617 138.254 161.968 140.36 161.968 142.827C161.968 145.308 161.617 147.428 160.915 149.186C160.221 150.937 159.22 152.274 157.913 153.197C156.613 154.12 155.05 154.582 153.226 154.582ZM153.226 151.114C154.644 151.114 155.763 150.416 156.583 149.02C157.41 147.617 157.824 145.552 157.824 142.827C157.824 141.024 157.636 139.51 157.259 138.284C156.882 137.058 156.35 136.135 155.663 135.514C154.977 134.886 154.164 134.572 153.226 134.572C151.815 134.572 150.7 135.274 149.88 136.677C149.06 138.073 148.646 140.123 148.639 142.827C148.632 144.636 148.813 146.158 149.182 147.391C149.559 148.625 150.09 149.556 150.777 150.183C151.464 150.804 152.281 151.114 153.226 151.114ZM177.781 149.895V148.699C177.781 147.82 177.966 147.011 178.335 146.272C178.712 145.534 179.258 144.939 179.975 144.489C180.691 144.038 181.559 143.813 182.578 143.813C183.627 143.813 184.506 144.038 185.215 144.489C185.924 144.932 186.46 145.523 186.822 146.261C187.191 147 187.376 147.812 187.376 148.699V149.895C187.376 150.774 187.191 151.583 186.822 152.322C186.453 153.06 185.91 153.655 185.193 154.106C184.484 154.556 183.613 154.781 182.578 154.781C181.544 154.781 180.669 154.556 179.953 154.106C179.236 153.655 178.693 153.06 178.324 152.322C177.962 151.583 177.781 150.774 177.781 149.895ZM180.673 148.699V149.895C180.673 150.479 180.813 151.014 181.094 151.502C181.374 151.989 181.869 152.233 182.578 152.233C183.295 152.233 183.786 151.993 184.052 151.513C184.325 151.025 184.462 150.486 184.462 149.895V148.699C184.462 148.108 184.333 147.569 184.074 147.081C183.816 146.586 183.317 146.339 182.578 146.339C181.884 146.339 181.393 146.586 181.105 147.081C180.817 147.569 180.673 148.108 180.673 148.699ZM166.247 136.91V135.714C166.247 134.827 166.436 134.015 166.812 133.276C167.189 132.537 167.736 131.946 168.452 131.503C169.169 131.053 170.036 130.827 171.056 130.827C172.097 130.827 172.972 131.053 173.682 131.503C174.398 131.946 174.937 132.537 175.299 133.276C175.661 134.015 175.842 134.827 175.842 135.714V136.91C175.842 137.796 175.657 138.609 175.288 139.348C174.926 140.079 174.387 140.666 173.67 141.109C172.954 141.552 172.082 141.774 171.056 141.774C170.014 141.774 169.135 141.552 168.419 141.109C167.71 140.666 167.17 140.075 166.801 139.337C166.432 138.598 166.247 137.789 166.247 136.91ZM169.161 135.714V136.91C169.161 137.501 169.298 138.04 169.571 138.528C169.852 139.008 170.347 139.248 171.056 139.248C171.765 139.248 172.252 139.008 172.518 138.528C172.792 138.04 172.928 137.501 172.928 136.91V135.714C172.928 135.123 172.799 134.583 172.54 134.096C172.282 133.601 171.787 133.354 171.056 133.354C170.354 133.354 169.863 133.601 169.582 134.096C169.301 134.591 169.161 135.13 169.161 135.714ZM167.51 154.15L183.11 131.459H185.88L170.28 154.15H167.51Z" fill="#181D27"/>
</svg>
