<svg width="239" height="40" viewBox="0 0 239 40" fill="none" xmlns="http://www.w3.org/2000/svg">
<g clip-path="url(#clip0_4692_2777)">
<path d="M89.4329 15.6197V30.4764H84.008V15.6197H78.5212V10.8897H94.9043V15.6197H89.4329Z" fill="#414651"/>
<path d="M107.583 24.5682H98.9652C99.1357 26.1965 100.081 26.9099 101.461 26.9099C102.747 26.9099 103.817 26.6308 105.258 25.8709L107.18 29.0965C105.367 30.1666 103.491 30.7714 101.197 30.7714C96.7797 30.7714 94.3463 27.6388 94.3463 23.1259C94.3463 18.0548 97.1982 15.4649 101.058 15.4649C105.088 15.4649 107.598 18.1168 107.598 23.5757C107.598 24.0099 107.598 24.3201 107.583 24.5682ZM100.918 19.2024C99.7712 19.2024 99.1357 19.9933 98.9652 21.4356H103.166C102.902 19.9468 102.406 19.2024 100.918 19.2024Z" fill="#414651"/>
<path d="M116.945 30.7866C112.636 30.7866 110.063 28.0416 110.063 23.0945C110.063 18.5817 112.357 15.4801 117.053 15.4801C119.828 15.4801 121.409 16.7673 122.695 18.8298L119.223 21.4662C118.526 20.179 118.045 19.5587 116.96 19.5587C115.674 19.5587 115.023 20.8459 115.023 23.1721C115.023 25.4983 115.72 26.6924 117.1 26.6924C118.045 26.6924 118.727 26.1651 119.642 24.7849L122.835 27.2817C121.13 29.794 119.549 30.7866 116.945 30.7866Z" fill="#414651"/>
<path d="M134.103 30.4766V22.1332C134.103 20.2257 133.467 19.7295 132.429 19.7295C131.359 19.7295 130.724 20.2257 130.724 22.0867V30.4766H125.687V12.084L130.724 10.0679V16.7674C131.654 16.0696 132.677 15.4803 134.413 15.4803C137.637 15.4803 139.171 17.6359 139.171 21.4974V30.4766H134.103Z" fill="#414651"/>
<path d="M151.214 30.7868C145.402 30.7868 142.287 26.4755 142.287 20.691C142.287 14.3947 145.976 10.5952 151.23 10.5952C156.035 10.5952 157.941 12.6733 159.29 16.3643L154.376 18.2717C153.679 16.4573 153.012 15.3097 151.214 15.3097C148.951 15.3097 147.975 17.5739 147.975 20.6755C147.975 23.6686 148.92 26.0413 151.276 26.0413C152.981 26.0413 153.71 25.1108 154.764 23.2654L159.352 25.7001C158.05 28.29 155.864 30.7868 151.214 30.7868Z" fill="#414651"/>
<path d="M171.736 21.3269C171.1 20.6291 170.372 20.1018 169.396 20.1018C168.171 20.1018 167.412 20.6911 167.412 22.4745V30.4767H162.374V15.7906H167.412V16.8606C168.28 16.0232 169.256 15.4959 170.542 15.4959C171.612 15.4959 172.325 15.744 172.914 16.1162L171.736 21.3269Z" fill="#414651"/>
<path d="M183.702 30.4766V29.4996C182.803 30.1975 181.749 30.7868 180.044 30.7868C176.82 30.7868 175.285 28.6312 175.285 24.7697V15.7905H180.354V24.1338C180.354 26.0413 180.989 26.5376 182.028 26.5376C183.066 26.5376 183.702 26.0413 183.702 24.1803V15.7905H188.77V30.4766H183.702Z" fill="#414651"/>
<path d="M200.813 30.4764V22.1331C200.813 20.2256 200.178 19.7293 199.139 19.7293C198.07 19.7293 197.434 20.2256 197.434 22.0865V30.4764H192.397V15.7902H197.434V16.7673C198.364 16.0694 199.387 15.4801 201.123 15.4801C204.347 15.4801 205.882 17.6357 205.882 21.4972V30.4764H200.813Z" fill="#414651"/>
<path d="M215.693 30.7866C211.384 30.7866 208.811 28.0416 208.811 23.0945C208.811 18.5817 211.105 15.4801 215.801 15.4801C218.576 15.4801 220.157 16.7673 221.443 18.8298L217.971 21.4662C217.274 20.179 216.793 19.5587 215.708 19.5587C214.422 19.5587 213.771 20.8459 213.771 23.1721C213.771 25.4983 214.468 26.6924 215.848 26.6924C216.793 26.6924 217.475 26.1651 218.39 24.7849L221.583 27.2817C219.878 29.794 218.297 30.7866 215.693 30.7866Z" fill="#414651"/>
<path d="M232.851 30.4766V22.1332C232.851 20.2257 232.215 19.7295 231.177 19.7295C230.108 19.7295 229.472 20.2257 229.472 22.0867V30.4766H224.435V12.084L229.472 10.0679V16.7674C230.402 16.0696 231.425 15.4803 233.161 15.4803C236.385 15.4803 237.919 17.6359 237.919 21.4974V30.4766H232.851Z" fill="#414651"/>
<path d="M0 2.5V13.6968H11.1907V36.075H22.366V13.6968H33.5567V2.5H0Z" fill="#414651"/>
<path d="M44.7319 24.8783V13.6969L33.5567 13.6968L33.5567 36.0751H67.0979V24.8783H44.7319Z" fill="#414651"/>
<path d="M67.0979 2.5H44.7319L44.7319 13.6969L67.0979 13.6968V2.5Z" fill="#414651"/>
</g>
<defs>
<clipPath id="clip0_4692_2777">
<rect width="238.333" height="40" fill="white"/>
</clipPath>
</defs>
</svg>
