<svg width="52" height="52" viewBox="0 0 52 52" fill="none" xmlns="http://www.w3.org/2000/svg">
<g filter="url(#filter0_dii_4706_10032)">
<path d="M2 11C2 5.47715 6.47715 1 12 1H40C45.5229 1 50 5.47715 50 11V39C50 44.5229 45.5228 49 40 49H12C6.47715 49 2 44.5228 2 39V11Z" fill="white"/>
<path d="M12 1.5H40C45.2467 1.5 49.5 5.75329 49.5 11V39C49.5 44.2467 45.2467 48.5 40 48.5H12C6.7533 48.5 2.5 44.2467 2.5 39V11C2.5 5.7533 6.75329 1.5 12 1.5Z" stroke="#D5D7DA"/>
<path d="M23 34H18.6C18.0399 34 17.7599 34 17.546 33.891C17.3578 33.7951 17.2049 33.6422 17.109 33.454C17 33.2401 17 32.9601 17 32.4V17.6C17 17.0399 17 16.7599 17.109 16.546C17.2049 16.3578 17.3578 16.2049 17.546 16.109C17.7599 16 18.0399 16 18.6 16H21.4C21.9601 16 22.2401 16 22.454 16.109C22.6422 16.2049 22.7951 16.3578 22.891 16.546C23 16.7599 23 17.0399 23 17.6V20M23 34H29M23 34L23 20M23 20H27.4C27.9601 20 28.2401 20 28.454 20.109C28.6422 20.2049 28.7951 20.3578 28.891 20.546C29 20.7599 29 21.0399 29 21.6V34M29 24H33.4C33.9601 24 34.2401 24 34.454 24.109C34.6422 24.2049 34.7951 24.3578 34.891 24.546C35 24.7599 35 25.0399 35 25.6V32.4C35 32.9601 35 33.2401 34.891 33.454C34.7951 33.6422 34.6422 33.7951 34.454 33.891C34.2401 34 33.9601 34 33.4 34H29" stroke="black" stroke-width="2" stroke-linecap="round" stroke-linejoin="round"/>
</g>
<defs>
<filter id="filter0_dii_4706_10032" x="0" y="0" width="52" height="52" filterUnits="userSpaceOnUse" color-interpolation-filters="sRGB">
<feFlood flood-opacity="0" result="BackgroundImageFix"/>
<feColorMatrix in="SourceAlpha" type="matrix" values="0 0 0 0 0 0 0 0 0 0 0 0 0 0 0 0 0 0 127 0" result="hardAlpha"/>
<feOffset dy="1"/>
<feGaussianBlur stdDeviation="1"/>
<feColorMatrix type="matrix" values="0 0 0 0 0.0392157 0 0 0 0 0.0496732 0 0 0 0 0.0705882 0 0 0 0.05 0"/>
<feBlend mode="normal" in2="BackgroundImageFix" result="effect1_dropShadow_4706_10032"/>
<feBlend mode="normal" in="SourceGraphic" in2="effect1_dropShadow_4706_10032" result="shape"/>
<feColorMatrix in="SourceAlpha" type="matrix" values="0 0 0 0 0 0 0 0 0 0 0 0 0 0 0 0 0 0 127 0" result="hardAlpha"/>
<feOffset dy="-2"/>
<feComposite in2="hardAlpha" operator="arithmetic" k2="-1" k3="1"/>
<feColorMatrix type="matrix" values="0 0 0 0 0.0392157 0 0 0 0 0.0496732 0 0 0 0 0.0705882 0 0 0 0.05 0"/>
<feBlend mode="normal" in2="shape" result="effect2_innerShadow_4706_10032"/>
<feColorMatrix in="SourceAlpha" type="matrix" values="0 0 0 0 0 0 0 0 0 0 0 0 0 0 0 0 0 0 127 0" result="hardAlpha"/>
<feMorphology radius="1" operator="erode" in="SourceAlpha" result="effect3_innerShadow_4706_10032"/>
<feOffset/>
<feComposite in2="hardAlpha" operator="arithmetic" k2="-1" k3="1"/>
<feColorMatrix type="matrix" values="0 0 0 0 0.0392157 0 0 0 0 0.0496732 0 0 0 0 0.0705882 0 0 0 0.18 0"/>
<feBlend mode="normal" in2="effect2_innerShadow_4706_10032" result="effect3_innerShadow_4706_10032"/>
</filter>
</defs>
</svg>
