<svg width="32" height="24" viewBox="0 0 32 24" fill="none" xmlns="http://www.w3.org/2000/svg">
<rect width="32" height="23.8191" transform="translate(0 0.090332)" fill="white" fill-opacity="0.01"/>
<path d="M4 0.590332H28C29.933 0.590332 31.5 2.15734 31.5 4.09033V19.9097C31.4999 21.8426 29.9329 23.4097 28 23.4097H4C2.06707 23.4097 0.500101 21.8426 0.5 19.9097V4.09033C0.5 2.15734 2.067 0.590332 4 0.590332Z" fill="white"/>
<path d="M4 0.590332H28C29.933 0.590332 31.5 2.15734 31.5 4.09033V19.9097C31.4999 21.8426 29.9329 23.4097 28 23.4097H4C2.06707 23.4097 0.500101 21.8426 0.5 19.9097V4.09033C0.5 2.15734 2.067 0.590332 4 0.590332Z" stroke="#E9EAEB"/>
<path fill-rule="evenodd" clip-rule="evenodd" d="M10.9503 15.8486H8.89051L7.34596 9.78271C7.27264 9.50368 7.11698 9.257 6.88801 9.14073C6.31659 8.84856 5.68691 8.61604 5 8.49876V8.26523H8.31808C8.77602 8.26523 9.11948 8.61604 9.17672 9.02346L9.97813 13.399L12.0369 8.26523H14.0394L10.9503 15.8486ZM15.1842 15.8486H13.239L14.8408 8.26523H16.786L15.1842 15.8486ZM19.3027 10.366C19.3599 9.95761 19.7034 9.72407 20.1041 9.72407C20.7338 9.66544 21.4197 9.78271 21.9921 10.0739L22.3356 8.44114C21.7631 8.20761 21.1335 8.09033 20.562 8.09033C18.674 8.09033 17.3002 9.14074 17.3002 10.5986C17.3002 11.7076 18.2733 12.2899 18.9602 12.6407C19.7034 12.9905 19.9896 13.2241 19.9324 13.5739C19.9324 14.0986 19.3599 14.3321 18.7885 14.3321C18.1016 14.3321 17.4147 14.1572 16.786 13.865L16.4426 15.4988C17.1295 15.7899 17.8726 15.9072 18.5595 15.9072C20.6765 15.9648 21.9921 14.9155 21.9921 13.3403C21.9921 11.3568 19.3027 11.2405 19.3027 10.366ZM28.8 15.8486L27.2554 8.26523H25.5964C25.2529 8.26523 24.9095 8.49876 24.795 8.84856L21.9349 15.8486H23.9374L24.3371 14.7405H26.7975L27.0265 15.8486H28.8ZM25.8826 10.3074L26.454 13.1655H24.8523L25.8826 10.3074Z" fill="#172B85"/>
</svg>
