<svg width="21" height="22" viewBox="0 0 21 22" fill="none" xmlns="http://www.w3.org/2000/svg">
<path fill-rule="evenodd" clip-rule="evenodd" d="M10.5 21.5C16.299 21.5 21 16.799 21 11C21 5.20101 16.299 0.5 10.5 0.5C4.70101 0.5 0 5.20101 0 11C0 12.8832 0.495748 14.6505 1.36386 16.1787L0 21.5L5.48615 20.2278C6.97603 21.0391 8.68419 21.5 10.5 21.5ZM10.5 19.8846C15.4068 19.8846 19.3846 15.9068 19.3846 11C19.3846 6.09316 15.4068 2.11538 10.5 2.11538C5.59316 2.11538 1.61538 6.09316 1.61538 11C1.61538 12.8945 2.20838 14.6506 3.21888 16.0927L2.42308 19.0769L5.45995 18.3177C6.89202 19.3059 8.62843 19.8846 10.5 19.8846Z" fill="white"/>
</svg>
